---
# This empty front matter lets Jekyll set the flourish color from _config.yml.
---
<svg xmlns="http://www.w3.org/2000/svg" viewBox="0 0 303 76" width="303" height="76" aria-hidden="true">
  <g fill="{{ site.colors.primary | default: '#3464A6' }}">
    <path d="M 31.96 44.27 L 32.01 44.28 L 32.07 44.29 L 32.14 44.31 L 32.21 44.32 L 32.28 44.34 L 32.36 44.36 L 32.44 44.38 L 32.53 44.40 L 32.62 44.43 L 32.71 44.45 L 32.81 44.48 L 32.91 44.51 L 33.01 44.54 L 33.12 44.57 L 33.23 44.60 L 33.34 44.63 L 33.45 44.67 L 33.57 44.70 L 33.69 44.73 L 33.81 44.77 L 33.93 44.80 L 34.06 44.84 L 34.19 44.87 L 34.32 44.91 L 34.45 44.94 L 34.58 44.98 L 34.71 45.01 L 34.85 45.05 L 34.98 45.08 L 35.12 45.12 L 35.25 45.15 L 35.39 45.18 L 35.53 45.21 L 35.67 45.24 L 35.81 45.27 L 35.95 45.30 L 36.09 45.33 L 36.23 45.35 L 36.37 45.38 L 36.51 45.40 L 36.65 45.42 L 36.79 45.44 L 36.93 45.45 L 37.06 45.47 L 37.20 45.48 L 37.34 45.49 L 37.47 45.50 L 37.61 45.51 L 37.74 45.51 L 37.87 45.51 L 38.00 45.51 L 38.13 45.50 L 38.26 45.50 L 38.39 45.48 L 38.51 45.47 L 38.64 45.45 L 38.76 45.43 L 38.88 45.40 L 39.00 45.37 L 39.11 45.34 L 39.22 45.30 L 39.33 45.26 L 39.44 45.22 L 39.55 45.17 L 39.66 45.12 L 39.77 45.07 L 39.88 45.02 L 39.99 44.96 L 40.10 44.90 L 40.20 44.84 L 40.31 44.78 L 40.42 44.71 L 40.53 44.64 L 40.64 44.57 L 40.75 44.50 L 40.85 44.43 L 40.96 44.35 L 41.07 44.27 L 41.17 44.19 L 41.28 44.11 L 41.38 44.03 L 41.48 43.94 L 41.59 43.86 L 41.69 43.77 L 41.79 43.68 L 41.89 43.59 L 41.99 43.50 L 42.09 43.40 L 42.19 43.31 L 42.28 43.21 L 42.38 43.12 L 42.47 43.02 L 42.57 42.92 L 42.66 42.82 L 42.75 42.72 L 42.84 42.62 L 42.92 42.52 L 43.01 42.42 L 43.09 42.32 L 43.18 42.21 L 43.26 42.11 L 43.34 42.01 L 43.41 41.90 L 43.49 41.80 L 43.56 41.70 L 43.63 41.59 L 43.70 41.49 L 43.77 41.38 L 43.84 41.28 L 43.90 41.18 L 43.96 41.07 L 44.02 40.97 L 44.08 40.86 L 44.13 40.76 L 44.19 40.66 L 44.24 40.56 L 44.28 40.45 L 44.33 40.35 L 44.37 40.25 L 44.41 40.15 L 44.45 40.05 L 44.48 39.95 L 44.51 39.85 L 44.54 39.74 L 44.57 39.64 L 44.60 39.53 L 44.63 39.43 L 44.65 39.32 L 44.67 39.22 L 44.69 39.11 L 44.71 39.00 L 44.72 38.89 L 44.74 38.78 L 44.75 38.67 L 44.76 38.56 L 44.77 38.45 L 44.78 38.34 L 44.79 38.22 L 44.79 38.11 L 44.79 38.00 L 44.79 37.89 L 44.79 37.77 L 44.79 37.66 L 44.78 37.55 L 44.77 37.43 L 44.77 37.32 L 44.76 37.21 L 44.74 37.09 L 44.73 36.98 L 44.71 36.86 L 44.70 36.75 L 44.68 36.64 L 44.66 36.52 L 44.63 36.41 L 44.61 36.30 L 44.58 36.19 L 44.55 36.07 L 44.52 35.96 L 44.49 35.85 L 44.46 35.74 L 44.42 35.63 L 44.38 35.52 L 44.35 35.41 L 44.30 35.30 L 44.26 35.19 L 44.22 35.09 L 44.17 34.98 L 44.12 34.88 L 44.07 34.77 L 44.02 34.67 L 43.97 34.56 L 43.91 34.46 L 43.85 34.36 L 43.79 34.26 L 43.73 34.16 L 43.67 34.06 L 43.60 33.97 L 43.53 33.87 L 43.47 33.78 L 43.39 33.68 L 43.32 33.59 L 43.24 33.50 L 43.16 33.41 L 43.08 33.32 L 43.00 33.23 L 42.91 33.14 L 42.82 33.05 L 42.72 32.96 L 42.63 32.87 L 42.53 32.78 L 42.43 32.69 L 42.33 32.61 L 42.23 32.52 L 42.12 32.43 L 42.01 32.35 L 41.90 32.26 L 41.79 32.18 L 41.68 32.10 L 41.56 32.01 L 41.45 31.93 L 41.33 31.85 L 41.21 31.77 L 41.09 31.69 L 40.97 31.61 L 40.84 31.53 L 40.72 31.45 L 40.59 31.37 L 40.46 31.30 L 40.33 31.22 L 40.20 31.15 L 40.07 31.07 L 39.94 31.00 L 39.81 30.93 L 39.68 30.86 L 39.54 30.79 L 39.41 30.72 L 39.27 30.65 L 39.14 30.58 L 39.00 30.52 L 38.86 30.45 L 38.73 30.39 L 38.59 30.33 L 38.45 30.26 L 38.32 30.20 L 38.18 30.15 L 38.04 30.09 L 37.90 30.03 L 37.77 29.98 L 37.63 29.92 L 37.49 29.87 L 37.36 29.82 L 37.22 29.77 L 37.08 29.72 L 36.95 29.67 L 36.81 29.63 L 36.68 29.59 L 36.55 29.54 L 36.42 29.50 L 36.28 29.47 L 36.15 29.43 L 36.02 29.39 L 35.89 29.36 L 35.77 29.33 L 35.64 29.29 L 35.51 29.26 L 35.37 29.23 L 35.24 29.20 L 35.11 29.17 L 34.98 29.14 L 34.85 29.12 L 34.72 29.09 L 34.58 29.06 L 34.45 29.04 L 34.32 29.02 L 34.18 29.00 L 34.05 28.98 L 33.92 28.96 L 33.78 28.94 L 33.65 28.92 L 33.51 28.90 L 33.37 28.89 L 33.24 28.87 L 33.10 28.86 L 32.96 28.85 L 32.83 28.84 L 32.69 28.83 L 32.55 28.82 L 32.41 28.81 L 32.27 28.81 L 32.13 28.81 L 32.00 28.80 L 31.86 28.80 L 31.72 28.80 L 31.58 28.80 L 31.43 28.80 L 31.29 28.81 L 31.15 28.81 L 31.01 28.82 L 30.87 28.83 L 30.73 28.84 L 30.58 28.85 L 30.44 28.86 L 30.30 28.87 L 30.15 28.89 L 30.01 28.91 L 29.86 28.93 L 29.72 28.95 L 29.57 28.97 L 29.43 28.99 L 29.28 29.01 L 29.14 29.04 L 28.99 29.07 L 28.84 29.10 L 28.70 29.13 L 28.55 29.16 L 28.40 29.20 L 28.25 29.23 L 28.11 29.27 L 27.96 29.31 L 27.81 29.35 L 27.66 29.40 L 27.51 29.44 L 27.36 29.49 L 27.21 29.54 L 27.05 29.59 L 26.90 29.64 L 26.74 29.69 L 26.59 29.75 L 26.43 29.81 L 26.27 29.87 L 26.11 29.93 L 25.95 29.99 L 25.79 30.05 L 25.63 30.12 L 25.47 30.19 L 25.31 30.26 L 25.15 30.33 L 24.99 30.40 L 24.82 30.47 L 24.66 30.55 L 24.50 30.62 L 24.33 30.70 L 24.17 30.78 L 24.01 30.86 L 23.84 30.94 L 23.68 31.02 L 23.51 31.11 L 23.35 31.19 L 23.19 31.28 L 23.02 31.37 L 22.86 31.45 L 22.70 31.54 L 22.54 31.63 L 22.37 31.73 L 22.21 31.82 L 22.05 31.91 L 21.89 32.01 L 21.73 32.10 L 21.57 32.20 L 21.42 32.30 L 21.26 32.40 L 21.10 32.50 L 20.95 32.60 L 20.79 32.70 L 20.64 32.80 L 20.49 32.90 L 20.34 33.01 L 20.18 33.11 L 20.04 33.22 L 19.89 33.32 L 19.74 33.43 L 19.60 33.54 L 19.45 33.64 L 19.31 33.75 L 19.17 33.86 L 19.03 33.97 L 18.89 34.08 L 18.76 34.19 L 18.62 34.30 L 18.49 34.41 L 18.36 34.52 L 18.23 34.64 L 18.10 34.75 L 17.97 34.86 L 17.84 34.98 L 17.71 35.09 L 17.58 35.21 L 17.45 35.33 L 17.32 35.45 L 17.19 35.57 L 17.06 35.70 L 16.93 35.82 L 16.80 35.95 L 16.67 36.07 L 16.54 36.20 L 16.41 36.33 L 16.28 36.46 L 16.15 36.59 L 16.02 36.72 L 15.89 36.86 L 15.77 36.99 L 15.64 37.12 L 15.51 37.26 L 15.39 37.40 L 15.27 37.53 L 15.15 37.67 L 15.03 37.81 L 14.91 37.95 L 14.79 38.09 L 14.67 38.23 L 14.56 38.38 L 14.44 38.52 L 14.33 38.66 L 14.22 38.81 L 14.11 38.95 L 14.00 39.10 L 13.90 39.25 L 13.79 39.40 L 13.69 39.54 L 13.59 39.69 L 13.50 39.84 L 13.40 39.99 L 13.31 40.14 L 13.22 40.29 L 13.13 40.45 L 13.04 40.60 L 12.96 40.75 L 12.88 40.91 L 12.80 41.06 L 12.73 41.22 L 12.66 41.37 L 12.59 41.53 L 12.52 41.69 L 12.46 41.84 L 12.40 42.00 L 12.34 42.16 L 12.29 42.32 L 12.24 42.48 L 12.20 42.64 L 12.16 42.80 L 12.12 42.96 L 12.09 43.12 L 12.06 43.28 L 12.03 43.44 L 12.00 43.60 L 11.98 43.77 L 11.96 43.93 L 11.95 44.10 L 11.93 44.26 L 11.92 44.42 L 11.92 44.59 L 11.91 44.76 L 11.91 44.92 L 11.91 45.09 L 11.91 45.26 L 11.92 45.42 L 11.93 45.59 L 11.94 45.76 L 11.95 45.93 L 11.97 46.09 L 11.98 46.26 L 12.00 46.43 L 12.03 46.60 L 12.05 46.77 L 12.08 46.94 L 12.11 47.10 L 12.14 47.27 L 12.17 47.44 L 12.21 47.61 L 12.25 47.77 L 12.29 47.94 L 12.33 48.11 L 12.37 48.27 L 12.42 48.44 L 12.47 48.60 L 12.51 48.77 L 12.57 48.93 L 12.62 49.10 L 12.67 49.26 L 12.73 49.42 L 12.79 49.59 L 12.85 49.75 L 12.91 49.91 L 12.98 50.07 L 13.04 50.23 L 13.11 50.39 L 13.18 50.54 L 13.25 50.70 L 13.32 50.86 L 13.39 51.01 L 13.47 51.17 L 13.54 51.32 L 13.62 51.47 L 13.70 51.62 L 13.78 51.77 L 13.86 51.92 L 13.94 52.07 L 14.03 52.21 L 14.11 52.36 L 14.20 52.50 L 14.29 52.64 L 14.38 52.78 L 14.47 52.92 L 14.57 53.07 L 14.66 53.21 L 14.76 53.35 L 14.86 53.49 L 14.96 53.63 L 15.06 53.78 L 15.17 53.92 L 15.28 54.06 L 15.39 54.20 L 15.50 54.34 L 15.61 54.48 L 15.72 54.62 L 15.84 54.76 L 15.96 54.90 L 16.08 55.04 L 16.20 55.18 L 16.32 55.32 L 16.45 55.46 L 16.58 55.59 L 16.71 55.73 L 16.84 55.87 L 16.97 56.00 L 17.10 56.13 L 17.24 56.27 L 17.38 56.40 L 17.51 56.53 L 17.65 56.66 L 17.80 56.79 L 17.94 56.92 L 18.09 57.05 L 18.23 57.17 L 18.38 57.30 L 18.53 57.42 L 18.69 57.55 L 18.84 57.67 L 18.99 57.79 L 19.15 57.91 L 19.31 58.03 L 19.47 58.14 L 19.63 58.26 L 19.79 58.37 L 19.96 58.48 L 20.12 58.59 L 20.29 58.70 L 20.46 58.81 L 20.63 58.91 L 20.80 59.01 L 20.98 59.11 L 21.15 59.21 L 21.33 59.31 L 21.50 59.41 L 21.68 59.50 L 21.86 59.59 L 22.05 59.68 L 22.23 59.77 L 22.41 59.85 L 22.60 59.93 L 22.78 60.01 L 22.97 60.09 L 23.15 60.17 L 23.34 60.24 L 23.53 60.32 L 23.72 60.39 L 23.91 60.46 L 24.11 60.54 L 24.30 60.61 L 24.50 60.68 L 24.70 60.75 L 24.90 60.81 L 25.10 60.88 L 25.30 60.94 L 25.51 61.01 L 25.71 61.07 L 25.92 61.13 L 26.13 61.19 L 26.34 61.25 L 26.56 61.30 L 26.77 61.36 L 26.99 61.41 L 27.20 61.47 L 27.42 61.52 L 27.64 61.57 L 27.86 61.61 L 28.08 61.66 L 28.31 61.70 L 28.53 61.75 L 28.76 61.79 L 28.99 61.83 L 29.22 61.87 L 29.45 61.90 L 29.68 61.93 L 29.91 61.97 L 30.15 62.00 L 30.38 62.03 L 30.62 62.05 L 30.86 62.08 L 31.10 62.10 L 31.34 62.12 L 31.58 62.14 L 31.82 62.15 L 32.06 62.17 L 32.31 62.18 L 32.56 62.19 L 32.80 62.20 L 33.05 62.20 L 33.30 62.21 L 33.55 62.21 L 33.80 62.21 L 34.05 62.20 L 34.31 62.20 L 34.56 62.19 L 34.82 62.18 L 35.07 62.16 L 35.33 62.15 L 35.59 62.13 L 35.85 62.11 L 36.11 62.08 L 36.37 62.06 L 36.63 62.03 L 36.90 62.00 L 37.16 61.97 L 37.43 61.93 L 37.70 61.89 L 37.97 61.85 L 38.25 61.81 L 38.52 61.76 L 38.80 61.71 L 39.08 61.66 L 39.35 61.61 L 39.64 61.56 L 39.92 61.50 L 40.20 61.44 L 40.49 61.38 L 40.77 61.32 L 41.06 61.25 L 41.35 61.19 L 41.64 61.12 L 41.93 61.05 L 42.22 60.98 L 42.51 60.90 L 42.80 60.82 L 43.10 60.75 L 43.39 60.67 L 43.68 60.58 L 43.98 60.50 L 44.28 60.42 L 44.57 60.33 L 44.87 60.24 L 45.17 60.15 L 45.47 60.06 L 45.77 59.96 L 46.06 59.87 L 46.36 59.77 L 46.66 59.67 L 46.96 59.57 L 47.26 59.47 L 47.56 59.37 L 47.86 59.27 L 48.16 59.16 L 48.46 59.05 L 48.76 58.94 L 49.05 58.84 L 49.35 58.72 L 49.65 58.61 L 49.95 58.50 L 50.25 58.38 L 50.54 58.27 L 50.84 58.15 L 51.13 58.03 L 51.43 57.92 L 51.72 57.80 L 52.01 57.68 L 52.31 57.55 L 52.60 57.43 L 52.89 57.31 L 53.18 57.18 L 53.47 57.06 L 53.76 56.93 L 54.05 56.79 L 54.34 56.66 L 54.63 56.52 L 54.92 56.38 L 55.21 56.24 L 55.50 56.09 L 55.79 55.95 L 56.08 55.80 L 56.37 55.65 L 56.65 55.50 L 56.94 55.34 L 57.23 55.18 L 57.51 55.02 L 57.80 54.86 L 58.09 54.70 L 58.37 54.54 L 58.66 54.37 L 58.94 54.21 L 59.23 54.04 L 59.51 53.87 L 59.79 53.70 L 60.08 53.53 L 60.36 53.36 L 60.65 53.18 L 60.93 53.01 L 61.21 52.83 L 61.50 52.66 L 61.78 52.48 L 62.06 52.30 L 62.34 52.13 L 62.63 51.95 L 62.91 51.77 L 63.19 51.59 L 63.48 51.41 L 63.76 51.23 L 64.04 51.05 L 64.32 50.87 L 64.61 50.69 L 64.89 50.51 L 65.17 50.33 L 65.46 50.15 L 65.74 49.97 L 66.02 49.79 L 66.31 49.61 L 66.59 49.43 L 66.87 49.25 L 67.16 49.08 L 67.44 48.90 L 67.73 48.72 L 68.01 48.55 L 68.30 48.37 L 68.58 48.20 L 68.87 48.03 L 69.15 47.86 L 69.44 47.69 L 69.72 47.52 L 70.01 47.35 L 70.30 47.18 L 70.58 47.02 L 70.88 46.85 L 71.17 46.68 L 71.47 46.51 L 71.76 46.34 L 72.06 46.17 L 72.35 46.00 L 72.65 45.82 L 72.94 45.65 L 73.24 45.47 L 73.54 45.30 L 73.84 45.12 L 74.13 44.94 L 74.43 44.77 L 74.73 44.59 L 75.03 44.41 L 75.33 44.24 L 75.62 44.06 L 75.92 43.88 L 76.22 43.70 L 76.52 43.52 L 76.82 43.35 L 77.12 43.17 L 77.42 42.99 L 77.72 42.81 L 78.02 42.64 L 78.32 42.46 L 78.62 42.28 L 78.92 42.11 L 79.22 41.93 L 79.52 41.76 L 79.82 41.58 L 80.12 41.41 L 80.42 41.24 L 80.72 41.06 L 81.02 40.89 L 81.32 40.72 L 81.62 40.55 L 81.92 40.38 L 82.22 40.22 L 82.52 40.05 L 82.82 39.89 L 83.12 39.72 L 83.42 39.56 L 83.72 39.40 L 84.02 39.24 L 84.32 39.08 L 84.61 38.92 L 84.91 38.77 L 85.21 38.61 L 85.51 38.46 L 85.80 38.31 L 86.10 38.16 L 86.40 38.01 L 86.69 37.87 L 86.99 37.73 L 87.28 37.58 L 87.58 37.45 L 87.87 37.31 L 88.17 37.17 L 88.46 37.04 L 88.76 36.91 L 89.05 36.78 L 89.35 36.65 L 89.65 36.52 L 89.95 36.39 L 90.26 36.27 L 90.56 36.14 L 90.87 36.02 L 91.17 35.89 L 91.48 35.77 L 91.79 35.65 L 92.10 35.53 L 92.41 35.41 L 92.72 35.29 L 93.03 35.18 L 93.34 35.06 L 93.65 34.95 L 93.97 34.83 L 94.28 34.72 L 94.59 34.61 L 94.90 34.50 L 95.22 34.39 L 95.53 34.28 L 95.84 34.17 L 96.16 34.06 L 96.47 33.96 L 96.78 33.85 L 97.09 33.75 L 97.40 33.65 L 97.71 33.55 L 98.02 33.45 L 98.33 33.35 L 98.63 33.25 L 98.94 33.15 L 99.25 33.06 L 99.55 32.96 L 99.85 32.87 L 100.15 32.78 L 100.45 32.69 L 100.75 32.60 L 101.05 32.51 L 101.34 32.42 L 101.64 32.33 L 101.93 32.25 L 102.22 32.16 L 102.51 32.08 L 102.79 31.99 L 103.07 31.91 L 103.36 31.83 L 103.63 31.75 L 103.91 31.67 L 104.18 31.60 L 104.46 31.52 L 104.72 31.45 L 104.99 31.37 L 105.25 31.30 L 105.51 31.23 L 105.77 31.16 L 106.02 31.09 L 106.27 31.02 L 106.52 30.95 L 106.76 30.89 L 107.00 30.82 L 107.24 30.76 L 107.47 30.70 L 107.70 30.64 L 107.93 30.58 L 108.16 30.52 L 108.38 30.47 L 108.60 30.41 L 108.82 30.36 L 109.04 30.31 L 109.25 30.26 L 109.46 30.21 L 109.67 30.16 L 109.88 30.11 L 110.08 30.06 L 110.29 30.02 L 110.49 29.98 L 110.69 29.93 L 110.89 29.89 L 111.08 29.85 L 111.28 29.81 L 111.47 29.77 L 111.66 29.74 L 111.85 29.70 L 112.04 29.66 L 112.23 29.63 L 112.42 29.60 L 112.60 29.56 L 112.79 29.53 L 112.97 29.50 L 113.15 29.47 L 113.34 29.45 L 113.52 29.42 L 113.70 29.39 L 113.88 29.37 L 114.06 29.34 L 114.24 29.32 L 114.42 29.29 L 114.60 29.27 L 114.77 29.25 L 114.95 29.23 L 115.13 29.21 L 115.31 29.19 L 115.49 29.17 L 115.67 29.15 L 115.85 29.13 L 116.03 29.12 L 116.21 29.10 L 116.39 29.09 L 116.57 29.07 L 116.75 29.06 L 116.93 29.04 L 117.11 29.03 L 117.30 29.02 L 117.48 29.01 L 117.67 29.00 L 117.85 28.99 L 118.04 28.98 L 118.23 28.97 L 118.42 28.96 L 118.61 28.95 L 118.80 28.94 L 118.98 28.94 L 119.17 28.93 L 119.36 28.92 L 119.54 28.92 L 119.73 28.92 L 119.91 28.91 L 120.10 28.91 L 120.28 28.91 L 120.47 28.90 L 120.65 28.90 L 120.84 28.90 L 121.02 28.90 L 121.20 28.91 L 121.38 28.91 L 121.57 28.91 L 121.75 28.91 L 121.93 28.92 L 122.11 28.92 L 122.29 28.93 L 122.47 28.94 L 122.65 28.94 L 122.83 28.95 L 123.01 28.96 L 123.19 28.97 L 123.37 28.98 L 123.55 29.00 L 123.73 29.01 L 123.91 29.02 L 124.08 29.04 L 124.26 29.06 L 124.44 29.07 L 124.61 29.09 L 124.79 29.11 L 124.97 29.13 L 125.14 29.15 L 125.32 29.17 L 125.49 29.20 L 125.67 29.22 L 125.84 29.25 L 126.02 29.27 L 126.19 29.30 L 126.36 29.33 L 126.54 29.36 L 126.71 29.39 L 126.88 29.42 L 127.05 29.46 L 127.22 29.49 L 127.39 29.53 L 127.57 29.57 L 127.74 29.60 L 127.91 29.64 L 128.08 29.68 L 128.25 29.73 L 128.42 29.77 L 128.59 29.81 L 128.75 29.86 L 128.93 29.91 L 129.10 29.96 L 129.27 30.01 L 129.45 30.06 L 129.62 30.11 L 129.80 30.17 L 129.97 30.22 L 130.15 30.28 L 130.33 30.34 L 130.51 30.40 L 130.69 30.46 L 130.86 30.52 L 131.04 30.58 L 131.22 30.65 L 131.40 30.71 L 131.58 30.78 L 131.76 30.85 L 131.94 30.92 L 132.12 30.99 L 132.30 31.06 L 132.48 31.13 L 132.66 31.20 L 132.84 31.28 L 133.02 31.35 L 133.19 31.43 L 133.37 31.51 L 133.55 31.58 L 133.72 31.66 L 133.90 31.74 L 134.07 31.82 L 134.24 31.91 L 134.41 31.99 L 134.58 32.07 L 134.75 32.16 L 134.92 32.24 L 135.09 32.33 L 135.25 32.42 L 135.41 32.50 L 135.57 32.59 L 135.73 32.68 L 135.89 32.77 L 136.05 32.86 L 136.20 32.95 L 136.35 33.04 L 136.50 33.14 L 136.65 33.23 L 136.80 33.32 L 136.94 33.42 L 137.08 33.51 L 137.22 33.61 L 137.36 33.70 L 137.49 33.80 L 137.62 33.90 L 137.75 34.00 L 137.88 34.09 L 138.00 34.19 L 138.12 34.29 L 138.23 34.39 L 138.35 34.49 L 138.46 34.58 L 138.57 34.68 L 138.67 34.79 L 138.78 34.89 L 138.89 35.00 L 138.99 35.10 L 139.09 35.21 L 139.20 35.32 L 139.30 35.43 L 139.40 35.55 L 139.49 35.66 L 139.59 35.77 L 139.68 35.89 L 139.78 36.01 L 139.87 36.13 L 139.96 36.25 L 140.05 36.37 L 140.14 36.49 L 140.22 36.61 L 140.31 36.74 L 140.39 36.86 L 140.47 36.99 L 140.55 37.11 L 140.63 37.24 L 140.71 37.37 L 140.79 37.50 L 140.86 37.62 L 140.93 37.75 L 141.00 37.88 L 141.07 38.01 L 141.14 38.15 L 141.20 38.28 L 141.27 38.41 L 141.33 38.54 L 141.39 38.67 L 141.45 38.80 L 141.50 38.94 L 141.56 39.07 L 141.61 39.20 L 141.66 39.34 L 141.71 39.47 L 141.76 39.60 L 141.80 39.73 L 141.85 39.87 L 141.89 40.00 L 141.93 40.13 L 141.97 40.26 L 142.00 40.39 L 142.04 40.52 L 142.07 40.65 L 142.10 40.78 L 142.13 40.91 L 142.15 41.04 L 142.18 41.17 L 142.20 41.30 L 142.22 41.42 L 142.24 41.55 L 142.25 41.67 L 142.27 41.80 L 142.28 41.92 L 142.29 42.04 L 142.30 42.16 L 142.30 42.28 L 142.31 42.40 L 142.31 42.53 L 142.30 42.65 L 142.30 42.77 L 142.29 42.90 L 142.28 43.03 L 142.27 43.15 L 142.26 43.28 L 142.24 43.41 L 142.23 43.54 L 142.21 43.67 L 142.18 43.80 L 142.16 43.93 L 142.13 44.07 L 142.11 44.20 L 142.07 44.33 L 142.04 44.46 L 142.01 44.60 L 141.97 44.73 L 141.93 44.86 L 141.89 45.00 L 141.85 45.13 L 141.81 45.27 L 141.76 45.40 L 141.72 45.54 L 141.67 45.67 L 141.62 45.80 L 141.57 45.94 L 141.52 46.07 L 141.46 46.20 L 141.40 46.34 L 141.35 46.47 L 141.29 46.60 L 141.23 46.73 L 141.17 46.86 L 141.11 47.00 L 141.04 47.13 L 140.98 47.25 L 140.91 47.38 L 140.84 47.51 L 140.78 47.64 L 140.71 47.76 L 140.64 47.89 L 140.57 48.01 L 140.49 48.13 L 140.42 48.26 L 140.35 48.38 L 140.28 48.50 L 140.20 48.62 L 140.13 48.73 L 140.05 48.85 L 139.97 48.96 L 139.90 49.08 L 139.82 49.19 L 139.74 49.30 L 139.66 49.41 L 139.59 49.51 L 139.51 49.62 L 139.43 49.72 L 139.35 49.83 L 139.26 49.93 L 139.18 50.04 L 139.09 50.14 L 139.00 50.25 L 138.91 50.35 L 138.82 50.46 L 138.72 50.56 L 138.62 50.67 L 138.53 50.77 L 138.43 50.88 L 138.32 50.98 L 138.22 51.09 L 138.12 51.19 L 138.01 51.30 L 137.90 51.40 L 137.79 51.50 L 137.68 51.60 L 137.57 51.70 L 137.46 51.80 L 137.35 51.90 L 137.23 52.00 L 137.12 52.10 L 137.00 52.20 L 136.88 52.29 L 136.77 52.39 L 136.65 52.48 L 136.53 52.57 L 136.41 52.66 L 136.29 52.75 L 136.17 52.84 L 136.05 52.92 L 135.93 53.01 L 135.81 53.09 L 135.68 53.17 L 135.56 53.25 L 135.44 53.33 L 135.32 53.41 L 135.20 53.48 L 135.08 53.55 L 134.96 53.62 L 134.83 53.69 L 134.71 53.76 L 134.59 53.82 L 134.47 53.88 L 134.35 53.94 L 134.24 54.00 L 134.12 54.05 L 134.00 54.11 L 133.88 54.15 L 133.77 54.20 L 133.66 54.25 L 133.54 54.29 L 133.43 54.33 L 133.32 54.36 L 133.21 54.40 L 133.10 54.43 L 132.99 54.46 L 132.89 54.48 L 132.79 54.50 L 132.68 54.52 L 132.58 54.54 L 132.47 54.55 L 132.36 54.57 L 132.25 54.58 L 132.14 54.58 L 132.03 54.59 L 131.92 54.59 L 131.81 54.59 L 131.70 54.59 L 131.58 54.58 L 131.47 54.58 L 131.35 54.57 L 131.24 54.56 L 131.12 54.54 L 131.01 54.53 L 130.89 54.51 L 130.77 54.49 L 130.65 54.47 L 130.54 54.45 L 130.42 54.42 L 130.30 54.39 L 130.18 54.37 L 130.06 54.34 L 129.94 54.30 L 129.83 54.27 L 129.71 54.24 L 129.59 54.20 L 129.47 54.16 L 129.35 54.12 L 129.23 54.08 L 129.12 54.04 L 129.00 54.00 L 128.88 53.95 L 128.77 53.91 L 128.65 53.86 L 128.54 53.81 L 128.42 53.76 L 128.31 53.71 L 128.19 53.66 L 128.08 53.61 L 127.97 53.56 L 127.86 53.51 L 127.75 53.46 L 127.64 53.40 L 127.53 53.35 L 127.43 53.29 L 127.32 53.24 L 127.22 53.18 L 127.11 53.13 L 127.01 53.07 L 126.91 53.01 L 126.81 52.96 L 126.71 52.90 L 126.61 52.85 L 126.52 52.79 L 126.42 52.73 L 126.33 52.68 L 126.24 52.62 L 126.15 52.57 L 126.06 52.51 L 125.98 52.45 L 125.89 52.39 L 125.80 52.33 L 125.71 52.26 L 125.62 52.20 L 125.53 52.13 L 125.44 52.07 L 125.35 52.00 L 125.26 51.93 L 125.17 51.86 L 125.08 51.79 L 125.00 51.71 L 124.91 51.64 L 124.82 51.56 L 124.74 51.49 L 124.65 51.41 L 124.56 51.33 L 124.48 51.25 L 124.40 51.17 L 124.31 51.09 L 124.23 51.01 L 124.15 50.93 L 124.07 50.84 L 123.99 50.76 L 123.92 50.68 L 123.84 50.59 L 123.76 50.51 L 123.69 50.42 L 123.62 50.34 L 123.55 50.25 L 123.48 50.17 L 123.41 50.08 L 123.34 49.99 L 123.28 49.91 L 123.22 49.82 L 123.16 49.74 L 123.10 49.65 L 123.04 49.56 L 122.98 49.48 L 122.93 49.39 L 122.88 49.31 L 122.83 49.22 L 122.78 49.14 L 122.74 49.05 L 122.70 48.97 L 122.66 48.89 L 122.62 48.80 L 122.59 48.72 L 122.55 48.64 L 122.52 48.56 L 122.50 48.48 L 122.47 48.41 L 122.45 48.33 L 122.43 48.25 L 122.41 48.18 L 122.40 48.11 L 122.38 48.03 L 122.38 47.96 L 122.37 47.90 L 122.37 47.83 L 122.37 47.76 L 122.37 47.68 L 122.37 47.61 L 122.38 47.53 L 122.40 47.45 L 122.41 47.37 L 122.43 47.29 L 122.45 47.21 L 122.47 47.12 L 122.50 47.03 L 122.53 46.95 L 122.56 46.86 L 122.59 46.77 L 122.63 46.68 L 122.67 46.59 L 122.71 46.50 L 122.75 46.40 L 122.80 46.31 L 122.84 46.22 L 122.89 46.12 L 122.95 46.03 L 123.00 45.94 L 123.05 45.84 L 123.11 45.75 L 123.17 45.66 L 123.22 45.57 L 123.28 45.47 L 123.34 45.38 L 123.41 45.29 L 123.47 45.20 L 123.53 45.11 L 123.60 45.02 L 123.66 44.93 L 123.73 44.85 L 123.79 44.76 L 123.86 44.67 L 123.93 44.59 L 123.99 44.51 L 124.06 44.43 L 124.13 44.35 L 124.19 44.27 L 124.26 44.19 L 124.33 44.12 L 124.39 44.04 L 124.46 43.97 L 124.52 43.90 L 124.58 43.83 L 124.65 43.77 L 124.71 43.70 L 124.77 43.64 L 124.83 43.58 L 124.89 43.53 L 124.94 43.47 L 125.00 43.42 L 125.05 43.37 L 125.10 43.32 L 125.15 43.28 L 125.20 43.24 L 125.24 43.21 L 125.28 43.17 L 125.32 43.15 L 125.36 43.12 L 125.40 43.10 L 125.45 43.07 L 125.49 43.05 L 125.53 43.03 L 125.58 43.02 L 125.62 43.00 L 125.67 42.99 L 125.72 42.97 L 125.76 42.96 L 125.81 42.95 L 125.86 42.95 L 125.91 42.94 L 125.96 42.93 L 126.01 42.93 L 126.06 42.93 L 126.11 42.93 L 126.16 42.93 L 126.21 42.93 L 126.27 42.93 L 126.32 42.93 L 126.37 42.94 L 126.42 42.94 L 126.48 42.95 L 126.53 42.96 L 126.58 42.96 L 126.63 42.97 L 126.69 42.98 L 126.74 42.99 L 126.79 43.00 L 126.84 43.01 L 126.89 43.03 L 126.95 43.04 L 127.00 43.05 L 127.05 43.06 L 127.10 43.08 L 127.15 43.09 L 127.19 43.10 L 127.24 43.11 L 127.29 43.13 L 127.34 43.14 L 127.38 43.15 L 127.43 43.17 L 127.47 43.18 L 127.52 43.19 L 127.56 43.20 L 127.60 43.21 L 127.64 43.22 L 127.69 43.23 L 127.73 43.24 L 127.77 43.25 L 127.80 43.26 L 127.84 43.26 L 127.88 43.27 L 127.92 43.27 L 127.96 43.27 L 128.00 43.27 L 128.00 42.73 L 127.99 42.72 L 127.97 42.72 L 127.95 42.72 L 127.93 42.72 L 127.91 42.71 L 127.88 42.71 L 127.85 42.70 L 127.82 42.69 L 127.78 42.68 L 127.74 42.67 L 127.71 42.66 L 127.67 42.65 L 127.63 42.64 L 127.58 42.63 L 127.54 42.61 L 127.49 42.60 L 127.45 42.58 L 127.40 42.57 L 127.35 42.56 L 127.30 42.54 L 127.25 42.53 L 127.19 42.51 L 127.14 42.50 L 127.09 42.48 L 127.03 42.47 L 126.97 42.45 L 126.92 42.44 L 126.86 42.43 L 126.80 42.41 L 126.74 42.40 L 126.68 42.39 L 126.62 42.38 L 126.56 42.37 L 126.50 42.36 L 126.43 42.35 L 126.37 42.35 L 126.31 42.34 L 126.24 42.34 L 126.18 42.33 L 126.11 42.33 L 126.05 42.33 L 125.98 42.33 L 125.91 42.34 L 125.85 42.34 L 125.78 42.35 L 125.71 42.36 L 125.65 42.37 L 125.58 42.39 L 125.51 42.40 L 125.45 42.42 L 125.38 42.44 L 125.31 42.47 L 125.25 42.49 L 125.18 42.52 L 125.12 42.55 L 125.05 42.59 L 124.99 42.63 L 124.92 42.67 L 124.86 42.71 L 124.80 42.76 L 124.75 42.81 L 124.69 42.85 L 124.63 42.90 L 124.57 42.96 L 124.51 43.01 L 124.45 43.07 L 124.39 43.13 L 124.32 43.19 L 124.26 43.25 L 124.19 43.32 L 124.12 43.39 L 124.05 43.46 L 123.99 43.53 L 123.92 43.61 L 123.85 43.68 L 123.77 43.76 L 123.70 43.84 L 123.63 43.92 L 123.56 44.00 L 123.49 44.08 L 123.41 44.17 L 123.34 44.26 L 123.27 44.34 L 123.20 44.43 L 123.13 44.52 L 123.06 44.62 L 122.99 44.71 L 122.92 44.80 L 122.85 44.90 L 122.78 44.99 L 122.71 45.09 L 122.65 45.19 L 122.58 45.28 L 122.52 45.38 L 122.46 45.48 L 122.39 45.58 L 122.33 45.68 L 122.28 45.78 L 122.22 45.88 L 122.17 45.99 L 122.11 46.09 L 122.06 46.19 L 122.01 46.29 L 121.97 46.39 L 121.92 46.50 L 121.88 46.60 L 121.84 46.70 L 121.81 46.81 L 121.77 46.91 L 121.74 47.01 L 121.71 47.11 L 121.69 47.22 L 121.67 47.32 L 121.65 47.42 L 121.64 47.53 L 121.62 47.63 L 121.62 47.73 L 121.62 47.83 L 121.62 47.94 L 121.62 48.04 L 121.64 48.13 L 121.65 48.23 L 121.67 48.33 L 121.69 48.43 L 121.71 48.52 L 121.74 48.62 L 121.76 48.72 L 121.80 48.82 L 121.83 48.91 L 121.87 49.01 L 121.91 49.11 L 121.95 49.21 L 121.99 49.31 L 122.04 49.40 L 122.09 49.50 L 122.14 49.60 L 122.19 49.70 L 122.25 49.80 L 122.31 49.89 L 122.37 49.99 L 122.43 50.09 L 122.49 50.19 L 122.56 50.28 L 122.62 50.38 L 122.69 50.48 L 122.76 50.57 L 122.84 50.67 L 122.91 50.76 L 122.98 50.86 L 123.06 50.95 L 123.14 51.05 L 123.22 51.14 L 123.30 51.23 L 123.38 51.32 L 123.46 51.41 L 123.54 51.50 L 123.63 51.59 L 123.72 51.68 L 123.80 51.77 L 123.89 51.86 L 123.98 51.95 L 124.07 52.03 L 124.16 52.12 L 124.25 52.20 L 124.34 52.28 L 124.43 52.37 L 124.53 52.45 L 124.62 52.53 L 124.71 52.61 L 124.81 52.68 L 124.90 52.76 L 125.00 52.83 L 125.09 52.91 L 125.19 52.98 L 125.28 53.05 L 125.38 53.12 L 125.47 53.19 L 125.57 53.25 L 125.66 53.32 L 125.76 53.38 L 125.85 53.44 L 125.95 53.50 L 126.05 53.56 L 126.15 53.62 L 126.25 53.69 L 126.35 53.75 L 126.45 53.81 L 126.56 53.87 L 126.66 53.93 L 126.77 53.99 L 126.88 54.05 L 126.99 54.11 L 127.10 54.17 L 127.21 54.23 L 127.33 54.29 L 127.44 54.35 L 127.56 54.41 L 127.68 54.47 L 127.80 54.53 L 127.91 54.58 L 128.04 54.64 L 128.16 54.69 L 128.28 54.75 L 128.40 54.80 L 128.53 54.85 L 128.65 54.90 L 128.78 54.95 L 128.90 55.00 L 129.03 55.04 L 129.16 55.09 L 129.28 55.13 L 129.41 55.18 L 129.54 55.22 L 129.67 55.26 L 129.80 55.29 L 129.93 55.33 L 130.06 55.36 L 130.19 55.40 L 130.32 55.43 L 130.46 55.46 L 130.59 55.48 L 130.72 55.51 L 130.85 55.53 L 130.99 55.55 L 131.12 55.57 L 131.25 55.59 L 131.39 55.60 L 131.52 55.61 L 131.65 55.62 L 131.79 55.62 L 131.92 55.63 L 132.05 55.63 L 132.19 55.62 L 132.32 55.62 L 132.45 55.61 L 132.58 55.60 L 132.72 55.58 L 132.85 55.57 L 132.98 55.54 L 133.11 55.52 L 133.24 55.49 L 133.37 55.46 L 133.50 55.43 L 133.63 55.39 L 133.76 55.35 L 133.89 55.31 L 134.03 55.26 L 134.16 55.21 L 134.29 55.16 L 134.42 55.11 L 134.56 55.05 L 134.69 54.99 L 134.83 54.93 L 134.96 54.87 L 135.09 54.80 L 135.23 54.74 L 135.36 54.67 L 135.50 54.60 L 135.63 54.52 L 135.76 54.45 L 135.90 54.37 L 136.03 54.29 L 136.17 54.21 L 136.30 54.12 L 136.43 54.04 L 136.56 53.95 L 136.70 53.86 L 136.83 53.77 L 136.96 53.68 L 137.09 53.59 L 137.22 53.49 L 137.35 53.40 L 137.48 53.30 L 137.61 53.20 L 137.73 53.11 L 137.86 53.00 L 137.98 52.90 L 138.11 52.80 L 138.23 52.70 L 138.35 52.59 L 138.48 52.49 L 138.60 52.38 L 138.71 52.27 L 138.83 52.17 L 138.95 52.06 L 139.06 51.95 L 139.18 51.84 L 139.29 51.73 L 139.40 51.62 L 139.51 51.51 L 139.61 51.39 L 139.72 51.28 L 139.82 51.17 L 139.92 51.06 L 140.02 50.95 L 140.12 50.83 L 140.22 50.72 L 140.31 50.61 L 140.40 50.49 L 140.49 50.38 L 140.58 50.27 L 140.67 50.15 L 140.76 50.04 L 140.84 49.92 L 140.93 49.80 L 141.01 49.68 L 141.10 49.56 L 141.18 49.43 L 141.27 49.31 L 141.35 49.18 L 141.43 49.06 L 141.51 48.93 L 141.59 48.80 L 141.67 48.67 L 141.75 48.53 L 141.83 48.40 L 141.91 48.27 L 141.99 48.13 L 142.06 47.99 L 142.13 47.86 L 142.21 47.72 L 142.28 47.58 L 142.35 47.44 L 142.42 47.30 L 142.49 47.16 L 142.55 47.01 L 142.62 46.87 L 142.68 46.73 L 142.75 46.58 L 142.81 46.44 L 142.87 46.29 L 142.92 46.15 L 142.98 46.00 L 143.04 45.85 L 143.09 45.70 L 143.14 45.55 L 143.19 45.41 L 143.24 45.26 L 143.28 45.11 L 143.33 44.96 L 143.37 44.81 L 143.41 44.66 L 143.44 44.51 L 143.48 44.36 L 143.51 44.21 L 143.54 44.06 L 143.57 43.91 L 143.60 43.76 L 143.62 43.60 L 143.64 43.45 L 143.66 43.30 L 143.68 43.15 L 143.69 43.00 L 143.70 42.85 L 143.71 42.70 L 143.72 42.55 L 143.72 42.40 L 143.72 42.25 L 143.72 42.10 L 143.71 41.96 L 143.70 41.81 L 143.69 41.66 L 143.68 41.52 L 143.66 41.37 L 143.64 41.22 L 143.62 41.08 L 143.60 40.93 L 143.57 40.78 L 143.55 40.63 L 143.52 40.48 L 143.48 40.33 L 143.45 40.18 L 143.41 40.03 L 143.38 39.88 L 143.34 39.73 L 143.29 39.58 L 143.25 39.43 L 143.20 39.28 L 143.15 39.13 L 143.10 38.98 L 143.05 38.83 L 143.00 38.68 L 142.94 38.53 L 142.88 38.37 L 142.82 38.22 L 142.76 38.08 L 142.69 37.93 L 142.63 37.78 L 142.56 37.63 L 142.49 37.48 L 142.42 37.33 L 142.34 37.18 L 142.27 37.04 L 142.19 36.89 L 142.11 36.75 L 142.03 36.60 L 141.94 36.46 L 141.86 36.31 L 141.77 36.17 L 141.68 36.03 L 141.59 35.89 L 141.50 35.75 L 141.40 35.61 L 141.31 35.47 L 141.21 35.33 L 141.11 35.19 L 141.01 35.06 L 140.91 34.92 L 140.80 34.79 L 140.70 34.66 L 140.59 34.53 L 140.48 34.40 L 140.37 34.27 L 140.25 34.14 L 140.14 34.02 L 140.02 33.90 L 139.91 33.77 L 139.79 33.65 L 139.67 33.53 L 139.54 33.42 L 139.42 33.30 L 139.29 33.18 L 139.16 33.07 L 139.02 32.95 L 138.88 32.84 L 138.74 32.73 L 138.60 32.61 L 138.46 32.50 L 138.31 32.39 L 138.16 32.28 L 138.01 32.18 L 137.86 32.07 L 137.70 31.96 L 137.55 31.86 L 137.39 31.75 L 137.22 31.65 L 137.06 31.55 L 136.90 31.45 L 136.73 31.34 L 136.56 31.24 L 136.39 31.15 L 136.22 31.05 L 136.05 30.95 L 135.87 30.86 L 135.70 30.76 L 135.52 30.67 L 135.34 30.57 L 135.17 30.48 L 134.99 30.39 L 134.80 30.30 L 134.62 30.21 L 134.44 30.12 L 134.26 30.04 L 134.07 29.95 L 133.89 29.87 L 133.70 29.78 L 133.52 29.70 L 133.33 29.62 L 133.14 29.54 L 132.96 29.46 L 132.77 29.38 L 132.58 29.31 L 132.39 29.23 L 132.21 29.16 L 132.02 29.08 L 131.83 29.01 L 131.64 28.94 L 131.46 28.87 L 131.27 28.80 L 131.08 28.74 L 130.90 28.67 L 130.71 28.61 L 130.52 28.54 L 130.34 28.48 L 130.15 28.42 L 129.97 28.36 L 129.79 28.30 L 129.61 28.25 L 129.43 28.19 L 129.25 28.14 L 129.06 28.09 L 128.88 28.04 L 128.70 27.99 L 128.52 27.94 L 128.34 27.89 L 128.15 27.85 L 127.97 27.80 L 127.79 27.76 L 127.60 27.72 L 127.42 27.68 L 127.24 27.64 L 127.05 27.60 L 126.87 27.56 L 126.68 27.53 L 126.50 27.50 L 126.31 27.46 L 126.13 27.43 L 125.94 27.40 L 125.76 27.37 L 125.57 27.34 L 125.38 27.32 L 125.20 27.29 L 125.01 27.27 L 124.83 27.24 L 124.64 27.22 L 124.45 27.20 L 124.26 27.18 L 124.08 27.16 L 123.89 27.14 L 123.70 27.13 L 123.51 27.11 L 123.32 27.10 L 123.13 27.08 L 122.94 27.07 L 122.76 27.06 L 122.57 27.05 L 122.38 27.04 L 122.19 27.03 L 122.00 27.02 L 121.81 27.01 L 121.62 27.01 L 121.43 27.00 L 121.23 26.99 L 121.04 26.99 L 120.85 26.99 L 120.66 26.98 L 120.47 26.98 L 120.28 26.98 L 120.08 26.98 L 119.89 26.98 L 119.70 26.98 L 119.51 26.98 L 119.31 26.99 L 119.12 26.99 L 118.93 26.99 L 118.73 27.00 L 118.54 27.00 L 118.35 27.01 L 118.15 27.02 L 117.96 27.02 L 117.76 27.03 L 117.57 27.04 L 117.38 27.05 L 117.19 27.06 L 116.99 27.07 L 116.80 27.08 L 116.61 27.09 L 116.43 27.10 L 116.24 27.11 L 116.05 27.13 L 115.86 27.14 L 115.67 27.15 L 115.49 27.17 L 115.30 27.19 L 115.11 27.20 L 114.92 27.22 L 114.74 27.24 L 114.55 27.26 L 114.36 27.28 L 114.18 27.30 L 113.99 27.32 L 113.80 27.34 L 113.61 27.37 L 113.42 27.39 L 113.23 27.42 L 113.04 27.45 L 112.85 27.47 L 112.66 27.50 L 112.47 27.53 L 112.27 27.56 L 112.08 27.59 L 111.88 27.62 L 111.69 27.66 L 111.49 27.69 L 111.29 27.73 L 111.09 27.76 L 110.89 27.80 L 110.68 27.84 L 110.48 27.88 L 110.27 27.92 L 110.07 27.96 L 109.86 28.00 L 109.65 28.05 L 109.43 28.09 L 109.22 28.14 L 109.00 28.19 L 108.78 28.23 L 108.56 28.28 L 108.34 28.34 L 108.12 28.39 L 107.89 28.44 L 107.66 28.50 L 107.43 28.55 L 107.19 28.61 L 106.95 28.67 L 106.72 28.73 L 106.47 28.79 L 106.23 28.85 L 105.98 28.92 L 105.73 28.98 L 105.48 29.05 L 105.22 29.11 L 104.96 29.18 L 104.70 29.25 L 104.43 29.32 L 104.16 29.39 L 103.89 29.47 L 103.62 29.54 L 103.34 29.62 L 103.06 29.69 L 102.78 29.77 L 102.49 29.85 L 102.21 29.93 L 101.92 30.01 L 101.62 30.09 L 101.33 30.17 L 101.04 30.26 L 100.74 30.34 L 100.44 30.43 L 100.14 30.51 L 99.83 30.60 L 99.53 30.69 L 99.22 30.78 L 98.91 30.88 L 98.60 30.97 L 98.29 31.06 L 97.98 31.16 L 97.67 31.26 L 97.35 31.35 L 97.04 31.45 L 96.72 31.55 L 96.41 31.65 L 96.09 31.76 L 95.77 31.86 L 95.45 31.96 L 95.13 32.07 L 94.81 32.18 L 94.49 32.28 L 94.17 32.39 L 93.85 32.50 L 93.53 32.62 L 93.21 32.73 L 92.89 32.84 L 92.57 32.96 L 92.25 33.07 L 91.93 33.19 L 91.61 33.31 L 91.29 33.43 L 90.98 33.55 L 90.66 33.67 L 90.34 33.80 L 90.03 33.92 L 89.71 34.05 L 89.40 34.17 L 89.08 34.30 L 88.77 34.43 L 88.46 34.56 L 88.15 34.69 L 87.84 34.83 L 87.54 34.96 L 87.23 35.10 L 86.92 35.23 L 86.62 35.37 L 86.31 35.52 L 86.00 35.66 L 85.70 35.81 L 85.39 35.96 L 85.08 36.11 L 84.78 36.26 L 84.47 36.41 L 84.16 36.57 L 83.86 36.72 L 83.55 36.88 L 83.24 37.04 L 82.94 37.20 L 82.63 37.36 L 82.32 37.53 L 82.02 37.69 L 81.71 37.86 L 81.41 38.02 L 81.10 38.19 L 80.79 38.36 L 80.49 38.53 L 80.18 38.70 L 79.88 38.87 L 79.57 39.05 L 79.27 39.22 L 78.96 39.39 L 78.66 39.57 L 78.35 39.74 L 78.05 39.92 L 77.75 40.09 L 77.44 40.27 L 77.14 40.45 L 76.84 40.63 L 76.54 40.80 L 76.23 40.98 L 75.93 41.16 L 75.63 41.34 L 75.33 41.51 L 75.03 41.69 L 74.73 41.87 L 74.43 42.05 L 74.13 42.22 L 73.83 42.40 L 73.53 42.58 L 73.24 42.75 L 72.94 42.93 L 72.64 43.10 L 72.35 43.28 L 72.05 43.45 L 71.76 43.62 L 71.46 43.80 L 71.17 43.97 L 70.87 44.14 L 70.58 44.31 L 70.29 44.48 L 70.00 44.65 L 69.71 44.81 L 69.42 44.98 L 69.12 45.15 L 68.83 45.32 L 68.53 45.49 L 68.24 45.67 L 67.95 45.84 L 67.65 46.02 L 67.36 46.19 L 67.07 46.37 L 66.78 46.55 L 66.49 46.72 L 66.20 46.90 L 65.91 47.08 L 65.63 47.26 L 65.34 47.44 L 65.05 47.62 L 64.77 47.80 L 64.48 47.99 L 64.20 48.17 L 63.91 48.35 L 63.63 48.53 L 63.35 48.71 L 63.06 48.89 L 62.78 49.07 L 62.50 49.25 L 62.22 49.43 L 61.93 49.61 L 61.65 49.79 L 61.37 49.97 L 61.09 50.14 L 60.81 50.32 L 60.53 50.50 L 60.26 50.67 L 59.98 50.85 L 59.70 51.02 L 59.42 51.19 L 59.14 51.36 L 58.86 51.53 L 58.59 51.70 L 58.31 51.87 L 58.03 52.03 L 57.76 52.20 L 57.48 52.36 L 57.20 52.52 L 56.93 52.68 L 56.65 52.84 L 56.38 52.99 L 56.10 53.15 L 55.83 53.30 L 55.55 53.45 L 55.28 53.60 L 55.00 53.74 L 54.73 53.89 L 54.45 54.03 L 54.18 54.17 L 53.90 54.30 L 53.63 54.44 L 53.36 54.57 L 53.08 54.70 L 52.81 54.82 L 52.53 54.94 L 52.25 55.07 L 51.97 55.19 L 51.69 55.31 L 51.41 55.43 L 51.13 55.55 L 50.84 55.67 L 50.56 55.79 L 50.27 55.91 L 49.99 56.02 L 49.70 56.14 L 49.41 56.25 L 49.12 56.36 L 48.84 56.48 L 48.55 56.59 L 48.26 56.70 L 47.97 56.80 L 47.68 56.91 L 47.39 57.02 L 47.10 57.12 L 46.81 57.22 L 46.52 57.32 L 46.23 57.43 L 45.94 57.52 L 45.65 57.62 L 45.36 57.72 L 45.08 57.81 L 44.79 57.90 L 44.50 57.99 L 44.21 58.08 L 43.93 58.17 L 43.64 58.26 L 43.36 58.34 L 43.07 58.43 L 42.79 58.51 L 42.50 58.59 L 42.22 58.66 L 41.94 58.74 L 41.66 58.81 L 41.38 58.88 L 41.11 58.95 L 40.83 59.02 L 40.55 59.09 L 40.28 59.15 L 40.01 59.22 L 39.74 59.28 L 39.47 59.33 L 39.20 59.39 L 38.93 59.44 L 38.67 59.50 L 38.41 59.55 L 38.15 59.59 L 37.89 59.64 L 37.63 59.68 L 37.37 59.72 L 37.12 59.76 L 36.87 59.80 L 36.62 59.83 L 36.38 59.86 L 36.13 59.89 L 35.89 59.92 L 35.65 59.94 L 35.41 59.96 L 35.18 59.98 L 34.94 60.00 L 34.70 60.01 L 34.47 60.02 L 34.23 60.03 L 34.00 60.04 L 33.77 60.05 L 33.54 60.05 L 33.31 60.05 L 33.08 60.05 L 32.85 60.05 L 32.62 60.05 L 32.39 60.04 L 32.17 60.03 L 31.94 60.02 L 31.72 60.01 L 31.50 59.99 L 31.27 59.98 L 31.05 59.96 L 30.83 59.94 L 30.62 59.91 L 30.40 59.89 L 30.18 59.87 L 29.97 59.84 L 29.75 59.81 L 29.54 59.78 L 29.33 59.75 L 29.12 59.71 L 28.91 59.68 L 28.70 59.64 L 28.49 59.60 L 28.28 59.56 L 28.08 59.52 L 27.88 59.48 L 27.67 59.43 L 27.47 59.38 L 27.27 59.34 L 27.07 59.29 L 26.88 59.24 L 26.68 59.19 L 26.49 59.13 L 26.29 59.08 L 26.10 59.02 L 25.91 58.97 L 25.72 58.91 L 25.53 58.85 L 25.35 58.79 L 25.16 58.73 L 24.98 58.67 L 24.80 58.61 L 24.62 58.54 L 24.44 58.48 L 24.26 58.41 L 24.09 58.34 L 23.91 58.28 L 23.74 58.21 L 23.57 58.14 L 23.40 58.07 L 23.24 58.00 L 23.08 57.92 L 22.91 57.85 L 22.75 57.77 L 22.59 57.70 L 22.44 57.62 L 22.28 57.54 L 22.12 57.45 L 21.97 57.37 L 21.81 57.28 L 21.66 57.19 L 21.51 57.10 L 21.36 57.01 L 21.21 56.91 L 21.06 56.82 L 20.91 56.72 L 20.76 56.62 L 20.62 56.52 L 20.47 56.42 L 20.33 56.31 L 20.19 56.21 L 20.05 56.10 L 19.91 56.00 L 19.77 55.89 L 19.63 55.78 L 19.50 55.67 L 19.36 55.56 L 19.23 55.44 L 19.10 55.33 L 18.97 55.21 L 18.84 55.10 L 18.71 54.98 L 18.59 54.86 L 18.46 54.74 L 18.34 54.62 L 18.22 54.50 L 18.10 54.38 L 17.98 54.26 L 17.86 54.14 L 17.75 54.01 L 17.64 53.89 L 17.52 53.77 L 17.41 53.64 L 17.30 53.52 L 17.20 53.39 L 17.09 53.27 L 16.99 53.14 L 16.89 53.02 L 16.79 52.89 L 16.69 52.76 L 16.59 52.64 L 16.49 52.51 L 16.40 52.38 L 16.31 52.26 L 16.22 52.13 L 16.13 52.00 L 16.05 51.88 L 15.96 51.75 L 15.88 51.63 L 15.80 51.50 L 15.72 51.38 L 15.64 51.25 L 15.57 51.12 L 15.49 50.99 L 15.42 50.86 L 15.34 50.73 L 15.27 50.60 L 15.20 50.47 L 15.13 50.33 L 15.06 50.20 L 14.99 50.06 L 14.93 49.92 L 14.86 49.78 L 14.80 49.65 L 14.74 49.51 L 14.68 49.37 L 14.62 49.22 L 14.56 49.08 L 14.51 48.94 L 14.45 48.80 L 14.40 48.65 L 14.35 48.51 L 14.30 48.37 L 14.25 48.22 L 14.21 48.08 L 14.16 47.93 L 14.12 47.79 L 14.08 47.64 L 14.04 47.50 L 14.00 47.35 L 13.97 47.21 L 13.93 47.06 L 13.90 46.92 L 13.87 46.77 L 13.85 46.63 L 13.82 46.48 L 13.80 46.34 L 13.77 46.19 L 13.76 46.05 L 13.74 45.91 L 13.72 45.76 L 13.71 45.62 L 13.70 45.48 L 13.69 45.34 L 13.68 45.20 L 13.68 45.06 L 13.67 44.92 L 13.67 44.78 L 13.67 44.64 L 13.68 44.51 L 13.68 44.37 L 13.69 44.24 L 13.70 44.10 L 13.72 43.97 L 13.73 43.84 L 13.75 43.71 L 13.77 43.58 L 13.79 43.45 L 13.82 43.32 L 13.84 43.20 L 13.87 43.08 L 13.90 42.95 L 13.94 42.83 L 13.98 42.70 L 14.02 42.58 L 14.07 42.45 L 14.11 42.32 L 14.16 42.19 L 14.22 42.06 L 14.28 41.93 L 14.34 41.80 L 14.40 41.67 L 14.47 41.54 L 14.53 41.40 L 14.61 41.27 L 14.68 41.14 L 14.76 41.01 L 14.83 40.87 L 14.92 40.74 L 15.00 40.60 L 15.09 40.47 L 15.17 40.34 L 15.27 40.20 L 15.36 40.07 L 15.45 39.93 L 15.55 39.80 L 15.65 39.67 L 15.75 39.53 L 15.85 39.40 L 15.95 39.27 L 16.06 39.13 L 16.17 39.00 L 16.28 38.87 L 16.39 38.74 L 16.50 38.61 L 16.61 38.48 L 16.72 38.35 L 16.84 38.22 L 16.95 38.09 L 17.07 37.96 L 17.19 37.83 L 17.31 37.71 L 17.43 37.58 L 17.55 37.45 L 17.67 37.33 L 17.79 37.21 L 17.91 37.08 L 18.03 36.96 L 18.16 36.84 L 18.28 36.72 L 18.40 36.60 L 18.53 36.49 L 18.65 36.37 L 18.77 36.25 L 18.90 36.14 L 19.02 36.03 L 19.14 35.91 L 19.26 35.80 L 19.39 35.69 L 19.51 35.59 L 19.63 35.48 L 19.75 35.38 L 19.87 35.27 L 20.00 35.17 L 20.13 35.06 L 20.25 34.96 L 20.39 34.86 L 20.52 34.75 L 20.65 34.65 L 20.79 34.55 L 20.92 34.44 L 21.06 34.34 L 21.20 34.24 L 21.34 34.14 L 21.49 34.04 L 21.63 33.94 L 21.77 33.84 L 21.92 33.75 L 22.07 33.65 L 22.21 33.55 L 22.36 33.46 L 22.51 33.36 L 22.66 33.27 L 22.81 33.17 L 22.96 33.08 L 23.11 32.99 L 23.27 32.90 L 23.42 32.81 L 23.57 32.72 L 23.73 32.63 L 23.88 32.55 L 24.03 32.46 L 24.19 32.38 L 24.34 32.30 L 24.50 32.21 L 24.65 32.13 L 24.80 32.05 L 24.96 31.98 L 25.11 31.90 L 25.27 31.82 L 25.42 31.75 L 25.57 31.68 L 25.72 31.61 L 25.88 31.54 L 26.03 31.47 L 26.18 31.40 L 26.33 31.34 L 26.48 31.27 L 26.63 31.21 L 26.77 31.15 L 26.92 31.09 L 27.07 31.04 L 27.21 30.98 L 27.36 30.93 L 27.50 30.88 L 27.64 30.83 L 27.78 30.78 L 27.92 30.73 L 28.05 30.69 L 28.19 30.65 L 28.32 30.61 L 28.46 30.57 L 28.59 30.53 L 28.73 30.50 L 28.86 30.46 L 28.99 30.43 L 29.13 30.40 L 29.26 30.37 L 29.39 30.34 L 29.52 30.31 L 29.65 30.29 L 29.79 30.26 L 29.92 30.24 L 30.05 30.22 L 30.18 30.20 L 30.31 30.18 L 30.44 30.17 L 30.57 30.15 L 30.70 30.14 L 30.83 30.13 L 30.96 30.11 L 31.09 30.10 L 31.22 30.10 L 31.35 30.09 L 31.48 30.08 L 31.60 30.08 L 31.73 30.07 L 31.86 30.07 L 31.99 30.07 L 32.12 30.07 L 32.24 30.07 L 32.37 30.07 L 32.50 30.08 L 32.62 30.08 L 32.75 30.09 L 32.88 30.09 L 33.00 30.10 L 33.13 30.11 L 33.25 30.12 L 33.38 30.13 L 33.50 30.15 L 33.63 30.16 L 33.75 30.17 L 33.88 30.19 L 34.00 30.21 L 34.13 30.22 L 34.25 30.24 L 34.38 30.26 L 34.50 30.28 L 34.62 30.31 L 34.75 30.33 L 34.87 30.35 L 34.99 30.38 L 35.12 30.40 L 35.24 30.43 L 35.36 30.45 L 35.48 30.48 L 35.60 30.51 L 35.73 30.54 L 35.85 30.57 L 35.97 30.60 L 36.09 30.64 L 36.21 30.67 L 36.34 30.71 L 36.46 30.74 L 36.59 30.78 L 36.71 30.82 L 36.84 30.87 L 36.97 30.91 L 37.10 30.95 L 37.22 31.00 L 37.35 31.05 L 37.48 31.10 L 37.61 31.15 L 37.74 31.20 L 37.87 31.25 L 38.00 31.31 L 38.13 31.36 L 38.27 31.42 L 38.40 31.47 L 38.53 31.53 L 38.65 31.59 L 38.78 31.65 L 38.91 31.71 L 39.04 31.78 L 39.17 31.84 L 39.30 31.90 L 39.42 31.97 L 39.55 32.04 L 39.67 32.10 L 39.79 32.17 L 39.92 32.24 L 40.04 32.31 L 40.16 32.38 L 40.28 32.45 L 40.39 32.52 L 40.51 32.59 L 40.62 32.66 L 40.74 32.74 L 40.85 32.81 L 40.96 32.88 L 41.07 32.96 L 41.17 33.03 L 41.27 33.11 L 41.38 33.18 L 41.48 33.26 L 41.57 33.33 L 41.67 33.41 L 41.76 33.48 L 41.85 33.56 L 41.94 33.64 L 42.02 33.71 L 42.11 33.79 L 42.19 33.86 L 42.26 33.94 L 42.34 34.02 L 42.41 34.09 L 42.48 34.17 L 42.54 34.24 L 42.61 34.32 L 42.67 34.39 L 42.73 34.47 L 42.78 34.55 L 42.84 34.62 L 42.89 34.70 L 42.95 34.79 L 43.00 34.87 L 43.05 34.95 L 43.10 35.04 L 43.15 35.13 L 43.19 35.21 L 43.24 35.30 L 43.28 35.39 L 43.32 35.48 L 43.36 35.57 L 43.40 35.66 L 43.44 35.76 L 43.48 35.85 L 43.51 35.94 L 43.54 36.04 L 43.57 36.13 L 43.60 36.23 L 43.63 36.32 L 43.66 36.42 L 43.68 36.52 L 43.71 36.62 L 43.73 36.71 L 43.75 36.81 L 43.77 36.91 L 43.79 37.01 L 43.80 37.11 L 43.82 37.21 L 43.83 37.31 L 43.84 37.41 L 43.85 37.51 L 43.86 37.60 L 43.87 37.70 L 43.87 37.80 L 43.87 37.90 L 43.88 38.00 L 43.88 38.10 L 43.87 38.20 L 43.87 38.29 L 43.87 38.39 L 43.86 38.49 L 43.85 38.58 L 43.85 38.68 L 43.84 38.77 L 43.82 38.87 L 43.81 38.96 L 43.79 39.05 L 43.78 39.15 L 43.76 39.24 L 43.74 39.33 L 43.72 39.42 L 43.70 39.51 L 43.67 39.59 L 43.65 39.68 L 43.62 39.77 L 43.59 39.85 L 43.56 39.93 L 43.53 40.02 L 43.49 40.11 L 43.45 40.19 L 43.41 40.28 L 43.37 40.37 L 43.32 40.47 L 43.28 40.56 L 43.22 40.65 L 43.17 40.75 L 43.12 40.84 L 43.06 40.94 L 43.00 41.03 L 42.94 41.13 L 42.87 41.23 L 42.81 41.32 L 42.74 41.42 L 42.67 41.52 L 42.60 41.61 L 42.53 41.71 L 42.45 41.81 L 42.38 41.90 L 42.30 42.00 L 42.22 42.10 L 42.14 42.19 L 42.06 42.29 L 41.97 42.38 L 41.89 42.48 L 41.80 42.57 L 41.72 42.66 L 41.63 42.75 L 41.54 42.84 L 41.45 42.93 L 41.36 43.02 L 41.27 43.11 L 41.17 43.19 L 41.08 43.27 L 40.99 43.36 L 40.89 43.44 L 40.80 43.52 L 40.70 43.60 L 40.61 43.67 L 40.51 43.75 L 40.41 43.82 L 40.32 43.89 L 40.22 43.96 L 40.12 44.02 L 40.03 44.09 L 39.93 44.15 L 39.83 44.21 L 39.74 44.27 L 39.64 44.32 L 39.54 44.37 L 39.45 44.42 L 39.35 44.47 L 39.26 44.51 L 39.16 44.56 L 39.07 44.59 L 38.98 44.63 L 38.89 44.66 L 38.80 44.69 L 38.71 44.72 L 38.61 44.74 L 38.52 44.76 L 38.41 44.78 L 38.31 44.79 L 38.20 44.81 L 38.09 44.82 L 37.98 44.82 L 37.86 44.83 L 37.74 44.83 L 37.62 44.83 L 37.50 44.83 L 37.38 44.82 L 37.25 44.81 L 37.12 44.81 L 37.00 44.79 L 36.87 44.78 L 36.73 44.77 L 36.60 44.75 L 36.47 44.73 L 36.34 44.71 L 36.20 44.69 L 36.07 44.67 L 35.93 44.64 L 35.80 44.62 L 35.66 44.59 L 35.53 44.57 L 35.39 44.54 L 35.26 44.51 L 35.12 44.48 L 34.99 44.45 L 34.86 44.42 L 34.73 44.39 L 34.60 44.35 L 34.47 44.32 L 34.34 44.29 L 34.21 44.26 L 34.09 44.23 L 33.97 44.20 L 33.85 44.16 L 33.73 44.13 L 33.61 44.10 L 33.49 44.07 L 33.38 44.04 L 33.27 44.01 L 33.16 43.98 L 33.06 43.96 L 32.96 43.93 L 32.86 43.90 L 32.76 43.88 L 32.67 43.86 L 32.58 43.83 L 32.49 43.81 L 32.41 43.80 L 32.33 43.78 L 32.25 43.76 L 32.18 43.75 L 32.11 43.74 L 32.04 43.73 Z"/>
    <path d="M 174.78 43.16 L 174.81 43.21 L 174.85 43.25 L 174.88 43.29 L 174.92 43.33 L 174.96 43.38 L 175.00 43.42 L 175.04 43.47 L 175.09 43.52 L 175.14 43.56 L 175.19 43.61 L 175.24 43.66 L 175.29 43.72 L 175.35 43.77 L 175.40 43.82 L 175.46 43.88 L 175.52 43.94 L 175.58 43.99 L 175.64 44.05 L 175.70 44.11 L 175.76 44.17 L 175.83 44.23 L 175.89 44.30 L 175.95 44.36 L 176.02 44.43 L 176.08 44.49 L 176.15 44.56 L 176.21 44.62 L 176.28 44.69 L 176.34 44.76 L 176.41 44.83 L 176.47 44.90 L 176.53 44.97 L 176.60 45.04 L 176.66 45.12 L 176.72 45.19 L 176.78 45.26 L 176.84 45.33 L 176.90 45.41 L 176.95 45.48 L 177.01 45.56 L 177.06 45.63 L 177.12 45.71 L 177.17 45.78 L 177.22 45.86 L 177.26 45.93 L 177.31 46.01 L 177.35 46.08 L 177.39 46.16 L 177.43 46.23 L 177.46 46.31 L 177.50 46.38 L 177.53 46.46 L 177.55 46.53 L 177.58 46.61 L 177.60 46.68 L 177.62 46.75 L 177.64 46.82 L 177.65 46.89 L 177.66 46.96 L 177.67 47.03 L 177.68 47.11 L 177.68 47.19 L 177.68 47.28 L 177.69 47.36 L 177.69 47.45 L 177.69 47.54 L 177.68 47.63 L 177.68 47.72 L 177.68 47.82 L 177.67 47.91 L 177.66 48.01 L 177.66 48.11 L 177.65 48.21 L 177.63 48.31 L 177.62 48.41 L 177.61 48.52 L 177.59 48.62 L 177.58 48.73 L 177.56 48.83 L 177.54 48.94 L 177.52 49.05 L 177.50 49.15 L 177.47 49.26 L 177.45 49.37 L 177.42 49.48 L 177.40 49.59 L 177.37 49.70 L 177.34 49.80 L 177.30 49.91 L 177.27 50.02 L 177.24 50.13 L 177.20 50.24 L 177.17 50.34 L 177.13 50.45 L 177.09 50.55 L 177.05 50.66 L 177.01 50.76 L 176.96 50.86 L 176.92 50.97 L 176.87 51.07 L 176.83 51.17 L 176.78 51.26 L 176.73 51.36 L 176.68 51.46 L 176.63 51.55 L 176.58 51.64 L 176.52 51.73 L 176.47 51.82 L 176.41 51.90 L 176.35 51.99 L 176.30 52.07 L 176.24 52.15 L 176.18 52.23 L 176.12 52.30 L 176.05 52.37 L 175.99 52.44 L 175.93 52.51 L 175.86 52.58 L 175.80 52.64 L 175.73 52.70 L 175.66 52.76 L 175.59 52.81 L 175.51 52.87 L 175.43 52.93 L 175.35 52.99 L 175.27 53.04 L 175.19 53.10 L 175.10 53.15 L 175.01 53.21 L 174.91 53.26 L 174.82 53.31 L 174.72 53.37 L 174.62 53.42 L 174.52 53.47 L 174.42 53.52 L 174.31 53.57 L 174.21 53.61 L 174.10 53.66 L 173.99 53.70 L 173.88 53.75 L 173.76 53.79 L 173.65 53.83 L 173.53 53.88 L 173.42 53.92 L 173.30 53.96 L 173.18 53.99 L 173.06 54.03 L 172.94 54.07 L 172.82 54.10 L 172.69 54.13 L 172.57 54.17 L 172.45 54.20 L 172.32 54.23 L 172.20 54.26 L 172.07 54.28 L 171.95 54.31 L 171.82 54.33 L 171.69 54.36 L 171.57 54.38 L 171.44 54.40 L 171.32 54.42 L 171.19 54.44 L 171.06 54.45 L 170.94 54.47 L 170.81 54.48 L 170.69 54.49 L 170.56 54.50 L 170.44 54.51 L 170.32 54.52 L 170.20 54.53 L 170.07 54.53 L 169.95 54.54 L 169.84 54.54 L 169.72 54.54 L 169.60 54.54 L 169.48 54.54 L 169.37 54.53 L 169.26 54.53 L 169.14 54.52 L 169.03 54.51 L 168.93 54.50 L 168.82 54.49 L 168.70 54.48 L 168.59 54.46 L 168.48 54.45 L 168.37 54.43 L 168.25 54.41 L 168.14 54.38 L 168.02 54.36 L 167.90 54.33 L 167.79 54.31 L 167.67 54.28 L 167.55 54.25 L 167.43 54.22 L 167.31 54.18 L 167.20 54.15 L 167.08 54.11 L 166.96 54.07 L 166.84 54.03 L 166.72 53.99 L 166.60 53.95 L 166.48 53.91 L 166.36 53.86 L 166.24 53.82 L 166.12 53.77 L 166.00 53.72 L 165.88 53.67 L 165.76 53.62 L 165.64 53.57 L 165.53 53.52 L 165.41 53.46 L 165.29 53.41 L 165.17 53.35 L 165.06 53.29 L 164.94 53.23 L 164.83 53.18 L 164.71 53.12 L 164.60 53.05 L 164.48 52.99 L 164.37 52.93 L 164.26 52.87 L 164.15 52.80 L 164.04 52.74 L 163.93 52.67 L 163.82 52.61 L 163.72 52.54 L 163.61 52.47 L 163.51 52.40 L 163.40 52.34 L 163.30 52.27 L 163.20 52.20 L 163.10 52.13 L 163.00 52.06 L 162.91 51.99 L 162.81 51.92 L 162.72 51.85 L 162.63 51.77 L 162.54 51.70 L 162.45 51.63 L 162.36 51.56 L 162.27 51.48 L 162.19 51.41 L 162.10 51.33 L 162.01 51.26 L 161.92 51.18 L 161.84 51.10 L 161.75 51.02 L 161.66 50.94 L 161.58 50.86 L 161.49 50.77 L 161.41 50.69 L 161.32 50.61 L 161.24 50.52 L 161.16 50.43 L 161.07 50.35 L 160.99 50.26 L 160.91 50.17 L 160.83 50.08 L 160.75 49.99 L 160.67 49.90 L 160.59 49.81 L 160.51 49.72 L 160.44 49.62 L 160.36 49.53 L 160.29 49.44 L 160.22 49.34 L 160.14 49.25 L 160.07 49.15 L 160.00 49.05 L 159.93 48.96 L 159.87 48.86 L 159.80 48.76 L 159.74 48.66 L 159.67 48.57 L 159.61 48.47 L 159.55 48.37 L 159.49 48.27 L 159.44 48.17 L 159.38 48.06 L 159.33 47.96 L 159.27 47.86 L 159.22 47.76 L 159.17 47.66 L 159.13 47.56 L 159.08 47.45 L 159.04 47.35 L 159.00 47.25 L 158.96 47.15 L 158.92 47.04 L 158.88 46.94 L 158.85 46.84 L 158.82 46.73 L 158.79 46.63 L 158.76 46.53 L 158.74 46.42 L 158.71 46.32 L 158.69 46.22 L 158.67 46.11 L 158.66 46.01 L 158.64 45.91 L 158.63 45.80 L 158.62 45.70 L 158.61 45.59 L 158.60 45.48 L 158.60 45.37 L 158.59 45.26 L 158.59 45.14 L 158.59 45.03 L 158.60 44.91 L 158.60 44.79 L 158.61 44.67 L 158.61 44.55 L 158.62 44.43 L 158.64 44.31 L 158.65 44.18 L 158.66 44.06 L 158.68 43.93 L 158.70 43.81 L 158.72 43.68 L 158.74 43.55 L 158.76 43.42 L 158.79 43.29 L 158.81 43.16 L 158.84 43.03 L 158.87 42.90 L 158.90 42.77 L 158.93 42.64 L 158.97 42.51 L 159.00 42.37 L 159.04 42.24 L 159.08 42.11 L 159.12 41.97 L 159.16 41.84 L 159.20 41.71 L 159.24 41.57 L 159.29 41.44 L 159.33 41.31 L 159.38 41.17 L 159.43 41.04 L 159.48 40.90 L 159.53 40.77 L 159.58 40.64 L 159.63 40.51 L 159.68 40.37 L 159.74 40.24 L 159.79 40.11 L 159.85 39.98 L 159.90 39.85 L 159.96 39.72 L 160.02 39.59 L 160.08 39.46 L 160.14 39.33 L 160.20 39.21 L 160.26 39.08 L 160.33 38.96 L 160.39 38.83 L 160.45 38.71 L 160.52 38.59 L 160.58 38.46 L 160.65 38.34 L 160.71 38.22 L 160.78 38.10 L 160.85 37.98 L 160.92 37.85 L 160.99 37.73 L 161.06 37.60 L 161.13 37.48 L 161.20 37.36 L 161.28 37.23 L 161.35 37.11 L 161.43 36.98 L 161.50 36.86 L 161.58 36.73 L 161.66 36.61 L 161.74 36.49 L 161.82 36.36 L 161.90 36.24 L 161.98 36.12 L 162.07 35.99 L 162.15 35.87 L 162.23 35.75 L 162.32 35.62 L 162.41 35.50 L 162.49 35.38 L 162.58 35.26 L 162.67 35.14 L 162.76 35.02 L 162.86 34.90 L 162.95 34.79 L 163.04 34.67 L 163.14 34.55 L 163.24 34.44 L 163.33 34.32 L 163.43 34.21 L 163.53 34.10 L 163.63 33.99 L 163.73 33.88 L 163.84 33.77 L 163.94 33.66 L 164.05 33.55 L 164.15 33.45 L 164.26 33.34 L 164.37 33.24 L 164.48 33.14 L 164.59 33.03 L 164.70 32.93 L 164.82 32.84 L 164.93 32.74 L 165.05 32.64 L 165.17 32.55 L 165.29 32.46 L 165.41 32.37 L 165.53 32.28 L 165.65 32.19 L 165.77 32.11 L 165.90 32.02 L 166.03 31.94 L 166.15 31.86 L 166.28 31.78 L 166.42 31.71 L 166.55 31.63 L 166.69 31.55 L 166.83 31.48 L 166.97 31.41 L 167.11 31.33 L 167.26 31.26 L 167.40 31.19 L 167.55 31.12 L 167.71 31.05 L 167.86 30.98 L 168.02 30.92 L 168.17 30.85 L 168.33 30.79 L 168.50 30.72 L 168.66 30.66 L 168.82 30.60 L 168.99 30.54 L 169.16 30.48 L 169.33 30.42 L 169.50 30.36 L 169.67 30.30 L 169.85 30.25 L 170.02 30.19 L 170.20 30.14 L 170.38 30.09 L 170.55 30.03 L 170.74 29.98 L 170.92 29.93 L 171.10 29.89 L 171.28 29.84 L 171.47 29.79 L 171.65 29.75 L 171.84 29.70 L 172.03 29.66 L 172.22 29.62 L 172.41 29.58 L 172.60 29.54 L 172.79 29.50 L 172.98 29.46 L 173.17 29.42 L 173.36 29.39 L 173.56 29.35 L 173.75 29.32 L 173.94 29.29 L 174.14 29.25 L 174.33 29.22 L 174.53 29.19 L 174.72 29.17 L 174.92 29.14 L 175.12 29.11 L 175.31 29.09 L 175.51 29.06 L 175.70 29.04 L 175.90 29.02 L 176.10 29.00 L 176.29 28.98 L 176.49 28.96 L 176.69 28.94 L 176.88 28.93 L 177.08 28.91 L 177.27 28.90 L 177.46 28.89 L 177.66 28.88 L 177.85 28.87 L 178.05 28.86 L 178.25 28.85 L 178.45 28.85 L 178.64 28.85 L 178.84 28.84 L 179.05 28.84 L 179.25 28.85 L 179.45 28.85 L 179.65 28.85 L 179.86 28.86 L 180.06 28.86 L 180.27 28.87 L 180.48 28.88 L 180.68 28.89 L 180.89 28.90 L 181.10 28.91 L 181.31 28.92 L 181.52 28.94 L 181.73 28.95 L 181.94 28.97 L 182.15 28.99 L 182.36 29.00 L 182.58 29.02 L 182.79 29.04 L 183.01 29.06 L 183.22 29.08 L 183.44 29.11 L 183.65 29.13 L 183.87 29.15 L 184.09 29.18 L 184.30 29.21 L 184.52 29.23 L 184.74 29.26 L 184.96 29.29 L 185.18 29.31 L 185.40 29.34 L 185.62 29.37 L 185.84 29.40 L 186.06 29.43 L 186.28 29.46 L 186.50 29.49 L 186.72 29.53 L 186.94 29.56 L 187.17 29.59 L 187.39 29.62 L 187.61 29.66 L 187.84 29.69 L 188.06 29.72 L 188.28 29.76 L 188.51 29.79 L 188.73 29.83 L 188.95 29.86 L 189.18 29.90 L 189.40 29.93 L 189.63 29.96 L 189.85 30.00 L 190.07 30.03 L 190.30 30.07 L 190.52 30.11 L 190.74 30.14 L 190.96 30.18 L 191.19 30.22 L 191.41 30.25 L 191.63 30.29 L 191.86 30.33 L 192.08 30.37 L 192.30 30.41 L 192.52 30.45 L 192.75 30.49 L 192.97 30.54 L 193.20 30.58 L 193.42 30.62 L 193.64 30.66 L 193.87 30.71 L 194.09 30.75 L 194.32 30.80 L 194.55 30.84 L 194.77 30.89 L 195.00 30.94 L 195.22 30.98 L 195.45 31.03 L 195.68 31.08 L 195.90 31.13 L 196.13 31.18 L 196.36 31.23 L 196.59 31.28 L 196.82 31.33 L 197.05 31.38 L 197.28 31.43 L 197.51 31.49 L 197.74 31.54 L 197.97 31.59 L 198.20 31.65 L 198.44 31.70 L 198.67 31.76 L 198.90 31.82 L 199.14 31.87 L 199.37 31.93 L 199.61 31.99 L 199.84 32.05 L 200.08 32.10 L 200.32 32.16 L 200.56 32.22 L 200.80 32.28 L 201.04 32.35 L 201.28 32.41 L 201.52 32.47 L 201.76 32.53 L 202.00 32.60 L 202.24 32.66 L 202.49 32.72 L 202.73 32.79 L 202.98 32.85 L 203.22 32.92 L 203.47 32.99 L 203.72 33.05 L 203.97 33.12 L 204.22 33.19 L 204.47 33.26 L 204.73 33.33 L 204.98 33.40 L 205.23 33.47 L 205.49 33.54 L 205.75 33.61 L 206.00 33.68 L 206.26 33.75 L 206.52 33.82 L 206.78 33.89 L 207.04 33.96 L 207.30 34.04 L 207.57 34.11 L 207.83 34.18 L 208.09 34.26 L 208.35 34.33 L 208.62 34.41 L 208.88 34.48 L 209.15 34.56 L 209.41 34.63 L 209.68 34.71 L 209.95 34.79 L 210.21 34.87 L 210.48 34.94 L 210.75 35.02 L 211.02 35.10 L 211.28 35.18 L 211.55 35.27 L 211.82 35.35 L 212.09 35.43 L 212.36 35.51 L 212.63 35.60 L 212.90 35.68 L 213.16 35.77 L 213.43 35.85 L 213.70 35.94 L 213.97 36.03 L 214.24 36.12 L 214.51 36.21 L 214.78 36.30 L 215.05 36.39 L 215.31 36.48 L 215.58 36.57 L 215.85 36.66 L 216.12 36.76 L 216.39 36.85 L 216.65 36.95 L 216.92 37.05 L 217.19 37.14 L 217.45 37.24 L 217.72 37.34 L 217.98 37.44 L 218.25 37.54 L 218.51 37.65 L 218.78 37.75 L 219.04 37.86 L 219.30 37.96 L 219.57 38.07 L 219.83 38.18 L 220.09 38.28 L 220.35 38.39 L 220.62 38.51 L 220.88 38.62 L 221.14 38.73 L 221.41 38.85 L 221.67 38.96 L 221.93 39.08 L 222.20 39.20 L 222.46 39.31 L 222.72 39.43 L 222.99 39.55 L 223.25 39.67 L 223.51 39.80 L 223.78 39.92 L 224.04 40.04 L 224.30 40.17 L 224.57 40.29 L 224.83 40.42 L 225.09 40.55 L 225.36 40.68 L 225.62 40.81 L 225.89 40.94 L 226.15 41.07 L 226.41 41.20 L 226.68 41.33 L 226.94 41.46 L 227.21 41.60 L 227.47 41.73 L 227.74 41.86 L 228.00 42.00 L 228.26 42.14 L 228.53 42.27 L 228.79 42.41 L 229.06 42.55 L 229.32 42.69 L 229.59 42.83 L 229.85 42.97 L 230.12 43.11 L 230.38 43.25 L 230.65 43.39 L 230.91 43.53 L 231.18 43.68 L 231.44 43.82 L 231.71 43.97 L 231.97 44.11 L 232.24 44.25 L 232.50 44.40 L 232.77 44.55 L 233.03 44.69 L 233.30 44.84 L 233.56 44.99 L 233.83 45.13 L 234.10 45.28 L 234.36 45.43 L 234.63 45.58 L 234.89 45.73 L 235.16 45.87 L 235.42 46.02 L 235.68 46.17 L 235.95 46.32 L 236.21 46.47 L 236.47 46.63 L 236.73 46.78 L 237.00 46.94 L 237.26 47.10 L 237.53 47.26 L 237.79 47.43 L 238.06 47.59 L 238.32 47.76 L 238.59 47.93 L 238.85 48.10 L 239.12 48.27 L 239.39 48.44 L 239.65 48.61 L 239.92 48.79 L 240.19 48.96 L 240.46 49.14 L 240.72 49.31 L 240.99 49.49 L 241.26 49.67 L 241.53 49.84 L 241.80 50.02 L 242.07 50.20 L 242.34 50.38 L 242.61 50.56 L 242.88 50.74 L 243.14 50.92 L 243.41 51.10 L 243.68 51.28 L 243.95 51.46 L 244.22 51.63 L 244.49 51.81 L 244.76 51.99 L 245.03 52.17 L 245.30 52.34 L 245.57 52.52 L 245.84 52.69 L 246.11 52.87 L 246.38 53.04 L 246.65 53.21 L 246.92 53.38 L 247.19 53.55 L 247.46 53.72 L 247.72 53.89 L 247.99 54.05 L 248.26 54.21 L 248.53 54.38 L 248.80 54.54 L 249.07 54.69 L 249.33 54.85 L 249.60 55.00 L 249.87 55.16 L 250.14 55.31 L 250.41 55.45 L 250.67 55.60 L 250.94 55.74 L 251.21 55.88 L 251.47 56.02 L 251.73 56.16 L 251.99 56.29 L 252.25 56.42 L 252.52 56.55 L 252.78 56.68 L 253.04 56.82 L 253.30 56.95 L 253.56 57.08 L 253.82 57.21 L 254.09 57.34 L 254.35 57.46 L 254.61 57.59 L 254.87 57.72 L 255.14 57.85 L 255.40 57.97 L 255.66 58.10 L 255.92 58.22 L 256.19 58.34 L 256.45 58.46 L 256.71 58.58 L 256.97 58.70 L 257.23 58.82 L 257.49 58.94 L 257.76 59.05 L 258.02 59.17 L 258.28 59.28 L 258.54 59.40 L 258.80 59.51 L 259.06 59.62 L 259.32 59.72 L 259.58 59.83 L 259.83 59.93 L 260.09 60.04 L 260.35 60.14 L 260.61 60.24 L 260.86 60.34 L 261.12 60.43 L 261.37 60.53 L 261.63 60.62 L 261.88 60.71 L 262.14 60.80 L 262.39 60.89 L 262.64 60.97 L 262.89 61.06 L 263.14 61.14 L 263.39 61.22 L 263.64 61.29 L 263.89 61.37 L 264.14 61.44 L 264.38 61.51 L 264.63 61.58 L 264.88 61.64 L 265.12 61.71 L 265.36 61.77 L 265.61 61.82 L 265.85 61.88 L 266.09 61.93 L 266.33 61.98 L 266.56 62.03 L 266.80 62.07 L 267.04 62.11 L 267.28 62.15 L 267.51 62.19 L 267.75 62.22 L 267.98 62.25 L 268.21 62.28 L 268.45 62.30 L 268.68 62.32 L 268.91 62.34 L 269.14 62.36 L 269.37 62.37 L 269.60 62.39 L 269.83 62.40 L 270.06 62.40 L 270.28 62.41 L 270.51 62.41 L 270.73 62.41 L 270.95 62.41 L 271.18 62.41 L 271.40 62.40 L 271.62 62.39 L 271.84 62.38 L 272.06 62.37 L 272.27 62.36 L 272.49 62.34 L 272.71 62.32 L 272.92 62.30 L 273.13 62.28 L 273.35 62.26 L 273.56 62.24 L 273.77 62.21 L 273.97 62.18 L 274.18 62.16 L 274.39 62.12 L 274.59 62.09 L 274.80 62.06 L 275.00 62.03 L 275.20 61.99 L 275.40 61.95 L 275.60 61.92 L 275.80 61.88 L 275.99 61.84 L 276.19 61.80 L 276.38 61.75 L 276.58 61.71 L 276.77 61.67 L 276.96 61.62 L 277.15 61.58 L 277.33 61.53 L 277.52 61.48 L 277.70 61.43 L 277.88 61.39 L 278.07 61.34 L 278.25 61.29 L 278.42 61.24 L 278.60 61.19 L 278.78 61.13 L 278.95 61.08 L 279.12 61.03 L 279.29 60.98 L 279.47 60.92 L 279.64 60.87 L 279.82 60.81 L 279.99 60.75 L 280.16 60.69 L 280.33 60.63 L 280.49 60.57 L 280.66 60.50 L 280.83 60.44 L 280.99 60.37 L 281.16 60.30 L 281.32 60.23 L 281.48 60.16 L 281.64 60.09 L 281.80 60.01 L 281.95 59.94 L 282.11 59.86 L 282.27 59.79 L 282.42 59.71 L 282.57 59.63 L 282.72 59.55 L 282.87 59.47 L 283.02 59.38 L 283.17 59.30 L 283.32 59.21 L 283.46 59.13 L 283.61 59.04 L 283.75 58.95 L 283.89 58.86 L 284.03 58.77 L 284.17 58.68 L 284.31 58.59 L 284.45 58.49 L 284.59 58.40 L 284.72 58.30 L 284.85 58.21 L 284.99 58.11 L 285.12 58.01 L 285.25 57.91 L 285.38 57.81 L 285.50 57.71 L 285.63 57.61 L 285.76 57.51 L 285.88 57.40 L 286.00 57.30 L 286.12 57.19 L 286.24 57.09 L 286.36 56.98 L 286.48 56.87 L 286.60 56.77 L 286.72 56.66 L 286.83 56.55 L 286.94 56.44 L 287.06 56.33 L 287.17 56.22 L 287.28 56.10 L 287.38 55.99 L 287.49 55.88 L 287.60 55.76 L 287.70 55.65 L 287.81 55.53 L 287.91 55.42 L 288.02 55.30 L 288.12 55.17 L 288.22 55.05 L 288.32 54.93 L 288.43 54.80 L 288.53 54.68 L 288.63 54.55 L 288.73 54.42 L 288.83 54.29 L 288.92 54.16 L 289.02 54.02 L 289.12 53.89 L 289.21 53.75 L 289.31 53.62 L 289.40 53.48 L 289.49 53.34 L 289.58 53.20 L 289.67 53.06 L 289.76 52.92 L 289.85 52.78 L 289.94 52.64 L 290.02 52.49 L 290.11 52.35 L 290.19 52.20 L 290.27 52.06 L 290.35 51.91 L 290.43 51.76 L 290.50 51.61 L 290.58 51.47 L 290.65 51.32 L 290.73 51.17 L 290.80 51.02 L 290.86 50.87 L 290.93 50.72 L 291.00 50.57 L 291.06 50.41 L 291.12 50.26 L 291.18 50.11 L 291.24 49.96 L 291.29 49.80 L 291.35 49.65 L 291.40 49.50 L 291.45 49.35 L 291.49 49.19 L 291.54 49.04 L 291.58 48.89 L 291.62 48.73 L 291.66 48.58 L 291.69 48.43 L 291.72 48.27 L 291.75 48.12 L 291.78 47.97 L 291.81 47.82 L 291.83 47.66 L 291.85 47.51 L 291.86 47.36 L 291.87 47.21 L 291.88 47.06 L 291.89 46.90 L 291.89 46.75 L 291.89 46.59 L 291.89 46.44 L 291.88 46.29 L 291.87 46.13 L 291.86 45.98 L 291.85 45.83 L 291.83 45.67 L 291.81 45.52 L 291.78 45.37 L 291.75 45.22 L 291.73 45.06 L 291.69 44.91 L 291.66 44.76 L 291.62 44.61 L 291.58 44.46 L 291.54 44.31 L 291.50 44.16 L 291.46 44.01 L 291.41 43.86 L 291.36 43.71 L 291.31 43.57 L 291.26 43.42 L 291.20 43.27 L 291.15 43.12 L 291.09 42.98 L 291.03 42.83 L 290.97 42.69 L 290.91 42.54 L 290.84 42.40 L 290.78 42.26 L 290.71 42.11 L 290.65 41.97 L 290.58 41.83 L 290.51 41.69 L 290.44 41.55 L 290.37 41.41 L 290.30 41.27 L 290.22 41.13 L 290.15 40.99 L 290.08 40.86 L 290.00 40.72 L 289.93 40.59 L 289.85 40.45 L 289.77 40.32 L 289.70 40.19 L 289.62 40.06 L 289.54 39.93 L 289.46 39.80 L 289.38 39.67 L 289.31 39.54 L 289.23 39.42 L 289.15 39.29 L 289.07 39.17 L 288.99 39.04 L 288.91 38.92 L 288.84 38.80 L 288.76 38.68 L 288.68 38.56 L 288.60 38.44 L 288.52 38.32 L 288.44 38.20 L 288.36 38.08 L 288.28 37.96 L 288.19 37.85 L 288.11 37.73 L 288.02 37.61 L 287.94 37.49 L 287.85 37.38 L 287.76 37.26 L 287.67 37.14 L 287.58 37.03 L 287.49 36.91 L 287.40 36.80 L 287.31 36.68 L 287.22 36.57 L 287.12 36.46 L 287.03 36.35 L 286.93 36.23 L 286.84 36.12 L 286.74 36.01 L 286.64 35.90 L 286.54 35.79 L 286.44 35.68 L 286.34 35.57 L 286.24 35.47 L 286.13 35.36 L 286.03 35.25 L 285.93 35.15 L 285.82 35.04 L 285.71 34.94 L 285.61 34.83 L 285.50 34.73 L 285.39 34.63 L 285.28 34.53 L 285.17 34.43 L 285.06 34.33 L 284.94 34.23 L 284.83 34.13 L 284.72 34.04 L 284.60 33.94 L 284.49 33.84 L 284.37 33.75 L 284.25 33.66 L 284.13 33.56 L 284.01 33.47 L 283.89 33.38 L 283.77 33.29 L 283.65 33.20 L 283.52 33.12 L 283.40 33.03 L 283.28 32.94 L 283.15 32.86 L 283.02 32.77 L 282.90 32.69 L 282.77 32.61 L 282.64 32.53 L 282.51 32.45 L 282.38 32.37 L 282.24 32.30 L 282.11 32.22 L 281.97 32.14 L 281.83 32.07 L 281.69 32.00 L 281.55 31.92 L 281.41 31.85 L 281.27 31.78 L 281.12 31.71 L 280.97 31.64 L 280.83 31.57 L 280.68 31.50 L 280.53 31.43 L 280.38 31.36 L 280.22 31.30 L 280.07 31.23 L 279.91 31.17 L 279.76 31.10 L 279.60 31.04 L 279.44 30.98 L 279.29 30.92 L 279.13 30.86 L 278.97 30.80 L 278.81 30.74 L 278.65 30.69 L 278.49 30.63 L 278.33 30.57 L 278.16 30.52 L 278.00 30.47 L 277.84 30.41 L 277.68 30.36 L 277.51 30.31 L 277.35 30.26 L 277.19 30.21 L 277.02 30.17 L 276.86 30.12 L 276.70 30.08 L 276.53 30.03 L 276.37 29.99 L 276.21 29.95 L 276.04 29.91 L 275.88 29.87 L 275.72 29.83 L 275.56 29.79 L 275.40 29.76 L 275.24 29.72 L 275.08 29.69 L 274.92 29.66 L 274.76 29.63 L 274.60 29.60 L 274.44 29.57 L 274.29 29.54 L 274.13 29.51 L 273.98 29.49 L 273.82 29.47 L 273.67 29.44 L 273.52 29.42 L 273.37 29.40 L 273.22 29.39 L 273.07 29.37 L 272.93 29.35 L 272.78 29.34 L 272.63 29.33 L 272.49 29.32 L 272.34 29.31 L 272.19 29.30 L 272.04 29.29 L 271.89 29.28 L 271.75 29.27 L 271.60 29.27 L 271.45 29.27 L 271.30 29.26 L 271.15 29.26 L 271.01 29.26 L 270.86 29.26 L 270.71 29.27 L 270.56 29.27 L 270.42 29.27 L 270.27 29.28 L 270.12 29.28 L 269.98 29.29 L 269.83 29.30 L 269.69 29.31 L 269.54 29.32 L 269.40 29.34 L 269.25 29.35 L 269.11 29.36 L 268.96 29.38 L 268.82 29.40 L 268.68 29.41 L 268.54 29.43 L 268.40 29.45 L 268.25 29.48 L 268.11 29.50 L 267.97 29.52 L 267.84 29.55 L 267.70 29.57 L 267.56 29.60 L 267.42 29.63 L 267.29 29.66 L 267.15 29.69 L 267.02 29.72 L 266.88 29.76 L 266.75 29.79 L 266.62 29.83 L 266.49 29.86 L 266.36 29.90 L 266.23 29.94 L 266.10 29.98 L 265.98 30.02 L 265.85 30.06 L 265.73 30.11 L 265.60 30.15 L 265.48 30.20 L 265.36 30.25 L 265.24 30.30 L 265.12 30.35 L 265.00 30.40 L 264.89 30.45 L 264.77 30.50 L 264.66 30.56 L 264.54 30.61 L 264.43 30.67 L 264.32 30.73 L 264.20 30.79 L 264.09 30.86 L 263.98 30.92 L 263.87 30.99 L 263.75 31.05 L 263.64 31.12 L 263.53 31.19 L 263.42 31.26 L 263.31 31.34 L 263.21 31.41 L 263.10 31.49 L 262.99 31.56 L 262.88 31.64 L 262.78 31.72 L 262.67 31.80 L 262.57 31.88 L 262.47 31.97 L 262.36 32.05 L 262.26 32.14 L 262.16 32.22 L 262.06 32.31 L 261.96 32.40 L 261.87 32.49 L 261.77 32.58 L 261.68 32.67 L 261.58 32.76 L 261.49 32.85 L 261.40 32.95 L 261.31 33.04 L 261.22 33.14 L 261.13 33.24 L 261.05 33.33 L 260.97 33.43 L 260.88 33.53 L 260.80 33.63 L 260.72 33.73 L 260.65 33.83 L 260.57 33.93 L 260.50 34.03 L 260.43 34.14 L 260.35 34.24 L 260.29 34.34 L 260.22 34.45 L 260.16 34.55 L 260.09 34.66 L 260.03 34.77 L 259.97 34.87 L 259.92 34.98 L 259.87 35.09 L 259.81 35.20 L 259.76 35.30 L 259.72 35.41 L 259.67 35.52 L 259.63 35.63 L 259.59 35.74 L 259.55 35.85 L 259.52 35.96 L 259.49 36.08 L 259.46 36.20 L 259.43 36.31 L 259.41 36.43 L 259.38 36.55 L 259.36 36.68 L 259.35 36.80 L 259.33 36.92 L 259.32 37.05 L 259.31 37.18 L 259.30 37.30 L 259.29 37.43 L 259.29 37.56 L 259.28 37.69 L 259.28 37.82 L 259.28 37.95 L 259.29 38.09 L 259.29 38.22 L 259.30 38.35 L 259.31 38.49 L 259.32 38.62 L 259.33 38.75 L 259.34 38.89 L 259.35 39.02 L 259.37 39.16 L 259.39 39.29 L 259.41 39.43 L 259.43 39.56 L 259.45 39.69 L 259.48 39.83 L 259.50 39.96 L 259.53 40.09 L 259.55 40.22 L 259.58 40.35 L 259.61 40.49 L 259.65 40.61 L 259.68 40.74 L 259.71 40.87 L 259.75 41.00 L 259.78 41.12 L 259.82 41.25 L 259.86 41.37 L 259.90 41.49 L 259.94 41.61 L 259.98 41.73 L 260.03 41.85 L 260.07 41.97 L 260.11 42.08 L 260.16 42.19 L 260.21 42.30 L 260.25 42.41 L 260.30 42.52 L 260.35 42.62 L 260.40 42.72 L 260.45 42.82 L 260.51 42.92 L 260.56 43.02 L 260.61 43.11 L 260.67 43.20 L 260.72 43.29 L 260.78 43.38 L 260.85 43.47 L 260.91 43.56 L 260.98 43.64 L 261.05 43.72 L 261.12 43.81 L 261.19 43.89 L 261.27 43.97 L 261.34 44.04 L 261.42 44.12 L 261.50 44.19 L 261.59 44.27 L 261.67 44.34 L 261.75 44.41 L 261.84 44.48 L 261.93 44.55 L 262.02 44.61 L 262.10 44.68 L 262.20 44.74 L 262.29 44.81 L 262.38 44.87 L 262.47 44.93 L 262.57 44.99 L 262.66 45.04 L 262.76 45.10 L 262.85 45.15 L 262.95 45.21 L 263.05 45.26 L 263.15 45.31 L 263.24 45.36 L 263.34 45.41 L 263.44 45.46 L 263.54 45.51 L 263.64 45.55 L 263.74 45.60 L 263.83 45.64 L 263.93 45.68 L 264.03 45.72 L 264.13 45.76 L 264.23 45.80 L 264.32 45.84 L 264.42 45.87 L 264.52 45.91 L 264.61 45.94 L 264.71 45.97 L 264.80 46.01 L 264.89 46.04 L 264.99 46.07 L 265.08 46.09 L 265.17 46.12 L 265.26 46.15 L 265.35 46.17 L 265.43 46.20 L 265.52 46.22 L 265.61 46.24 L 265.69 46.26 L 265.77 46.28 L 265.85 46.30 L 265.93 46.31 L 266.02 46.33 L 266.10 46.35 L 266.19 46.36 L 266.27 46.36 L 266.36 46.37 L 266.45 46.37 L 266.53 46.38 L 266.62 46.37 L 266.70 46.37 L 266.79 46.37 L 266.88 46.36 L 266.96 46.35 L 267.05 46.34 L 267.13 46.33 L 267.21 46.31 L 267.30 46.30 L 267.38 46.28 L 267.46 46.26 L 267.55 46.24 L 267.63 46.22 L 267.71 46.20 L 267.79 46.18 L 267.87 46.15 L 267.95 46.13 L 268.03 46.10 L 268.11 46.08 L 268.19 46.05 L 268.26 46.02 L 268.34 45.99 L 268.42 45.96 L 268.49 45.94 L 268.56 45.91 L 268.64 45.88 L 268.71 45.85 L 268.78 45.82 L 268.85 45.79 L 268.92 45.76 L 268.98 45.73 L 269.05 45.70 L 269.11 45.67 L 269.18 45.64 L 269.24 45.61 L 269.30 45.59 L 269.36 45.56 L 269.42 45.53 L 269.48 45.51 L 269.53 45.48 L 269.58 45.46 L 269.64 45.43 L 269.69 45.41 L 269.73 45.39 L 269.78 45.37 L 269.82 45.35 L 269.87 45.34 L 269.91 45.32 L 269.94 45.31 L 269.98 45.29 L 270.01 45.28 L 270.04 45.27 L 270.07 45.27 L 269.93 44.73 L 269.89 44.74 L 269.85 44.76 L 269.80 44.77 L 269.76 44.79 L 269.71 44.80 L 269.67 44.82 L 269.62 44.84 L 269.57 44.86 L 269.52 44.88 L 269.47 44.90 L 269.41 44.92 L 269.36 44.94 L 269.30 44.97 L 269.25 44.99 L 269.19 45.01 L 269.13 45.04 L 269.07 45.06 L 269.01 45.09 L 268.95 45.12 L 268.89 45.14 L 268.82 45.17 L 268.76 45.20 L 268.69 45.22 L 268.62 45.25 L 268.56 45.28 L 268.49 45.31 L 268.42 45.33 L 268.35 45.36 L 268.28 45.38 L 268.21 45.41 L 268.14 45.44 L 268.07 45.46 L 267.99 45.48 L 267.92 45.51 L 267.85 45.53 L 267.78 45.55 L 267.70 45.57 L 267.63 45.59 L 267.56 45.61 L 267.48 45.63 L 267.41 45.65 L 267.33 45.66 L 267.26 45.68 L 267.19 45.69 L 267.11 45.70 L 267.04 45.71 L 266.97 45.72 L 266.90 45.73 L 266.82 45.74 L 266.75 45.74 L 266.68 45.74 L 266.61 45.74 L 266.54 45.74 L 266.47 45.74 L 266.40 45.74 L 266.33 45.73 L 266.27 45.72 L 266.20 45.71 L 266.13 45.70 L 266.07 45.69 L 266.00 45.67 L 265.92 45.65 L 265.85 45.63 L 265.77 45.61 L 265.69 45.59 L 265.61 45.56 L 265.53 45.54 L 265.45 45.52 L 265.36 45.49 L 265.28 45.46 L 265.19 45.43 L 265.11 45.40 L 265.02 45.37 L 264.93 45.34 L 264.84 45.31 L 264.75 45.27 L 264.66 45.24 L 264.57 45.20 L 264.48 45.17 L 264.39 45.13 L 264.30 45.09 L 264.21 45.05 L 264.12 45.01 L 264.02 44.96 L 263.93 44.92 L 263.84 44.88 L 263.75 44.83 L 263.66 44.78 L 263.57 44.74 L 263.48 44.69 L 263.39 44.64 L 263.30 44.59 L 263.21 44.54 L 263.13 44.48 L 263.04 44.43 L 262.95 44.37 L 262.87 44.32 L 262.78 44.26 L 262.70 44.20 L 262.62 44.15 L 262.54 44.09 L 262.46 44.03 L 262.38 43.96 L 262.31 43.90 L 262.23 43.84 L 262.16 43.78 L 262.09 43.71 L 262.02 43.65 L 261.95 43.58 L 261.88 43.51 L 261.82 43.44 L 261.76 43.38 L 261.69 43.31 L 261.64 43.24 L 261.58 43.16 L 261.53 43.09 L 261.47 43.02 L 261.43 42.95 L 261.38 42.87 L 261.33 42.80 L 261.29 42.72 L 261.24 42.64 L 261.20 42.55 L 261.16 42.47 L 261.11 42.38 L 261.07 42.28 L 261.03 42.19 L 260.99 42.09 L 260.94 41.99 L 260.90 41.89 L 260.86 41.79 L 260.83 41.68 L 260.79 41.58 L 260.75 41.47 L 260.71 41.36 L 260.68 41.24 L 260.65 41.13 L 260.61 41.01 L 260.58 40.90 L 260.55 40.78 L 260.52 40.66 L 260.49 40.54 L 260.46 40.42 L 260.43 40.30 L 260.41 40.18 L 260.38 40.05 L 260.36 39.93 L 260.34 39.81 L 260.32 39.68 L 260.30 39.56 L 260.28 39.43 L 260.26 39.31 L 260.25 39.18 L 260.24 39.06 L 260.22 38.93 L 260.21 38.81 L 260.20 38.68 L 260.19 38.56 L 260.19 38.44 L 260.18 38.31 L 260.18 38.19 L 260.18 38.07 L 260.18 37.95 L 260.18 37.83 L 260.18 37.71 L 260.19 37.60 L 260.20 37.48 L 260.21 37.37 L 260.22 37.26 L 260.23 37.15 L 260.24 37.04 L 260.26 36.93 L 260.27 36.82 L 260.29 36.72 L 260.31 36.62 L 260.34 36.52 L 260.36 36.42 L 260.39 36.33 L 260.42 36.24 L 260.45 36.15 L 260.48 36.06 L 260.51 35.97 L 260.55 35.88 L 260.59 35.79 L 260.63 35.70 L 260.67 35.61 L 260.72 35.52 L 260.77 35.42 L 260.82 35.33 L 260.87 35.24 L 260.92 35.15 L 260.98 35.06 L 261.04 34.97 L 261.10 34.88 L 261.16 34.79 L 261.22 34.70 L 261.29 34.61 L 261.36 34.52 L 261.43 34.43 L 261.50 34.34 L 261.57 34.26 L 261.65 34.17 L 261.72 34.08 L 261.80 33.99 L 261.88 33.91 L 261.96 33.82 L 262.04 33.74 L 262.12 33.65 L 262.21 33.57 L 262.29 33.49 L 262.38 33.41 L 262.47 33.33 L 262.56 33.24 L 262.65 33.17 L 262.74 33.09 L 262.83 33.01 L 262.92 32.93 L 263.02 32.86 L 263.11 32.78 L 263.21 32.71 L 263.31 32.64 L 263.40 32.56 L 263.50 32.49 L 263.60 32.42 L 263.70 32.36 L 263.80 32.29 L 263.90 32.22 L 264.00 32.16 L 264.10 32.10 L 264.20 32.03 L 264.31 31.97 L 264.41 31.92 L 264.51 31.86 L 264.61 31.80 L 264.72 31.75 L 264.82 31.69 L 264.92 31.64 L 265.02 31.59 L 265.13 31.54 L 265.23 31.50 L 265.33 31.45 L 265.44 31.41 L 265.54 31.36 L 265.65 31.32 L 265.76 31.28 L 265.87 31.24 L 265.98 31.20 L 266.09 31.16 L 266.21 31.13 L 266.32 31.09 L 266.44 31.05 L 266.55 31.02 L 266.67 30.99 L 266.79 30.96 L 266.91 30.92 L 267.03 30.89 L 267.15 30.87 L 267.28 30.84 L 267.40 30.81 L 267.53 30.79 L 267.65 30.76 L 267.78 30.74 L 267.91 30.71 L 268.04 30.69 L 268.17 30.67 L 268.29 30.65 L 268.43 30.63 L 268.56 30.62 L 268.69 30.60 L 268.82 30.59 L 268.95 30.57 L 269.09 30.56 L 269.22 30.55 L 269.36 30.54 L 269.49 30.53 L 269.63 30.52 L 269.76 30.51 L 269.90 30.50 L 270.04 30.50 L 270.17 30.49 L 270.31 30.49 L 270.45 30.49 L 270.58 30.49 L 270.72 30.49 L 270.86 30.49 L 271.00 30.49 L 271.14 30.49 L 271.27 30.50 L 271.41 30.50 L 271.55 30.51 L 271.69 30.52 L 271.83 30.52 L 271.96 30.53 L 272.10 30.54 L 272.24 30.56 L 272.38 30.57 L 272.52 30.58 L 272.65 30.60 L 272.79 30.61 L 272.93 30.63 L 273.06 30.65 L 273.20 30.67 L 273.34 30.69 L 273.48 30.71 L 273.62 30.73 L 273.77 30.76 L 273.91 30.79 L 274.06 30.81 L 274.20 30.84 L 274.35 30.87 L 274.50 30.90 L 274.65 30.94 L 274.80 30.97 L 274.95 31.00 L 275.10 31.04 L 275.25 31.08 L 275.41 31.11 L 275.56 31.15 L 275.71 31.20 L 275.87 31.24 L 276.02 31.28 L 276.18 31.32 L 276.33 31.37 L 276.49 31.41 L 276.64 31.46 L 276.79 31.51 L 276.95 31.56 L 277.10 31.61 L 277.26 31.66 L 277.41 31.71 L 277.57 31.76 L 277.72 31.82 L 277.87 31.87 L 278.02 31.93 L 278.18 31.98 L 278.33 32.04 L 278.48 32.10 L 278.63 32.16 L 278.78 32.22 L 278.93 32.28 L 279.07 32.34 L 279.22 32.40 L 279.36 32.47 L 279.51 32.53 L 279.65 32.59 L 279.79 32.66 L 279.94 32.72 L 280.07 32.79 L 280.21 32.86 L 280.35 32.92 L 280.48 32.99 L 280.62 33.06 L 280.75 33.13 L 280.88 33.20 L 281.01 33.27 L 281.14 33.34 L 281.26 33.41 L 281.38 33.48 L 281.51 33.55 L 281.62 33.63 L 281.74 33.70 L 281.86 33.77 L 281.98 33.85 L 282.09 33.93 L 282.21 34.00 L 282.32 34.08 L 282.43 34.16 L 282.55 34.24 L 282.66 34.32 L 282.77 34.40 L 282.88 34.49 L 282.99 34.57 L 283.10 34.66 L 283.20 34.74 L 283.31 34.83 L 283.42 34.92 L 283.52 35.00 L 283.63 35.09 L 283.73 35.18 L 283.84 35.28 L 283.94 35.37 L 284.04 35.46 L 284.14 35.55 L 284.24 35.65 L 284.34 35.74 L 284.44 35.84 L 284.54 35.93 L 284.63 36.03 L 284.73 36.13 L 284.82 36.23 L 284.92 36.33 L 285.01 36.43 L 285.11 36.53 L 285.20 36.63 L 285.29 36.73 L 285.38 36.83 L 285.47 36.94 L 285.56 37.04 L 285.65 37.14 L 285.73 37.25 L 285.82 37.35 L 285.91 37.46 L 285.99 37.57 L 286.08 37.67 L 286.16 37.78 L 286.24 37.89 L 286.32 38.00 L 286.41 38.10 L 286.49 38.21 L 286.57 38.32 L 286.64 38.43 L 286.72 38.54 L 286.80 38.65 L 286.88 38.76 L 286.95 38.88 L 287.03 38.99 L 287.10 39.10 L 287.17 39.21 L 287.25 39.33 L 287.32 39.44 L 287.39 39.55 L 287.46 39.67 L 287.54 39.79 L 287.61 39.91 L 287.68 40.03 L 287.76 40.15 L 287.83 40.27 L 287.90 40.39 L 287.97 40.51 L 288.05 40.64 L 288.12 40.76 L 288.19 40.89 L 288.26 41.01 L 288.33 41.14 L 288.40 41.26 L 288.47 41.39 L 288.54 41.52 L 288.61 41.65 L 288.67 41.78 L 288.74 41.91 L 288.80 42.03 L 288.87 42.16 L 288.93 42.29 L 288.99 42.42 L 289.06 42.55 L 289.12 42.68 L 289.17 42.81 L 289.23 42.95 L 289.29 43.08 L 289.34 43.21 L 289.40 43.34 L 289.45 43.47 L 289.50 43.60 L 289.55 43.73 L 289.59 43.86 L 289.64 43.99 L 289.68 44.12 L 289.73 44.25 L 289.77 44.38 L 289.80 44.51 L 289.84 44.64 L 289.87 44.76 L 289.91 44.89 L 289.94 45.02 L 289.97 45.14 L 289.99 45.27 L 290.02 45.40 L 290.04 45.52 L 290.06 45.64 L 290.07 45.77 L 290.09 45.89 L 290.10 46.01 L 290.11 46.13 L 290.12 46.25 L 290.13 46.37 L 290.13 46.48 L 290.13 46.60 L 290.13 46.72 L 290.12 46.83 L 290.12 46.94 L 290.11 47.06 L 290.09 47.18 L 290.08 47.30 L 290.06 47.42 L 290.04 47.54 L 290.02 47.66 L 290.00 47.78 L 289.97 47.91 L 289.94 48.03 L 289.91 48.16 L 289.88 48.28 L 289.84 48.41 L 289.81 48.54 L 289.77 48.67 L 289.73 48.79 L 289.68 48.92 L 289.64 49.05 L 289.59 49.18 L 289.54 49.31 L 289.49 49.45 L 289.43 49.58 L 289.38 49.71 L 289.32 49.84 L 289.26 49.97 L 289.20 50.10 L 289.14 50.24 L 289.07 50.37 L 289.01 50.50 L 288.94 50.63 L 288.87 50.76 L 288.80 50.89 L 288.73 51.02 L 288.65 51.15 L 288.58 51.28 L 288.50 51.41 L 288.43 51.54 L 288.35 51.67 L 288.27 51.80 L 288.19 51.92 L 288.10 52.05 L 288.02 52.17 L 287.94 52.30 L 287.85 52.42 L 287.77 52.55 L 287.68 52.67 L 287.59 52.79 L 287.50 52.91 L 287.41 53.03 L 287.32 53.14 L 287.23 53.26 L 287.14 53.38 L 287.05 53.49 L 286.96 53.60 L 286.86 53.71 L 286.77 53.82 L 286.67 53.93 L 286.58 54.04 L 286.49 54.15 L 286.39 54.25 L 286.30 54.35 L 286.20 54.45 L 286.10 54.55 L 286.01 54.65 L 285.91 54.75 L 285.81 54.85 L 285.70 54.95 L 285.60 55.05 L 285.50 55.15 L 285.39 55.24 L 285.29 55.34 L 285.18 55.44 L 285.08 55.53 L 284.97 55.62 L 284.86 55.72 L 284.75 55.81 L 284.64 55.90 L 284.52 55.99 L 284.41 56.08 L 284.29 56.17 L 284.18 56.26 L 284.06 56.35 L 283.94 56.44 L 283.83 56.52 L 283.71 56.61 L 283.59 56.69 L 283.46 56.78 L 283.34 56.86 L 283.22 56.94 L 283.09 57.02 L 282.97 57.10 L 282.84 57.18 L 282.71 57.26 L 282.58 57.34 L 282.45 57.42 L 282.32 57.49 L 282.19 57.57 L 282.06 57.64 L 281.92 57.71 L 281.79 57.78 L 281.65 57.85 L 281.51 57.92 L 281.37 57.99 L 281.24 58.06 L 281.09 58.12 L 280.95 58.19 L 280.81 58.25 L 280.67 58.31 L 280.52 58.38 L 280.38 58.44 L 280.23 58.50 L 280.08 58.55 L 279.93 58.61 L 279.78 58.67 L 279.63 58.72 L 279.48 58.77 L 279.33 58.83 L 279.17 58.88 L 279.02 58.93 L 278.86 58.97 L 278.71 59.02 L 278.54 59.07 L 278.38 59.12 L 278.21 59.16 L 278.04 59.21 L 277.87 59.26 L 277.71 59.30 L 277.53 59.35 L 277.36 59.39 L 277.19 59.43 L 277.01 59.48 L 276.84 59.52 L 276.66 59.56 L 276.49 59.60 L 276.31 59.64 L 276.13 59.68 L 275.95 59.72 L 275.76 59.76 L 275.58 59.79 L 275.40 59.83 L 275.21 59.86 L 275.03 59.90 L 274.84 59.93 L 274.65 59.96 L 274.47 59.99 L 274.28 60.02 L 274.09 60.04 L 273.90 60.07 L 273.70 60.09 L 273.51 60.12 L 273.32 60.14 L 273.12 60.16 L 272.93 60.18 L 272.73 60.19 L 272.54 60.21 L 272.34 60.22 L 272.14 60.24 L 271.94 60.25 L 271.74 60.25 L 271.54 60.26 L 271.34 60.27 L 271.14 60.27 L 270.94 60.27 L 270.74 60.27 L 270.53 60.27 L 270.33 60.26 L 270.12 60.26 L 269.92 60.25 L 269.71 60.24 L 269.51 60.22 L 269.30 60.21 L 269.09 60.19 L 268.88 60.17 L 268.67 60.15 L 268.46 60.13 L 268.25 60.10 L 268.04 60.07 L 267.83 60.04 L 267.62 60.00 L 267.41 59.97 L 267.20 59.93 L 266.98 59.89 L 266.77 59.84 L 266.55 59.79 L 266.33 59.74 L 266.11 59.69 L 265.89 59.64 L 265.67 59.58 L 265.44 59.52 L 265.21 59.46 L 264.99 59.39 L 264.76 59.33 L 264.53 59.26 L 264.29 59.18 L 264.06 59.11 L 263.83 59.03 L 263.59 58.96 L 263.35 58.87 L 263.11 58.79 L 262.88 58.71 L 262.64 58.62 L 262.39 58.53 L 262.15 58.44 L 261.91 58.35 L 261.66 58.25 L 261.42 58.16 L 261.17 58.06 L 260.93 57.96 L 260.68 57.86 L 260.43 57.76 L 260.18 57.65 L 259.93 57.55 L 259.68 57.44 L 259.43 57.33 L 259.18 57.22 L 258.93 57.11 L 258.68 56.99 L 258.42 56.88 L 258.17 56.76 L 257.92 56.65 L 257.66 56.53 L 257.41 56.41 L 257.15 56.29 L 256.89 56.17 L 256.64 56.04 L 256.38 55.92 L 256.13 55.80 L 255.87 55.67 L 255.61 55.54 L 255.36 55.42 L 255.10 55.29 L 254.84 55.16 L 254.58 55.03 L 254.33 54.90 L 254.07 54.77 L 253.81 54.64 L 253.56 54.51 L 253.30 54.38 L 253.04 54.24 L 252.78 54.11 L 252.53 53.98 L 252.28 53.85 L 252.03 53.71 L 251.77 53.58 L 251.52 53.44 L 251.27 53.29 L 251.01 53.15 L 250.76 53.00 L 250.50 52.85 L 250.24 52.70 L 249.98 52.55 L 249.73 52.39 L 249.47 52.23 L 249.21 52.07 L 248.95 51.91 L 248.69 51.75 L 248.42 51.59 L 248.16 51.42 L 247.90 51.25 L 247.64 51.08 L 247.37 50.91 L 247.11 50.74 L 246.84 50.57 L 246.58 50.39 L 246.31 50.22 L 246.05 50.04 L 245.78 49.87 L 245.51 49.69 L 245.25 49.51 L 244.98 49.33 L 244.71 49.15 L 244.44 48.97 L 244.17 48.79 L 243.91 48.61 L 243.64 48.43 L 243.37 48.25 L 243.10 48.07 L 242.83 47.89 L 242.56 47.71 L 242.29 47.53 L 242.02 47.35 L 241.75 47.18 L 241.47 47.00 L 241.20 46.82 L 240.93 46.64 L 240.66 46.47 L 240.39 46.29 L 240.12 46.12 L 239.84 45.94 L 239.57 45.77 L 239.30 45.60 L 239.03 45.43 L 238.76 45.26 L 238.48 45.10 L 238.21 44.93 L 237.94 44.77 L 237.67 44.61 L 237.39 44.45 L 237.12 44.29 L 236.85 44.13 L 236.58 43.98 L 236.31 43.83 L 236.04 43.68 L 235.77 43.53 L 235.51 43.38 L 235.24 43.23 L 234.97 43.08 L 234.70 42.93 L 234.43 42.78 L 234.17 42.63 L 233.90 42.49 L 233.63 42.34 L 233.36 42.19 L 233.09 42.05 L 232.83 41.90 L 232.56 41.76 L 232.29 41.61 L 232.02 41.47 L 231.75 41.32 L 231.49 41.18 L 231.22 41.04 L 230.95 40.90 L 230.68 40.76 L 230.41 40.61 L 230.14 40.47 L 229.87 40.33 L 229.60 40.20 L 229.34 40.06 L 229.07 39.92 L 228.80 39.78 L 228.53 39.65 L 228.26 39.51 L 227.99 39.37 L 227.72 39.24 L 227.45 39.11 L 227.18 38.97 L 226.91 38.84 L 226.65 38.71 L 226.38 38.58 L 226.11 38.45 L 225.84 38.32 L 225.57 38.19 L 225.30 38.06 L 225.03 37.94 L 224.76 37.81 L 224.49 37.69 L 224.22 37.56 L 223.95 37.44 L 223.68 37.32 L 223.41 37.20 L 223.14 37.08 L 222.87 36.96 L 222.60 36.84 L 222.33 36.72 L 222.06 36.61 L 221.79 36.49 L 221.52 36.38 L 221.25 36.26 L 220.98 36.15 L 220.70 36.04 L 220.43 35.93 L 220.16 35.82 L 219.89 35.72 L 219.62 35.61 L 219.34 35.50 L 219.07 35.40 L 218.80 35.30 L 218.52 35.19 L 218.25 35.09 L 217.97 34.99 L 217.70 34.89 L 217.42 34.80 L 217.15 34.70 L 216.87 34.60 L 216.60 34.51 L 216.32 34.41 L 216.05 34.32 L 215.77 34.23 L 215.50 34.14 L 215.22 34.05 L 214.95 33.96 L 214.67 33.87 L 214.39 33.78 L 214.12 33.69 L 213.84 33.61 L 213.57 33.52 L 213.29 33.44 L 213.02 33.36 L 212.75 33.27 L 212.47 33.19 L 212.20 33.11 L 211.93 33.03 L 211.65 32.95 L 211.38 32.87 L 211.11 32.79 L 210.84 32.71 L 210.57 32.64 L 210.30 32.56 L 210.03 32.48 L 209.76 32.41 L 209.49 32.33 L 209.22 32.26 L 208.95 32.19 L 208.68 32.11 L 208.42 32.04 L 208.15 31.97 L 207.89 31.90 L 207.62 31.83 L 207.36 31.76 L 207.10 31.69 L 206.84 31.62 L 206.58 31.55 L 206.32 31.48 L 206.06 31.41 L 205.80 31.34 L 205.55 31.28 L 205.29 31.21 L 205.04 31.14 L 204.78 31.08 L 204.53 31.01 L 204.28 30.95 L 204.03 30.88 L 203.78 30.82 L 203.53 30.75 L 203.28 30.69 L 203.03 30.62 L 202.79 30.56 L 202.54 30.50 L 202.29 30.44 L 202.05 30.38 L 201.80 30.32 L 201.56 30.26 L 201.32 30.20 L 201.07 30.14 L 200.83 30.08 L 200.59 30.02 L 200.35 29.96 L 200.11 29.91 L 199.87 29.85 L 199.63 29.80 L 199.39 29.74 L 199.15 29.69 L 198.92 29.63 L 198.68 29.58 L 198.44 29.53 L 198.21 29.47 L 197.97 29.42 L 197.74 29.37 L 197.50 29.32 L 197.27 29.27 L 197.03 29.22 L 196.80 29.17 L 196.57 29.12 L 196.34 29.08 L 196.10 29.03 L 195.87 28.98 L 195.64 28.94 L 195.41 28.89 L 195.18 28.85 L 194.95 28.80 L 194.72 28.76 L 194.49 28.71 L 194.26 28.67 L 194.03 28.63 L 193.80 28.59 L 193.57 28.55 L 193.34 28.51 L 193.11 28.47 L 192.88 28.43 L 192.65 28.39 L 192.43 28.35 L 192.20 28.31 L 191.97 28.28 L 191.74 28.24 L 191.51 28.20 L 191.29 28.17 L 191.06 28.13 L 190.83 28.10 L 190.60 28.07 L 190.38 28.03 L 190.15 28.00 L 189.92 27.97 L 189.70 27.94 L 189.47 27.90 L 189.25 27.87 L 189.02 27.84 L 188.80 27.81 L 188.57 27.78 L 188.34 27.75 L 188.12 27.72 L 187.89 27.69 L 187.67 27.66 L 187.44 27.63 L 187.22 27.60 L 186.99 27.57 L 186.77 27.54 L 186.54 27.51 L 186.31 27.48 L 186.09 27.45 L 185.86 27.42 L 185.64 27.40 L 185.42 27.37 L 185.19 27.35 L 184.97 27.32 L 184.74 27.30 L 184.52 27.27 L 184.30 27.25 L 184.07 27.23 L 183.85 27.21 L 183.63 27.19 L 183.40 27.17 L 183.18 27.15 L 182.96 27.13 L 182.74 27.11 L 182.52 27.09 L 182.30 27.08 L 182.08 27.06 L 181.86 27.05 L 181.64 27.04 L 181.42 27.03 L 181.20 27.02 L 180.98 27.01 L 180.76 27.00 L 180.54 26.99 L 180.33 26.99 L 180.11 26.98 L 179.89 26.98 L 179.68 26.98 L 179.46 26.98 L 179.25 26.98 L 179.03 26.98 L 178.82 26.98 L 178.61 26.99 L 178.39 27.00 L 178.18 27.00 L 177.97 27.01 L 177.76 27.03 L 177.55 27.04 L 177.34 27.05 L 177.13 27.07 L 176.92 27.09 L 176.72 27.11 L 176.51 27.13 L 176.31 27.15 L 176.10 27.17 L 175.90 27.19 L 175.69 27.22 L 175.49 27.25 L 175.28 27.27 L 175.08 27.30 L 174.87 27.33 L 174.66 27.36 L 174.46 27.39 L 174.25 27.43 L 174.05 27.46 L 173.85 27.50 L 173.64 27.53 L 173.44 27.57 L 173.23 27.61 L 173.03 27.65 L 172.83 27.69 L 172.63 27.73 L 172.43 27.77 L 172.23 27.82 L 172.03 27.86 L 171.83 27.91 L 171.63 27.96 L 171.43 28.01 L 171.23 28.06 L 171.04 28.11 L 170.84 28.16 L 170.65 28.22 L 170.45 28.27 L 170.26 28.33 L 170.07 28.38 L 169.88 28.44 L 169.69 28.50 L 169.50 28.56 L 169.32 28.62 L 169.13 28.69 L 168.95 28.75 L 168.76 28.82 L 168.58 28.88 L 168.40 28.95 L 168.22 29.02 L 168.04 29.09 L 167.87 29.16 L 167.69 29.23 L 167.52 29.31 L 167.35 29.38 L 167.18 29.46 L 167.01 29.54 L 166.85 29.62 L 166.68 29.70 L 166.52 29.78 L 166.36 29.86 L 166.20 29.95 L 166.04 30.03 L 165.89 30.12 L 165.74 30.20 L 165.58 30.29 L 165.43 30.39 L 165.29 30.48 L 165.14 30.58 L 164.99 30.67 L 164.85 30.77 L 164.71 30.87 L 164.57 30.98 L 164.43 31.08 L 164.30 31.19 L 164.16 31.30 L 164.03 31.41 L 163.90 31.52 L 163.77 31.63 L 163.64 31.74 L 163.52 31.86 L 163.39 31.97 L 163.27 32.09 L 163.15 32.21 L 163.03 32.33 L 162.92 32.45 L 162.80 32.57 L 162.69 32.69 L 162.57 32.82 L 162.46 32.94 L 162.36 33.07 L 162.25 33.19 L 162.14 33.32 L 162.04 33.45 L 161.93 33.58 L 161.83 33.70 L 161.73 33.83 L 161.63 33.96 L 161.53 34.09 L 161.44 34.23 L 161.34 34.36 L 161.25 34.49 L 161.16 34.62 L 161.07 34.75 L 160.98 34.89 L 160.89 35.02 L 160.80 35.15 L 160.71 35.29 L 160.63 35.42 L 160.55 35.55 L 160.46 35.69 L 160.38 35.82 L 160.30 35.95 L 160.22 36.09 L 160.15 36.22 L 160.07 36.35 L 159.99 36.48 L 159.92 36.62 L 159.84 36.75 L 159.77 36.88 L 159.70 37.01 L 159.63 37.14 L 159.56 37.27 L 159.49 37.40 L 159.42 37.53 L 159.35 37.66 L 159.29 37.79 L 159.22 37.92 L 159.15 38.05 L 159.09 38.19 L 159.02 38.32 L 158.96 38.46 L 158.90 38.59 L 158.83 38.73 L 158.77 38.87 L 158.71 39.01 L 158.65 39.15 L 158.59 39.29 L 158.53 39.43 L 158.48 39.57 L 158.42 39.71 L 158.36 39.85 L 158.31 40.00 L 158.26 40.14 L 158.20 40.28 L 158.15 40.43 L 158.10 40.57 L 158.05 40.72 L 158.01 40.86 L 157.96 41.01 L 157.92 41.15 L 157.87 41.30 L 157.83 41.45 L 157.79 41.59 L 157.75 41.74 L 157.71 41.88 L 157.67 42.03 L 157.64 42.18 L 157.60 42.32 L 157.57 42.47 L 157.54 42.61 L 157.51 42.76 L 157.48 42.90 L 157.46 43.05 L 157.43 43.19 L 157.41 43.34 L 157.39 43.48 L 157.37 43.62 L 157.35 43.77 L 157.33 43.91 L 157.32 44.05 L 157.31 44.19 L 157.30 44.33 L 157.29 44.47 L 157.28 44.61 L 157.28 44.75 L 157.28 44.89 L 157.28 45.02 L 157.28 45.16 L 157.28 45.30 L 157.29 45.43 L 157.30 45.57 L 157.31 45.70 L 157.32 45.83 L 157.34 45.96 L 157.36 46.09 L 157.38 46.22 L 157.40 46.35 L 157.43 46.48 L 157.46 46.61 L 157.49 46.73 L 157.52 46.86 L 157.56 46.99 L 157.60 47.11 L 157.64 47.24 L 157.68 47.36 L 157.73 47.48 L 157.78 47.61 L 157.83 47.73 L 157.88 47.85 L 157.93 47.97 L 157.99 48.09 L 158.05 48.20 L 158.11 48.32 L 158.17 48.44 L 158.23 48.55 L 158.29 48.67 L 158.36 48.78 L 158.43 48.90 L 158.50 49.01 L 158.57 49.12 L 158.64 49.23 L 158.71 49.34 L 158.79 49.45 L 158.86 49.56 L 158.94 49.67 L 159.02 49.77 L 159.10 49.88 L 159.18 49.98 L 159.26 50.09 L 159.35 50.19 L 159.43 50.29 L 159.51 50.39 L 159.60 50.49 L 159.69 50.59 L 159.77 50.69 L 159.86 50.79 L 159.95 50.88 L 160.04 50.98 L 160.13 51.07 L 160.22 51.17 L 160.32 51.26 L 160.41 51.35 L 160.50 51.44 L 160.59 51.53 L 160.69 51.62 L 160.78 51.71 L 160.88 51.79 L 160.97 51.88 L 161.07 51.96 L 161.16 52.04 L 161.26 52.13 L 161.35 52.21 L 161.45 52.29 L 161.54 52.36 L 161.64 52.44 L 161.74 52.52 L 161.84 52.60 L 161.94 52.67 L 162.04 52.75 L 162.14 52.83 L 162.25 52.90 L 162.36 52.98 L 162.46 53.05 L 162.57 53.12 L 162.68 53.20 L 162.80 53.27 L 162.91 53.34 L 163.02 53.41 L 163.14 53.48 L 163.25 53.55 L 163.37 53.62 L 163.49 53.69 L 163.61 53.75 L 163.73 53.82 L 163.85 53.88 L 163.97 53.95 L 164.09 54.01 L 164.22 54.07 L 164.34 54.14 L 164.47 54.20 L 164.59 54.26 L 164.72 54.32 L 164.84 54.37 L 164.97 54.43 L 165.10 54.48 L 165.23 54.54 L 165.36 54.59 L 165.48 54.64 L 165.61 54.69 L 165.74 54.74 L 165.87 54.79 L 166.00 54.84 L 166.13 54.88 L 166.26 54.93 L 166.39 54.97 L 166.52 55.01 L 166.65 55.05 L 166.78 55.09 L 166.91 55.13 L 167.04 55.16 L 167.17 55.19 L 167.30 55.23 L 167.43 55.26 L 167.56 55.29 L 167.69 55.31 L 167.82 55.34 L 167.95 55.36 L 168.08 55.38 L 168.21 55.41 L 168.34 55.42 L 168.46 55.44 L 168.59 55.45 L 168.71 55.47 L 168.84 55.48 L 168.97 55.49 L 169.09 55.49 L 169.22 55.50 L 169.34 55.50 L 169.47 55.50 L 169.60 55.50 L 169.73 55.50 L 169.86 55.50 L 169.99 55.49 L 170.12 55.48 L 170.25 55.48 L 170.39 55.47 L 170.52 55.45 L 170.65 55.44 L 170.79 55.43 L 170.92 55.41 L 171.06 55.39 L 171.19 55.37 L 171.33 55.35 L 171.46 55.33 L 171.60 55.31 L 171.73 55.28 L 171.87 55.25 L 172.00 55.23 L 172.13 55.20 L 172.27 55.17 L 172.40 55.13 L 172.54 55.10 L 172.67 55.06 L 172.80 55.03 L 172.93 54.99 L 173.06 54.95 L 173.19 54.91 L 173.32 54.87 L 173.45 54.83 L 173.58 54.78 L 173.70 54.74 L 173.83 54.69 L 173.95 54.65 L 174.08 54.60 L 174.20 54.55 L 174.32 54.50 L 174.44 54.44 L 174.56 54.39 L 174.67 54.34 L 174.79 54.28 L 174.90 54.22 L 175.01 54.16 L 175.12 54.11 L 175.23 54.05 L 175.33 53.98 L 175.44 53.92 L 175.54 53.86 L 175.64 53.79 L 175.73 53.73 L 175.83 53.66 L 175.92 53.59 L 176.01 53.52 L 176.10 53.45 L 176.19 53.38 L 176.27 53.30 L 176.35 53.23 L 176.43 53.15 L 176.51 53.06 L 176.59 52.98 L 176.66 52.89 L 176.73 52.80 L 176.80 52.71 L 176.87 52.62 L 176.94 52.53 L 177.01 52.43 L 177.07 52.33 L 177.13 52.23 L 177.19 52.13 L 177.25 52.03 L 177.31 51.92 L 177.36 51.81 L 177.42 51.71 L 177.47 51.60 L 177.52 51.49 L 177.57 51.38 L 177.62 51.27 L 177.66 51.15 L 177.71 51.04 L 177.75 50.93 L 177.79 50.81 L 177.83 50.70 L 177.87 50.58 L 177.91 50.46 L 177.94 50.35 L 177.98 50.23 L 178.01 50.11 L 178.04 49.99 L 178.07 49.88 L 178.10 49.76 L 178.13 49.64 L 178.15 49.53 L 178.18 49.41 L 178.20 49.29 L 178.22 49.18 L 178.24 49.06 L 178.26 48.95 L 178.27 48.83 L 178.29 48.72 L 178.30 48.61 L 178.32 48.49 L 178.33 48.38 L 178.34 48.27 L 178.34 48.16 L 178.35 48.06 L 178.36 47.95 L 178.36 47.84 L 178.36 47.74 L 178.36 47.64 L 178.36 47.54 L 178.36 47.44 L 178.36 47.34 L 178.35 47.24 L 178.35 47.15 L 178.34 47.06 L 178.33 46.97 L 178.32 46.87 L 178.30 46.77 L 178.28 46.68 L 178.26 46.58 L 178.23 46.49 L 178.20 46.40 L 178.16 46.30 L 178.13 46.21 L 178.09 46.12 L 178.05 46.03 L 178.00 45.94 L 177.95 45.86 L 177.91 45.77 L 177.85 45.68 L 177.80 45.60 L 177.75 45.51 L 177.69 45.43 L 177.63 45.35 L 177.57 45.26 L 177.51 45.18 L 177.45 45.10 L 177.38 45.02 L 177.32 44.94 L 177.25 44.87 L 177.19 44.79 L 177.12 44.71 L 177.05 44.64 L 176.98 44.56 L 176.91 44.49 L 176.84 44.42 L 176.77 44.35 L 176.71 44.28 L 176.64 44.21 L 176.57 44.14 L 176.50 44.07 L 176.43 44.01 L 176.36 43.94 L 176.30 43.88 L 176.23 43.81 L 176.16 43.75 L 176.10 43.69 L 176.04 43.63 L 175.97 43.58 L 175.91 43.52 L 175.85 43.46 L 175.79 43.41 L 175.74 43.36 L 175.68 43.31 L 175.63 43.26 L 175.58 43.21 L 175.53 43.16 L 175.49 43.12 L 175.44 43.08 L 175.40 43.04 L 175.36 43.00 L 175.33 42.96 L 175.30 42.92 L 175.27 42.89 L 175.24 42.86 L 175.22 42.84 Z"/>
  </g>
</svg>