<svg xmlns="http://www.w3.org/2000/svg" viewBox="0 0 260 44" role="img" aria-hidden="true">
  <g fill="none" stroke="#3464A6" stroke-width="1.4" stroke-linecap="round" stroke-linejoin="round">
    <path d="M16 22 H104"/>
    <path d="M156 22 H244"/>
    <path d="M104 22 C 96 14 86 14 80 18 C 88 24 98 26 104 22 Z" opacity="0.9"/>
    <path d="M156 22 C 164 14 174 14 180 18 C 172 24 162 26 156 22 Z" opacity="0.9"/>
    <g transform="translate(130 22)">
      <path transform="rotate(0)"   d="M0 0 C -4 -6 -3.5 -14 0 -17 C 3.5 -14 4 -6 0 0 Z"/>
      <path transform="rotate(72)"  d="M0 0 C -4 -6 -3.5 -14 0 -17 C 3.5 -14 4 -6 0 0 Z"/>
      <path transform="rotate(144)" d="M0 0 C -4 -6 -3.5 -14 0 -17 C 3.5 -14 4 -6 0 0 Z"/>
      <path transform="rotate(216)" d="M0 0 C -4 -6 -3.5 -14 0 -17 C 3.5 -14 4 -6 0 0 Z"/>
      <path transform="rotate(288)" d="M0 0 C -4 -6 -3.5 -14 0 -17 C 3.5 -14 4 -6 0 0 Z"/>
      <circle r="2"/>
    </g>
  </g>
</svg>
