<svg xmlns="http://www.w3.org/2000/svg" viewBox="0 0 64 64" role="img" aria-label="Anemone flower">
  <rect width="64" height="64" rx="14" fill="#3464A6"/>
  <path d="M25.57,50.87C25.62,50.72 24.33,51.95 24.03,52.34C23.73,52.74 23.49,53.50 23.75,53.25C24.01,53.01 25.52,51.03 25.57,50.87Z M11.66,38.99C11.75,38.91 9.53,38.86 8.51,38.92C7.50,38.98 5.67,39.26 5.58,39.34C5.48,39.42 6.94,39.47 7.95,39.41C8.97,39.35 11.56,39.07 11.66,38.99Z M25.64,33.89C25.60,33.95 25.74,34.13 25.85,34.17C25.95,34.20 26.23,34.16 26.27,34.10C26.30,34.04 26.16,33.85 26.06,33.82C25.95,33.78 25.67,33.83 25.64,33.89Z M5.79,33.61C5.66,33.65 7.15,34.20 8.02,34.45C8.90,34.69 10.90,35.12 11.03,35.08C11.16,35.03 9.67,34.41 8.79,34.17C7.92,33.92 5.91,33.56 5.79,33.61Z M12.92,32.42C12.81,32.43 15.60,34.12 17.11,34.73C18.62,35.33 21.90,36.07 22.00,36.05C22.11,36.04 19.25,35.26 17.74,34.66C16.22,34.05 13.02,32.41 12.92,32.42Z M18.51,30.18C18.93,30.37 23.30,31.71 23.75,31.79C24.21,31.87 22.11,30.94 21.23,30.67C20.36,30.40 18.09,30.00 18.51,30.18Z M16.13,22.91C16.63,23.26 20.24,25.48 20.47,25.57C20.69,25.66 18.18,23.91 17.46,23.47C16.74,23.03 15.63,22.56 16.13,22.91Z M56.82,21.44C56.78,21.37 56.16,21.88 55.70,22.42C55.23,22.97 53.99,24.66 54.02,24.73C54.06,24.80 55.44,23.39 55.91,22.84C56.37,22.29 56.85,21.51 56.82,21.44Z M17.67,19.28C18.04,19.66 20.90,22.17 21.09,22.28C21.29,22.40 19.43,20.48 18.86,19.98C18.29,19.48 17.30,18.89 17.67,19.28Z M56.40,18.79C56.75,18.26 55.17,19.78 54.51,20.61C53.85,21.43 52.10,24.05 52.41,23.75C52.73,23.45 56.05,19.31 56.40,18.79Z M24.03,18.23C23.82,17.91 24.05,18.73 24.31,19.21C24.57,19.69 25.62,21.26 25.57,21.09C25.52,20.93 24.24,18.54 24.03,18.23Z M44.09,10.47C44.20,9.93 44.01,10.12 43.60,11.31C43.20,12.50 41.75,17.06 41.65,17.60C41.54,18.14 42.57,15.71 42.98,14.52C43.38,13.34 43.99,11.01 44.09,10.47Z M33.40,9.98C33.42,10.71 34.00,16.71 34.10,17.18C34.19,17.65 34.07,13.98 33.96,12.78C33.84,11.58 33.37,9.25 33.40,9.98Z M57.52,15.15C57.27,14.86 56.83,14.57 56.47,14.45C56.11,14.34 55.65,14.57 55.35,14.45C55.05,14.34 55.08,14.01 54.65,13.75C54.22,13.50 53.30,13.04 52.76,12.92C52.23,12.79 51.91,12.81 51.43,12.99C50.96,13.16 50.34,13.85 49.90,13.96C49.45,14.08 49.13,13.71 48.78,13.68C48.43,13.66 48.00,13.98 47.80,13.82C47.60,13.67 47.72,13.07 47.59,12.78C47.46,12.48 47.16,12.53 47.03,12.08C46.90,11.62 47.02,10.60 46.82,10.05C46.62,9.50 46.13,9.06 45.84,8.79C45.55,8.52 45.38,8.50 45.07,8.44C44.77,8.38 44.47,8.71 44.02,8.44C43.58,8.17 42.91,7.10 42.42,6.83C41.93,6.57 41.43,6.95 41.09,6.83C40.75,6.72 40.67,6.31 40.39,6.14C40.11,5.96 39.85,5.83 39.41,5.79C38.97,5.74 38.24,5.67 37.73,5.86C37.22,6.04 36.78,6.72 36.33,6.90C35.89,7.09 35.61,6.74 35.08,6.97C34.54,7.21 33.70,8.19 33.12,8.30C32.54,8.42 32.06,7.78 31.58,7.67C31.10,7.57 30.72,7.60 30.25,7.67C29.79,7.74 29.61,7.61 28.78,8.09C27.96,8.57 25.95,9.99 25.29,10.54C24.62,11.09 24.93,11.01 24.80,11.38C24.67,11.75 24.75,12.52 24.52,12.78C24.29,13.03 23.83,12.94 23.40,12.92C22.97,12.89 22.26,12.65 21.93,12.64C21.61,12.62 21.68,12.62 21.44,12.85C21.21,13.07 20.92,13.71 20.54,13.96C20.15,14.22 19.46,14.13 19.14,14.38C18.81,14.64 18.85,15.23 18.58,15.50C18.31,15.77 17.83,15.77 17.53,15.99C17.23,16.21 16.96,16.48 16.76,16.83C16.56,17.18 16.42,17.52 16.34,18.09C16.26,18.66 16.54,19.66 16.27,20.26C16.00,20.85 14.97,21.20 14.73,21.65C14.50,22.11 14.93,22.61 14.87,22.98C14.81,23.36 14.45,23.41 14.38,23.89C14.31,24.37 14.58,25.49 14.45,25.85C14.33,26.21 13.98,26.07 13.61,26.06C13.25,26.05 12.73,25.71 12.29,25.78C11.84,25.85 11.37,26.38 10.96,26.48C10.55,26.57 10.12,26.33 9.84,26.34C9.56,26.35 9.75,26.17 9.28,26.55C8.81,26.92 7.54,28.24 7.04,28.57C6.54,28.91 6.54,28.50 6.27,28.57C6.01,28.64 5.79,28.54 5.44,28.99C5.09,29.45 4.31,30.42 4.18,31.30C4.05,32.19 4.75,33.61 4.67,34.31C4.59,35.01 4.00,34.97 3.69,35.50C3.37,36.02 2.88,36.82 2.78,37.45C2.67,38.08 3.07,38.84 3.06,39.27C3.05,39.70 2.77,39.68 2.71,40.04C2.65,40.40 2.65,41.09 2.71,41.44C2.77,41.79 2.77,41.87 3.06,42.14C3.35,42.40 3.94,42.94 4.46,43.05C4.97,43.15 5.41,42.67 6.14,42.77C6.86,42.86 8.24,43.35 8.79,43.60C9.34,43.86 9.12,44.09 9.42,44.30C9.72,44.51 9.85,44.73 10.61,44.86C11.37,44.99 13.57,44.93 13.96,45.07C14.36,45.21 13.43,45.53 12.99,45.70C12.54,45.88 11.74,45.89 11.31,46.12C10.88,46.35 10.76,46.88 10.40,47.10C10.04,47.32 9.48,47.30 9.14,47.45C8.80,47.60 8.62,47.69 8.37,48.01C8.13,48.32 7.74,48.95 7.67,49.34C7.60,49.72 8.12,49.80 7.95,50.32C7.79,50.83 6.88,51.90 6.69,52.41C6.51,52.92 6.72,53.08 6.83,53.39C6.95,53.71 7.16,54.03 7.39,54.30C7.63,54.57 7.81,54.92 8.23,55.00C8.65,55.08 9.42,54.74 9.91,54.79C10.40,54.84 10.78,55.22 11.17,55.28C11.55,55.34 11.82,55.27 12.22,55.14C12.61,55.01 13.08,54.43 13.55,54.51C14.01,54.59 14.70,55.22 15.01,55.63C15.33,56.04 15.20,56.59 15.43,56.96C15.67,57.32 15.92,57.61 16.41,57.80C16.90,57.98 17.87,58.10 18.37,58.07C18.87,58.05 19.04,57.64 19.42,57.66C19.79,57.67 20.15,58.06 20.61,58.14C21.06,58.23 21.30,58.68 22.14,58.14C22.98,57.61 24.78,55.60 25.64,54.93C26.50,54.25 26.85,54.21 27.32,54.09C27.78,53.97 28.05,54.28 28.43,54.23C28.82,54.18 29.31,54.02 29.62,53.81C29.94,53.60 29.86,53.23 30.32,52.97C30.79,52.72 31.93,52.60 32.42,52.27C32.91,51.95 32.98,51.25 33.26,51.01C33.54,50.78 33.83,50.83 34.10,50.87C34.37,50.92 34.64,51.24 34.87,51.29C35.09,51.35 35.13,51.12 35.43,51.22C35.72,51.33 36.21,51.82 36.61,51.92C37.02,52.03 37.51,51.95 37.87,51.85C38.23,51.76 38.42,51.68 38.78,51.36C39.14,51.05 39.65,50.25 40.04,49.97C40.42,49.69 40.74,49.94 41.09,49.69C41.44,49.43 41.68,48.65 42.14,48.43C42.59,48.21 43.29,48.51 43.81,48.36C44.34,48.21 44.85,47.61 45.28,47.52C45.71,47.43 46.00,47.78 46.40,47.80C46.80,47.82 47.22,47.87 47.66,47.66C48.10,47.45 48.73,46.92 49.06,46.54C49.38,46.16 49.05,45.71 49.62,45.35C50.19,44.99 51.74,44.89 52.48,44.37C53.23,43.86 53.82,42.80 54.09,42.28C54.36,41.75 53.95,41.58 54.09,41.23C54.23,40.88 54.78,40.52 54.93,40.18C55.08,39.84 54.94,39.41 55.00,39.20C55.06,38.99 54.92,39.00 55.28,38.92C55.64,38.84 56.68,38.85 57.17,38.71C57.66,38.57 57.84,38.40 58.21,38.08C58.59,37.77 59.17,37.24 59.40,36.82C59.64,36.40 59.37,36.03 59.61,35.57C59.86,35.10 60.68,34.47 60.87,34.03C61.06,33.58 60.67,33.32 60.73,32.91C60.79,32.50 61.14,32.00 61.22,31.58C61.30,31.16 61.27,30.66 61.22,30.39C61.17,30.12 60.94,30.46 60.94,29.97C60.94,29.48 61.48,28.10 61.22,27.46C60.96,26.82 59.93,26.33 59.40,26.13C58.88,25.93 58.34,26.28 58.07,26.27C57.81,26.26 57.69,26.37 57.80,26.06C57.90,25.74 58.54,24.92 58.70,24.38C58.87,23.84 58.89,23.32 58.77,22.84C58.66,22.36 58.03,22.06 58.00,21.51C57.98,20.97 58.53,20.09 58.63,19.56C58.74,19.02 58.76,18.68 58.63,18.30C58.51,17.91 57.98,17.60 57.86,17.25C57.75,16.90 57.99,16.55 57.93,16.20C57.88,15.85 57.76,15.44 57.52,15.15Z M25.92,53.74C25.99,53.79 25.30,54.04 25.29,54.09C25.28,54.14 25.77,54.00 25.85,54.02C25.93,54.04 26.06,54.03 25.78,54.23C25.50,54.43 24.40,55.20 24.17,55.21C23.94,55.22 24.26,54.53 24.38,54.30C24.50,54.07 24.61,53.90 24.87,53.81C25.13,53.72 25.85,53.69 25.92,53.74Z M29.69,52.76C29.84,52.88 29.01,53.50 28.57,53.60C28.14,53.71 27.26,53.51 27.11,53.39C26.96,53.27 27.23,53.01 27.67,52.90C28.10,52.80 29.54,52.65 29.69,52.76Z M32.28,51.29C32.31,51.38 32.00,51.79 31.79,51.92C31.58,52.05 31.06,52.14 31.02,52.06C30.99,51.98 31.37,51.56 31.58,51.43C31.79,51.31 32.24,51.21 32.28,51.29Z M42.70,47.66C42.91,47.98 41.69,48.23 41.37,48.22C41.04,48.21 40.77,47.53 40.74,47.59C40.70,47.65 41.11,48.36 41.16,48.57C41.20,48.78 41.34,48.64 41.02,48.85C40.69,49.06 39.60,49.93 39.20,49.83C38.80,49.72 38.69,48.16 38.64,48.22C38.59,48.28 39.10,49.67 38.92,50.18C38.75,50.68 38.02,51.07 37.59,51.22C37.16,51.38 36.51,51.42 36.33,51.08C36.16,50.75 36.60,49.23 36.54,49.20C36.49,49.16 36.40,50.70 35.98,50.87C35.57,51.05 34.66,50.29 34.03,50.25C33.40,50.20 32.40,50.78 32.21,50.59C32.02,50.41 32.48,49.67 32.91,49.13C33.34,48.58 34.67,47.20 34.80,47.31C34.92,47.41 33.50,49.87 33.68,49.76C33.85,49.64 35.32,47.18 35.84,46.61C36.37,46.04 36.61,46.34 36.82,46.33C37.03,46.32 37.02,46.56 37.10,46.54C37.18,46.52 36.97,46.39 37.31,46.19C37.65,45.99 38.62,45.14 39.13,45.35C39.64,45.56 40.23,47.30 40.39,47.45C40.55,47.60 39.72,46.23 40.11,46.26C40.49,46.30 42.49,47.33 42.70,47.66Z M39.34,44.51C39.40,44.59 38.51,45.07 38.01,45.28C37.51,45.49 36.39,45.85 36.33,45.77C36.28,45.69 37.16,45.00 37.66,44.79C38.16,44.58 39.28,44.43 39.34,44.51Z M32.77,41.58C32.59,42.03 31.55,44.05 31.02,44.72C30.50,45.40 30.09,45.41 29.62,45.63C29.16,45.85 28.85,46.06 28.23,46.05C27.60,46.04 26.01,45.54 25.85,45.56C25.69,45.58 27.09,46.06 27.25,46.19C27.40,46.32 27.44,46.48 26.76,46.33C26.07,46.18 23.39,45.29 23.12,45.28C22.85,45.27 25.06,46.12 25.15,46.26C25.24,46.40 24.36,46.37 23.68,46.12C23.01,45.88 21.55,44.97 21.09,44.79C20.64,44.62 21.12,45.08 20.95,45.07C20.79,45.06 19.93,44.57 20.12,44.72C20.30,44.87 22.57,46.00 22.07,45.98C21.57,45.96 18.32,44.85 17.11,44.58C15.90,44.31 14.88,44.59 14.80,44.37C14.72,44.15 16.13,43.44 16.62,43.25C17.11,43.07 17.40,43.16 17.74,43.25C18.08,43.35 18.64,43.84 18.65,43.81C18.66,43.79 17.90,43.29 17.81,43.11C17.72,42.94 17.93,42.87 18.09,42.77C18.25,42.66 18.38,42.50 18.79,42.49C19.20,42.47 20.10,42.75 20.54,42.70C20.97,42.64 21.05,42.19 21.37,42.14C21.70,42.08 22.12,42.09 22.49,42.35C22.87,42.60 23.42,43.51 23.61,43.67C23.80,43.84 23.32,43.42 23.61,43.32C23.90,43.23 24.85,43.00 25.36,43.11C25.87,43.23 26.27,43.85 26.69,44.02C27.11,44.20 27.50,44.25 27.88,44.16C28.25,44.08 28.49,43.69 28.92,43.53C29.36,43.38 30.24,43.34 30.46,43.25C30.68,43.17 30.11,43.31 30.25,43.05C30.39,42.78 31.00,41.82 31.30,41.65C31.60,41.47 31.83,42.01 32.07,42.00C32.31,41.98 32.94,41.12 32.77,41.58Z M4.88,42.35C4.84,42.21 5.98,41.54 6.34,41.37C6.71,41.19 6.80,41.23 7.04,41.30C7.29,41.37 7.61,41.55 7.81,41.79C8.01,42.02 8.44,42.63 8.23,42.70C8.02,42.77 7.11,42.26 6.55,42.21C6.00,42.15 4.91,42.49 4.88,42.35Z M32.63,40.25C32.65,40.33 32.63,40.94 32.49,41.16C32.35,41.38 31.90,41.68 31.79,41.58C31.69,41.47 31.80,40.75 31.86,40.53C31.92,40.31 32.06,40.23 32.14,40.25C32.22,40.27 32.27,40.67 32.35,40.67C32.43,40.67 32.61,40.17 32.63,40.25Z M31.37,40.32C31.34,40.46 31.15,41.13 30.95,41.30C30.75,41.46 30.30,41.37 30.18,41.30C30.07,41.23 30.11,41.08 30.25,40.88C30.39,40.68 30.87,40.18 31.02,40.11C31.17,40.04 31.10,40.42 31.16,40.46C31.22,40.49 31.41,40.18 31.37,40.32Z M29.76,40.04C29.82,40.07 29.94,40.26 29.76,40.46C29.59,40.66 28.95,41.13 28.71,41.23C28.48,41.32 28.35,41.20 28.36,41.02C28.38,40.83 28.63,40.31 28.78,40.11C28.94,39.91 29.17,39.81 29.27,39.83C29.38,39.85 29.33,40.21 29.41,40.25C29.50,40.28 29.70,40.00 29.76,40.04Z M34.66,39.83C34.67,39.96 34.54,40.77 34.45,41.02C34.35,41.26 34.24,41.26 34.10,41.30C33.96,41.33 33.60,41.48 33.61,41.23C33.62,40.97 34.04,39.92 34.17,39.76C34.30,39.60 34.30,40.24 34.38,40.25C34.46,40.26 34.64,39.70 34.66,39.83Z M33.61,38.85C33.65,38.93 33.30,40.21 33.19,40.39C33.07,40.56 32.84,40.16 32.91,39.90C32.98,39.64 33.56,38.77 33.61,38.85Z M33.05,38.85C33.06,39.00 32.76,39.55 32.56,39.76C32.36,39.97 32.02,40.10 31.86,40.11C31.70,40.12 31.48,40.04 31.58,39.83C31.69,39.62 32.24,39.01 32.49,38.85C32.73,38.69 33.04,38.70 33.05,38.85Z M27.81,38.78C27.91,38.79 27.34,39.27 27.39,39.34C27.43,39.41 27.98,39.17 28.09,39.20C28.19,39.24 28.13,39.42 28.02,39.55C27.90,39.68 27.58,39.90 27.39,39.97C27.19,40.04 26.93,40.09 26.83,39.97C26.72,39.85 26.59,39.47 26.76,39.27C26.92,39.07 27.70,38.77 27.81,38.78Z M32.00,38.85C31.99,39.00 31.53,39.46 31.23,39.69C30.93,39.92 30.37,40.23 30.18,40.25C30.00,40.27 29.93,40.07 30.11,39.83C30.30,39.58 30.99,38.94 31.30,38.78C31.62,38.62 32.01,38.70 32.00,38.85Z M36.12,38.43C36.18,38.40 36.33,38.66 36.40,38.64C36.47,38.62 36.40,38.20 36.54,38.29C36.68,38.38 37.17,39.06 37.24,39.20C37.31,39.34 37.02,39.08 36.96,39.13C36.91,39.18 36.99,39.44 36.89,39.48C36.80,39.51 36.54,39.44 36.40,39.34C36.26,39.24 36.10,39.00 36.05,38.85C36.01,38.70 36.07,38.47 36.12,38.43Z M31.09,38.50C31.01,38.75 30.21,39.33 29.90,39.48C29.60,39.63 29.51,39.35 29.27,39.41C29.04,39.47 28.74,39.61 28.50,39.83C28.27,40.05 27.92,40.46 27.88,40.74C27.83,41.02 28.28,41.27 28.23,41.51C28.17,41.74 27.27,42.22 27.53,42.14C27.78,42.05 29.32,41.06 29.76,41.02C30.21,40.97 29.98,41.73 30.18,41.86C30.38,41.98 31.04,41.59 30.95,41.79C30.86,41.98 29.96,42.85 29.62,43.05C29.29,43.24 29.30,42.88 28.92,42.98C28.55,43.07 27.95,43.69 27.39,43.60C26.83,43.52 26.20,42.65 25.57,42.49C24.94,42.32 24.10,42.75 23.61,42.63C23.12,42.50 21.97,42.10 22.63,41.72C23.30,41.33 26.65,40.63 27.60,40.32C28.54,40.00 28.12,40.06 28.30,39.83C28.47,39.60 28.30,39.22 28.64,38.92C28.99,38.62 29.98,38.08 30.39,38.01C30.80,37.94 31.17,38.26 31.09,38.50Z M36.19,37.73C36.17,37.65 36.36,37.45 36.54,37.45C36.73,37.45 37.29,37.65 37.31,37.73C37.34,37.81 36.87,37.94 36.68,37.94C36.50,37.94 36.22,37.81 36.19,37.73Z M38.08,37.94C37.99,37.84 38.57,37.90 38.64,37.80C38.71,37.71 38.34,37.38 38.50,37.38C38.66,37.38 39.50,37.69 39.62,37.80C39.74,37.92 39.24,38.00 39.20,38.08C39.17,38.16 39.41,38.23 39.41,38.29C39.41,38.35 39.42,38.49 39.20,38.43C38.98,38.37 38.17,38.05 38.08,37.94Z M36.89,37.10C36.80,36.97 36.99,36.64 37.24,36.61C37.50,36.59 38.34,36.84 38.43,36.96C38.52,37.09 38.06,37.36 37.80,37.38C37.55,37.41 36.99,37.23 36.89,37.10Z M37.24,36.54C37.22,36.51 38.56,36.45 38.85,36.47C39.14,36.50 39.26,36.67 38.99,36.68C38.72,36.70 37.27,36.58 37.24,36.54Z M29.48,36.75C29.30,36.94 28.32,37.17 27.88,37.17C27.43,37.17 26.92,36.92 26.83,36.75C26.73,36.59 26.96,36.31 27.32,36.19C27.68,36.08 28.63,35.96 28.99,36.05C29.36,36.15 29.67,36.57 29.48,36.75Z M39.34,36.47C39.38,36.40 39.89,36.35 39.90,36.26C39.91,36.18 39.44,36.07 39.41,35.98C39.38,35.90 39.44,35.79 39.69,35.77C39.93,35.76 40.74,35.86 40.88,35.91C41.02,35.97 40.53,36.05 40.53,36.12C40.53,36.19 40.85,36.26 40.88,36.33C40.90,36.40 40.87,36.49 40.67,36.54C40.47,36.60 39.91,36.70 39.69,36.68C39.47,36.67 39.31,36.54 39.34,36.47Z M44.37,35.36C44.59,36.09 43.32,39.37 42.77,40.60C42.21,41.82 41.54,42.19 41.02,42.70C40.49,43.20 40.28,43.32 39.62,43.60C38.96,43.88 37.62,44.09 37.03,44.37C36.45,44.65 36.50,45.01 36.12,45.28C35.75,45.55 35.62,45.74 34.80,45.98C33.97,46.23 32.17,46.33 31.16,46.75C30.15,47.17 29.39,48.09 28.71,48.50C28.04,48.91 27.29,49.06 27.11,49.20C26.92,49.34 27.29,49.41 27.60,49.34C27.90,49.27 28.84,48.65 28.92,48.78C29.01,48.91 27.76,50.30 28.09,50.11C28.41,49.91 30.17,48.10 30.88,47.59C31.59,47.08 31.81,47.13 32.35,47.03C32.89,46.92 34.03,46.80 34.10,46.96C34.17,47.12 32.84,47.89 32.77,48.01C32.70,48.12 33.74,47.52 33.68,47.66C33.62,47.80 32.77,48.38 32.42,48.85C32.07,49.31 31.91,49.98 31.58,50.45C31.25,50.93 30.72,51.47 30.46,51.71C30.21,51.96 30.15,51.92 30.04,51.92C29.94,51.92 29.96,51.68 29.83,51.71C29.70,51.75 29.31,52.25 29.27,52.13C29.24,52.02 29.70,51.01 29.62,51.01C29.54,51.01 29.15,51.91 28.78,52.13C28.42,52.35 27.88,52.18 27.46,52.34C27.04,52.51 26.64,53.01 26.27,53.11C25.89,53.22 25.52,52.94 25.22,52.97C24.92,53.01 24.67,53.17 24.45,53.32C24.23,53.47 24.02,53.61 23.89,53.88C23.76,54.15 23.81,54.66 23.68,54.93C23.55,55.20 23.31,55.15 23.12,55.49C22.94,55.83 22.74,56.64 22.56,56.96C22.39,57.27 22.12,57.49 22.07,57.38C22.03,57.26 22.40,56.23 22.28,56.26C22.17,56.28 21.90,57.40 21.37,57.52C20.85,57.63 19.18,57.52 19.14,56.96C19.09,56.40 21.22,54.09 21.09,54.16C20.97,54.23 18.89,56.84 18.37,57.38C17.84,57.91 17.94,57.54 17.95,57.38C17.96,57.21 18.50,56.41 18.44,56.40C18.38,56.39 17.95,57.20 17.60,57.31C17.25,57.41 16.61,57.15 16.34,57.03C16.07,56.90 15.56,57.11 15.99,56.54C16.42,55.97 18.95,53.66 18.93,53.60C18.90,53.54 16.41,55.88 15.85,56.19C15.29,56.49 15.86,55.77 15.57,55.42C15.28,55.07 14.51,54.35 14.10,54.09C13.70,53.83 12.87,54.22 13.13,53.88C13.38,53.54 15.77,52.03 15.64,52.06C15.51,52.10 12.85,53.74 12.36,54.09C11.87,54.44 12.71,54.10 12.71,54.16C12.71,54.22 12.68,54.38 12.36,54.44C12.03,54.50 11.13,54.57 10.75,54.51C10.36,54.45 9.54,54.56 10.05,54.09C10.56,53.62 13.60,51.93 13.82,51.71C14.05,51.49 12.17,52.32 11.38,52.76C10.59,53.20 9.57,54.10 9.07,54.37C8.57,54.64 8.59,54.51 8.37,54.37C8.15,54.23 7.77,53.75 7.74,53.53C7.72,53.31 8.23,53.08 8.23,53.04C8.23,53.01 7.87,53.31 7.74,53.32C7.61,53.33 7.51,53.31 7.46,53.11C7.42,52.91 7.35,52.45 7.46,52.13C7.58,51.82 7.51,51.62 8.16,51.22C8.81,50.83 11.02,49.99 11.38,49.76C11.74,49.52 10.80,49.69 10.33,49.83C9.86,49.97 8.91,50.69 8.58,50.59C8.26,50.50 8.29,49.66 8.37,49.27C8.45,48.87 8.74,48.47 9.07,48.22C9.40,47.96 9.64,47.86 10.33,47.73C11.02,47.60 13.07,47.53 13.20,47.45C13.32,47.37 11.26,47.41 11.10,47.24C10.94,47.06 11.35,46.58 12.22,46.40C13.08,46.23 15.99,46.30 16.27,46.19C16.55,46.09 14.01,45.96 13.89,45.77C13.78,45.58 15.00,45.15 15.57,45.07C16.14,44.99 16.39,45.05 17.32,45.28C18.25,45.52 21.04,46.20 21.16,46.47C21.29,46.74 19.02,46.69 18.09,46.89C17.16,47.09 14.92,47.68 15.57,47.66C16.22,47.64 20.09,46.85 22.00,46.75C23.91,46.65 27.81,46.41 27.04,47.03C26.27,47.65 17.55,50.29 17.39,50.45C17.23,50.62 25.02,48.16 26.06,48.01C27.09,47.86 24.25,49.08 23.61,49.55C22.97,50.01 21.39,51.24 22.21,50.80C23.04,50.37 26.99,47.98 28.57,46.96C30.16,45.93 31.06,45.22 31.72,44.65C32.38,44.08 32.26,44.11 32.56,43.53C32.86,42.96 33.33,41.53 33.54,41.23C33.75,40.92 33.71,41.64 33.82,41.72C33.92,41.80 33.99,41.82 34.17,41.72C34.34,41.61 34.71,41.04 34.87,41.09C35.02,41.13 35.01,42.24 35.08,42.00C35.15,41.75 35.33,40.06 35.29,39.62C35.24,39.18 34.84,39.54 34.80,39.34C34.75,39.14 34.88,38.38 35.01,38.43C35.13,38.48 35.51,39.64 35.57,39.62C35.62,39.60 35.33,38.49 35.36,38.29C35.38,38.09 35.65,38.31 35.70,38.43C35.76,38.55 35.60,38.76 35.70,38.99C35.81,39.22 36.00,39.15 36.33,39.83C36.67,40.51 37.50,42.63 37.73,43.05C37.97,43.46 37.90,42.85 37.73,42.35C37.57,41.84 36.82,40.46 36.75,40.04C36.68,39.62 37.16,39.97 37.31,39.83C37.46,39.69 37.70,39.48 37.66,39.20C37.63,38.92 37.08,38.31 37.10,38.15C37.13,37.99 37.53,38.12 37.80,38.22C38.07,38.33 38.23,38.70 38.71,38.78C39.19,38.86 40.46,38.78 40.67,38.71C40.88,38.64 40.07,38.51 39.97,38.36C39.86,38.21 40.13,38.02 40.04,37.80C39.95,37.58 39.03,37.17 39.41,37.03C39.79,36.89 41.87,37.01 42.35,36.96C42.82,36.92 42.49,36.80 42.28,36.75C42.07,36.71 41.23,36.78 41.09,36.68C40.95,36.59 40.89,36.42 41.44,36.19C41.98,35.97 44.15,34.62 44.37,35.36Z M25.43,33.89C25.44,33.75 25.57,33.64 25.78,33.61C25.99,33.57 26.48,33.62 26.69,33.68C26.90,33.74 27.05,33.88 27.04,33.96C27.03,34.04 26.63,34.09 26.62,34.17C26.61,34.25 27.12,34.40 26.97,34.45C26.82,34.49 25.96,34.54 25.71,34.45C25.45,34.35 25.42,34.03 25.43,33.89Z M41.44,33.68C41.45,33.85 41.18,34.33 41.02,34.52C40.85,34.70 40.63,34.77 40.46,34.80C40.28,34.82 39.92,34.76 39.97,34.66C40.02,34.55 40.73,34.24 40.74,34.17C40.75,34.10 40.11,34.31 40.04,34.24C39.97,34.17 40.17,33.88 40.32,33.75C40.47,33.62 40.76,33.48 40.95,33.47C41.13,33.46 41.43,33.50 41.44,33.68Z M28.36,32.21C28.56,32.22 29.46,32.68 29.69,32.84C29.93,33.00 29.79,33.11 29.76,33.19C29.74,33.27 29.76,33.40 29.55,33.33C29.34,33.26 28.70,32.96 28.50,32.77C28.31,32.58 28.17,32.20 28.36,32.21Z M26.55,31.86C26.71,31.74 27.43,31.80 27.67,31.86C27.90,31.92 27.96,32.12 27.95,32.21C27.93,32.30 27.62,32.34 27.60,32.42C27.57,32.50 27.85,32.63 27.81,32.70C27.76,32.77 27.50,32.86 27.32,32.84C27.13,32.82 26.82,32.72 26.69,32.56C26.56,32.40 26.38,31.98 26.55,31.86Z M39.62,31.44C39.67,31.63 39.55,32.28 39.27,32.63C38.99,32.98 38.20,33.49 37.94,33.54C37.69,33.58 37.56,33.25 37.73,32.91C37.91,32.57 38.68,31.76 38.99,31.51C39.31,31.27 39.57,31.25 39.62,31.44Z M41.09,31.37C41.15,31.41 41.20,31.64 41.16,31.79C41.11,31.94 41.01,32.10 40.81,32.28C40.61,32.45 40.06,32.86 39.97,32.84C39.88,32.82 40.28,32.23 40.25,32.14C40.21,32.05 39.83,32.33 39.76,32.28C39.69,32.23 39.68,32.02 39.83,31.86C39.98,31.70 40.51,31.35 40.67,31.30C40.83,31.25 40.74,31.57 40.81,31.58C40.88,31.59 41.03,31.34 41.09,31.37Z M32.98,31.16C33.26,31.08 33.68,30.92 33.75,31.23C33.82,31.55 33.49,32.85 33.40,33.05C33.30,33.25 33.25,32.48 33.19,32.42C33.13,32.36 33.12,32.71 33.05,32.70C32.98,32.69 32.85,32.38 32.77,32.35C32.69,32.31 32.68,32.59 32.56,32.49C32.44,32.38 32.00,31.94 32.07,31.72C32.14,31.50 32.70,31.24 32.98,31.16Z M36.19,31.58C36.44,31.71 36.04,31.71 36.12,31.79C36.21,31.87 36.64,31.98 36.68,32.07C36.73,32.16 36.35,32.23 36.40,32.35C36.46,32.47 36.87,32.51 37.03,32.77C37.20,33.03 37.35,33.47 37.38,33.89C37.42,34.31 37.44,34.77 37.24,35.29C37.04,35.80 36.39,36.74 36.19,36.96C36.00,37.18 36.11,36.57 36.05,36.61C36.00,36.66 35.94,37.30 35.84,37.24C35.75,37.18 35.57,36.21 35.50,36.26C35.43,36.32 35.50,37.42 35.43,37.59C35.36,37.77 35.12,37.29 35.08,37.31C35.03,37.34 35.25,37.60 35.15,37.73C35.04,37.86 34.67,38.06 34.45,38.08C34.23,38.11 34.07,38.11 33.82,37.87C33.56,37.64 32.99,36.72 32.91,36.68C32.83,36.65 33.14,37.42 33.33,37.66C33.51,37.91 34.17,38.05 34.03,38.15C33.89,38.26 32.80,38.31 32.49,38.29C32.17,38.27 32.22,38.02 32.14,38.01C32.06,38.00 32.23,38.29 32.00,38.22C31.77,38.15 31.08,37.86 30.74,37.59C30.40,37.32 30.15,37.00 29.97,36.61C29.80,36.23 29.73,35.66 29.69,35.29C29.66,34.91 29.67,34.61 29.76,34.38C29.86,34.14 30.19,34.03 30.25,33.89C30.31,33.75 30.08,33.70 30.11,33.54C30.15,33.37 30.31,33.04 30.46,32.91C30.61,32.78 30.95,32.84 31.02,32.77C31.09,32.70 30.77,32.65 30.88,32.49C31.00,32.33 31.41,31.60 31.72,31.79C32.03,31.98 32.80,33.42 32.77,33.61C32.73,33.79 31.64,32.89 31.51,32.91C31.38,32.93 32.15,33.61 32.00,33.75C31.85,33.89 30.59,33.64 30.60,33.75C30.61,33.85 31.98,34.26 32.07,34.38C32.16,34.49 31.24,34.40 31.16,34.45C31.08,34.49 31.67,34.55 31.58,34.66C31.49,34.76 30.85,34.91 30.60,35.08C30.36,35.24 29.93,35.66 30.11,35.64C30.30,35.61 31.46,34.99 31.72,34.94C31.98,34.88 31.59,35.25 31.65,35.29C31.71,35.32 32.12,34.98 32.07,35.15C32.02,35.31 31.32,36.24 31.37,36.26C31.42,36.29 32.20,35.37 32.35,35.29C32.50,35.20 32.23,35.73 32.28,35.77C32.33,35.82 32.54,35.44 32.63,35.57C32.72,35.69 32.75,36.64 32.84,36.54C32.93,36.45 33.06,35.13 33.19,35.01C33.32,34.88 33.53,35.82 33.61,35.77C33.69,35.73 33.50,34.74 33.68,34.73C33.85,34.71 34.59,35.73 34.66,35.70C34.73,35.68 34.13,34.77 34.10,34.59C34.06,34.40 34.40,34.63 34.45,34.59C34.49,34.54 34.21,34.33 34.38,34.31C34.54,34.28 35.37,34.50 35.43,34.45C35.48,34.39 34.64,34.07 34.73,33.96C34.81,33.84 35.87,33.82 35.91,33.75C35.96,33.68 35.09,33.62 35.01,33.54C34.92,33.46 35.48,33.29 35.43,33.26C35.37,33.22 34.54,33.46 34.66,33.33C34.77,33.20 35.89,32.66 36.12,32.49C36.36,32.31 36.24,32.24 36.05,32.28C35.87,32.31 35.12,32.73 35.01,32.70C34.89,32.66 35.47,32.01 35.36,32.07C35.24,32.13 34.46,33.04 34.31,33.05C34.16,33.06 34.53,32.16 34.45,32.14C34.37,32.12 33.90,33.06 33.82,32.91C33.74,32.76 33.82,31.55 33.96,31.23C34.10,30.92 34.28,30.96 34.66,31.02C35.03,31.08 35.95,31.45 36.19,31.58Z M51.78,30.95C52.31,30.89 52.02,31.02 51.57,31.79C51.13,32.56 49.58,34.91 49.13,35.57C48.67,36.22 48.78,35.91 48.85,35.70C48.92,35.50 49.38,34.76 49.55,34.31C49.71,33.85 50.14,32.54 49.83,32.98C49.51,33.42 48.07,36.28 47.66,36.96C47.25,37.65 47.40,37.22 47.38,37.10C47.36,36.99 47.80,35.95 47.52,36.26C47.24,36.58 45.86,39.00 45.70,38.99C45.54,38.98 46.69,36.08 46.54,36.19C46.39,36.31 45.13,39.08 44.79,39.69C44.45,40.30 44.48,40.07 44.51,39.83C44.55,39.58 45.20,38.00 45.00,38.22C44.80,38.44 43.39,41.46 43.32,41.16C43.25,40.85 44.28,37.38 44.58,36.40C44.89,35.43 44.96,35.57 45.14,35.29C45.33,35.01 45.41,34.90 45.70,34.73C45.99,34.55 46.68,34.23 46.89,34.24C47.10,34.25 46.84,35.02 46.96,34.80C47.08,34.57 47.34,33.35 47.59,32.91C47.83,32.47 47.73,32.47 48.43,32.14C49.13,31.81 51.26,31.01 51.78,30.95Z M30.04,30.53C30.15,30.42 30.31,30.32 30.53,30.46C30.75,30.60 31.35,31.13 31.37,31.37C31.39,31.62 30.92,31.97 30.67,31.93C30.43,31.90 30.01,31.39 29.90,31.16C29.80,30.93 29.94,30.65 30.04,30.53Z M38.71,29.97C38.84,30.10 38.83,30.81 38.64,31.23C38.45,31.65 37.84,32.38 37.59,32.49C37.35,32.59 37.13,32.20 37.17,31.86C37.22,31.52 37.62,30.78 37.87,30.46C38.13,30.15 38.58,29.84 38.71,29.97Z M28.36,29.90C28.52,29.81 29.13,29.83 29.34,29.97C29.55,30.11 29.72,30.59 29.62,30.74C29.53,30.89 28.98,30.92 28.78,30.88C28.59,30.85 28.50,30.70 28.43,30.53C28.36,30.37 28.21,30.00 28.36,29.90Z M30.95,29.27C31.09,29.17 31.71,29.63 31.93,29.90C32.15,30.17 32.33,30.67 32.28,30.88C32.23,31.09 31.85,31.22 31.65,31.16C31.45,31.10 31.21,30.85 31.09,30.53C30.97,30.22 30.81,29.38 30.95,29.27Z M37.31,28.99C37.48,29.10 37.66,29.76 37.59,30.18C37.52,30.60 37.11,31.37 36.89,31.51C36.67,31.65 36.31,31.35 36.26,31.02C36.22,30.70 36.44,29.89 36.61,29.55C36.79,29.22 37.15,28.89 37.31,28.99Z M29.41,29.13C29.44,28.96 29.98,28.95 30.18,29.06C30.38,29.18 30.60,29.73 30.60,29.83C30.60,29.94 30.28,29.65 30.18,29.69C30.09,29.74 30.17,30.21 30.04,30.11C29.91,30.02 29.39,29.31 29.41,29.13Z M35.77,28.57C35.94,28.61 36.24,29.10 36.26,29.48C36.29,29.87 36.09,30.70 35.91,30.88C35.74,31.07 35.32,30.87 35.22,30.60C35.11,30.33 35.19,29.61 35.29,29.27C35.38,28.94 35.61,28.54 35.77,28.57Z M34.24,28.57C34.41,28.59 34.77,28.95 34.87,29.27C34.96,29.60 34.94,30.32 34.80,30.53C34.66,30.74 34.19,30.75 34.03,30.53C33.86,30.31 33.78,29.53 33.82,29.20C33.85,28.88 34.06,28.56 34.24,28.57Z M32.56,28.50C32.76,28.43 33.30,28.99 33.47,29.34C33.63,29.69 33.65,30.38 33.54,30.60C33.42,30.82 32.98,30.81 32.77,30.67C32.56,30.53 32.31,30.12 32.28,29.76C32.24,29.40 32.36,28.57 32.56,28.50Z M38.71,28.50C38.77,28.59 38.80,29.10 38.71,29.34C38.62,29.59 38.26,29.94 38.15,29.97C38.05,30.01 38.15,29.60 38.08,29.55C38.01,29.51 37.77,29.81 37.73,29.69C37.70,29.58 37.79,29.06 37.87,28.85C37.95,28.64 38.14,28.43 38.22,28.43C38.30,28.43 38.28,28.84 38.36,28.85C38.44,28.87 38.65,28.42 38.71,28.50Z M31.44,28.02C31.58,28.09 32.03,28.60 32.14,28.78C32.24,28.97 32.15,29.11 32.07,29.13C31.99,29.16 31.72,28.88 31.65,28.92C31.58,28.97 31.76,29.46 31.65,29.41C31.55,29.37 31.13,28.84 31.02,28.64C30.92,28.45 30.97,28.27 31.02,28.23C31.07,28.18 31.23,28.40 31.30,28.36C31.37,28.33 31.30,27.95 31.44,28.02Z M53.53,27.95C53.52,28.10 52.88,29.44 52.76,29.55C52.65,29.67 52.70,28.91 52.83,28.64C52.96,28.38 53.54,27.79 53.53,27.95Z M36.61,27.53C36.71,27.36 36.73,27.92 36.82,27.95C36.92,27.97 37.17,27.48 37.17,27.67C37.17,27.85 36.92,28.91 36.82,29.06C36.73,29.22 36.71,28.60 36.61,28.57C36.52,28.55 36.26,29.10 36.26,28.92C36.26,28.75 36.52,27.69 36.61,27.53Z M33.40,27.46C33.54,27.47 33.68,27.62 33.75,27.81C33.82,27.99 33.88,28.54 33.82,28.57C33.76,28.61 33.49,27.96 33.40,28.02C33.30,28.07 33.34,28.97 33.26,28.92C33.18,28.88 32.89,27.98 32.91,27.74C32.93,27.49 33.26,27.44 33.40,27.46Z M34.94,27.32C35.02,27.32 35.05,27.69 35.15,27.74C35.24,27.78 35.46,27.42 35.50,27.60C35.53,27.77 35.43,28.67 35.36,28.78C35.29,28.90 35.17,28.30 35.08,28.30C34.98,28.30 34.87,28.88 34.80,28.78C34.73,28.69 34.63,27.98 34.66,27.74C34.68,27.49 34.85,27.32 34.94,27.32Z M3.34,41.30C3.51,41.10 4.88,40.88 4.88,40.81C4.88,40.74 3.51,41.20 3.34,40.88C3.16,40.55 3.29,39.25 3.83,38.85C4.36,38.45 6.60,38.58 6.55,38.50C6.51,38.42 4.07,38.50 3.55,38.36C3.02,38.22 3.27,38.13 3.41,37.66C3.55,37.20 4.12,36.01 4.39,35.57C4.66,35.12 4.22,35.03 5.02,35.01C5.81,34.98 9.09,35.50 9.14,35.43C9.19,35.36 5.95,34.99 5.30,34.59C4.64,34.18 5.30,33.41 5.23,32.98C5.16,32.55 4.78,32.16 4.88,32.00C4.97,31.84 5.79,32.09 5.79,32.00C5.79,31.91 4.85,31.86 4.88,31.44C4.90,31.02 5.63,29.87 5.93,29.48C6.22,29.10 6.37,29.19 6.62,29.13C6.88,29.08 6.96,28.94 7.46,29.13C7.96,29.33 9.61,30.36 9.63,30.32C9.65,30.29 7.88,29.24 7.60,28.92C7.32,28.61 7.74,28.59 7.95,28.43C8.16,28.28 8.63,28.04 8.86,28.02C9.09,27.99 9.33,28.32 9.35,28.30C9.37,28.27 8.97,28.06 9.00,27.88C9.04,27.69 9.36,27.33 9.56,27.18C9.76,27.03 9.98,26.98 10.19,26.97C10.40,26.96 10.39,26.77 10.82,27.11C11.25,27.44 11.88,28.25 12.78,28.99C13.67,29.74 16.48,31.88 16.20,31.58C15.92,31.28 11.76,28.03 11.10,27.18C10.43,26.33 11.76,26.54 12.22,26.48C12.67,26.42 13.42,26.82 13.82,26.83C14.23,26.84 14.29,26.38 14.66,26.55C15.04,26.71 15.81,27.35 16.06,27.81C16.32,28.26 16.08,28.85 16.20,29.27C16.32,29.69 16.02,29.45 16.76,30.32C17.51,31.20 19.69,33.64 20.68,34.52C21.67,35.39 22.00,35.31 22.70,35.57C23.40,35.82 24.37,35.84 24.87,36.05C25.37,36.26 25.50,36.73 25.71,36.82C25.92,36.92 26.15,36.73 26.13,36.61C26.10,36.50 25.46,36.18 25.57,36.12C25.67,36.07 26.63,36.18 26.76,36.26C26.89,36.35 26.37,36.52 26.34,36.61C26.30,36.71 26.64,36.73 26.55,36.82C26.45,36.92 25.98,37.02 25.78,37.17C25.58,37.32 26.35,37.69 25.36,37.73C24.37,37.78 19.85,37.42 19.84,37.45C19.82,37.49 24.26,37.74 25.29,37.94C26.31,38.14 25.76,38.55 25.99,38.64C26.22,38.73 26.71,38.59 26.69,38.50C26.66,38.41 25.93,38.20 25.85,38.08C25.77,37.97 26.20,37.87 26.20,37.80C26.20,37.73 25.79,37.76 25.85,37.66C25.91,37.57 26.34,37.30 26.55,37.24C26.76,37.18 27.06,37.25 27.11,37.31C27.15,37.37 26.79,37.52 26.83,37.59C26.86,37.66 27.27,37.62 27.32,37.73C27.36,37.85 27.00,38.33 27.11,38.29C27.21,38.26 27.55,37.71 27.95,37.52C28.34,37.34 29.12,37.14 29.48,37.17C29.84,37.21 30.29,37.49 30.11,37.73C29.94,37.98 28.89,38.52 28.43,38.64C27.98,38.76 27.71,38.38 27.39,38.43C27.06,38.48 26.94,38.79 26.48,38.92C26.01,39.05 25.89,39.13 24.59,39.20C23.29,39.27 20.12,39.36 18.65,39.34C17.18,39.32 16.18,39.06 15.78,39.06C15.39,39.06 15.39,39.22 16.27,39.34C17.16,39.46 19.45,39.76 21.09,39.76C22.74,39.76 25.23,39.26 26.13,39.34C27.03,39.42 27.35,39.85 26.48,40.25C25.60,40.64 22.20,41.45 20.89,41.72C19.57,41.98 19.18,41.69 18.58,41.86C17.97,42.02 17.72,42.53 17.25,42.70C16.78,42.86 16.22,42.65 15.78,42.84C15.34,43.02 15.12,43.55 14.59,43.81C14.07,44.08 13.21,44.36 12.64,44.44C12.07,44.52 11.28,44.40 11.17,44.30C11.05,44.21 12.02,43.91 11.94,43.88C11.86,43.86 11.02,44.16 10.68,44.16C10.34,44.16 10.25,44.21 9.91,43.88C9.57,43.56 8.28,42.60 8.65,42.21C9.02,41.81 11.55,41.66 12.15,41.51C12.74,41.36 12.82,41.24 12.22,41.30C11.61,41.36 9.30,41.94 8.51,41.86C7.72,41.78 7.79,40.99 7.46,40.81C7.14,40.62 7.16,40.54 6.55,40.74C5.95,40.94 4.36,41.90 3.83,42.00C3.29,42.09 3.16,41.50 3.34,41.30Z M60.59,27.67C60.70,27.83 60.72,28.06 60.66,28.36C60.60,28.67 60.89,28.87 60.24,29.48C59.59,30.10 57.21,31.67 56.75,32.07C56.28,32.47 56.87,32.21 57.45,31.86C58.02,31.51 59.64,30.14 60.17,29.97C60.71,29.81 60.65,30.49 60.66,30.88C60.67,31.28 60.59,31.94 60.24,32.35C59.89,32.76 58.60,33.22 58.56,33.33C58.53,33.43 59.78,32.84 60.03,32.98C60.29,33.12 60.23,33.86 60.10,34.17C59.97,34.47 59.95,34.53 59.26,34.80C58.58,35.06 56.00,35.69 55.98,35.77C55.95,35.86 58.62,35.22 59.12,35.29C59.62,35.36 59.11,35.90 58.98,36.19C58.86,36.49 58.72,36.85 58.35,37.03C57.99,37.22 56.92,37.25 56.82,37.31C56.71,37.37 57.61,37.30 57.73,37.38C57.84,37.46 58.11,37.57 57.52,37.80C56.92,38.04 54.67,38.58 54.16,38.78C53.65,38.98 54.40,38.84 54.44,38.99C54.47,39.14 54.46,39.43 54.37,39.69C54.28,39.95 54.51,40.25 53.88,40.53C53.25,40.81 50.66,41.25 50.59,41.37C50.52,41.48 52.98,41.12 53.46,41.23C53.94,41.33 53.52,41.78 53.46,42.00C53.40,42.22 53.37,42.44 53.11,42.56C52.86,42.67 51.96,42.65 51.92,42.70C51.89,42.74 52.89,42.63 52.90,42.84C52.91,43.05 52.48,43.66 51.99,43.95C51.50,44.25 50.47,44.52 49.97,44.58C49.46,44.64 49.32,44.31 48.99,44.30C48.65,44.29 48.52,44.51 47.94,44.51C47.36,44.51 45.69,44.26 45.49,44.30C45.29,44.35 46.24,44.75 46.75,44.79C47.26,44.84 48.12,44.58 48.57,44.58C49.01,44.58 49.39,44.57 49.41,44.79C49.42,45.01 48.96,45.77 48.64,45.91C48.31,46.05 47.47,45.58 47.45,45.63C47.43,45.68 48.45,45.98 48.50,46.19C48.54,46.40 48.00,46.73 47.73,46.89C47.46,47.05 47.30,47.17 46.89,47.17C46.48,47.17 45.83,47.11 45.28,46.89C44.73,46.67 43.65,45.83 43.60,45.84C43.56,45.85 44.86,46.73 45.00,46.96C45.14,47.19 44.79,47.20 44.44,47.24C44.09,47.27 43.39,47.27 42.91,47.17C42.42,47.06 42.05,46.96 41.51,46.61C40.96,46.26 39.67,45.56 39.62,45.07C39.57,44.58 40.84,43.88 41.23,43.67C41.61,43.46 41.90,43.85 41.93,43.81C41.95,43.78 41.32,43.67 41.37,43.46C41.41,43.25 41.16,42.77 42.21,42.56C43.25,42.35 46.74,42.30 47.66,42.21C48.58,42.11 48.33,42.03 47.73,42.00C47.12,41.96 43.85,42.22 44.02,42.00C44.20,41.78 47.95,40.98 48.78,40.67C49.60,40.35 48.66,40.30 48.99,40.11C49.31,39.92 50.55,39.67 50.73,39.55C50.92,39.43 49.88,39.76 50.11,39.41C50.33,39.06 51.39,37.98 52.06,37.45C52.74,36.93 53.99,36.44 54.16,36.26C54.33,36.09 53.45,36.29 53.11,36.40C52.77,36.52 52.65,36.52 52.13,36.96C51.62,37.41 50.61,38.56 50.04,39.06C49.46,39.56 48.92,39.76 48.71,39.97C48.50,40.18 49.35,40.07 48.78,40.32C48.21,40.56 46.18,41.22 45.28,41.44C44.38,41.66 42.68,42.50 43.39,41.65C44.11,40.80 47.85,37.64 49.55,36.33C51.25,35.03 53.48,33.98 53.60,33.82C53.72,33.65 50.20,35.59 50.25,35.36C50.29,35.12 53.85,32.52 53.88,32.42C53.92,32.31 50.61,35.01 50.45,34.73C50.30,34.45 52.39,31.76 52.97,30.74C53.55,29.73 53.53,29.29 53.95,28.64C54.37,28.00 55.02,27.28 55.49,26.90C55.95,26.51 56.37,26.35 56.75,26.34C57.12,26.33 57.93,26.27 57.73,26.83C57.52,27.39 55.39,29.69 55.49,29.69C55.58,29.69 57.70,27.33 58.28,26.83C58.87,26.33 58.74,26.62 58.98,26.69C59.23,26.76 59.69,27.03 59.75,27.25C59.81,27.47 59.29,27.99 59.33,28.02C59.38,28.04 59.82,27.44 60.03,27.39C60.24,27.33 60.49,27.50 60.59,27.67Z M43.46,26.13C43.67,26.01 43.58,27.75 43.39,28.64C43.21,29.54 42.72,30.78 42.35,31.51C41.97,32.24 41.54,32.72 41.16,33.05C40.77,33.37 40.33,33.25 40.04,33.47C39.75,33.69 39.75,34.16 39.41,34.38C39.07,34.60 38.24,34.88 38.01,34.80C37.78,34.71 37.78,34.18 38.01,33.89C38.24,33.60 39.08,33.15 39.41,33.05C39.74,32.94 39.78,33.26 39.97,33.26C40.16,33.26 40.28,33.23 40.53,33.05C40.77,32.86 41.26,32.43 41.44,32.14C41.61,31.85 41.65,31.52 41.58,31.30C41.51,31.08 40.92,31.14 41.02,30.81C41.11,30.49 41.73,30.12 42.14,29.34C42.54,28.56 43.25,26.24 43.46,26.13Z M45.77,17.04C45.78,17.31 45.45,18.24 45.35,19.35C45.26,20.45 45.29,22.66 45.21,23.68C45.13,24.71 44.96,25.27 44.86,25.50C44.77,25.73 44.75,24.88 44.65,25.08C44.56,25.28 44.50,27.16 44.30,26.69C44.11,26.21 43.59,23.16 43.46,22.21C43.34,21.27 43.42,21.47 43.53,21.02C43.65,20.58 43.91,19.92 44.16,19.56C44.42,19.20 44.89,19.16 45.07,18.86C45.26,18.55 45.17,18.04 45.28,17.74C45.40,17.44 45.76,16.77 45.77,17.04Z M56.61,15.22C56.98,15.42 57.14,15.74 57.24,16.20C57.33,16.67 57.12,17.74 57.17,18.02C57.21,18.30 57.38,17.75 57.52,17.88C57.66,18.01 58.04,18.25 58.00,18.79C57.97,19.32 57.39,20.52 57.31,21.09C57.22,21.67 57.42,22.00 57.52,22.21C57.61,22.42 57.77,22.22 57.86,22.35C57.96,22.48 58.09,22.57 58.07,22.98C58.06,23.39 58.04,24.35 57.80,24.80C57.55,25.25 56.99,25.50 56.61,25.71C56.22,25.92 55.81,25.87 55.49,26.06C55.16,26.24 55.06,26.59 54.65,26.83C54.24,27.06 53.43,27.23 53.04,27.46C52.66,27.68 52.53,27.75 52.34,28.16C52.16,28.56 52.09,29.51 51.92,29.90C51.76,30.30 51.70,30.38 51.36,30.53C51.03,30.68 50.49,30.60 49.90,30.81C49.30,31.02 48.28,31.50 47.80,31.79C47.32,32.08 47.22,32.26 47.03,32.56C46.84,32.86 46.92,33.35 46.68,33.61C46.44,33.86 45.88,33.90 45.56,34.10C45.25,34.30 45.47,34.52 44.79,34.80C44.12,35.08 42.30,35.69 41.51,35.77C40.71,35.86 40.41,35.32 40.04,35.29C39.67,35.25 39.47,35.44 39.27,35.57C39.07,35.69 39.12,35.97 38.85,36.05C38.58,36.14 37.83,36.21 37.66,36.05C37.50,35.90 37.58,35.37 37.87,35.15C38.16,34.92 39.05,34.73 39.41,34.73C39.77,34.73 39.81,35.09 40.04,35.15C40.27,35.20 39.83,35.64 40.81,35.08C41.79,34.52 45.05,32.37 45.91,31.79C46.77,31.21 46.49,31.35 45.98,31.58C45.47,31.81 42.66,33.58 42.84,33.19C43.01,32.79 45.78,30.63 47.03,29.20C48.28,27.78 50.43,24.62 50.32,24.66C50.20,24.69 47.74,27.95 46.33,29.41C44.92,30.88 42.63,32.83 41.86,33.47C41.09,34.11 41.46,33.56 41.72,33.26C41.97,32.96 42.66,32.55 43.39,31.65C44.13,30.75 45.24,29.36 46.12,27.88C47.01,26.40 48.29,23.66 48.71,22.77C49.13,21.89 49.10,21.78 48.64,22.56C48.17,23.34 46.75,26.10 45.91,27.46C45.07,28.81 43.65,31.16 43.60,30.67C43.56,30.18 45.20,26.63 45.63,24.52C46.06,22.41 45.89,19.63 46.19,18.02C46.49,16.41 47.11,15.48 47.45,14.87C47.79,14.27 47.93,14.43 48.22,14.38C48.51,14.34 49.30,13.63 49.20,14.59C49.09,15.56 47.66,19.71 47.59,20.19C47.52,20.66 48.47,18.38 48.78,17.46C49.08,16.54 49.20,15.14 49.41,14.66C49.62,14.19 49.64,14.77 50.04,14.59C50.43,14.42 51.39,13.77 51.78,13.61C52.18,13.46 52.48,13.36 52.41,13.68C52.34,14.01 51.85,14.38 51.36,15.57C50.87,16.76 49.27,21.14 49.48,20.82C49.69,20.49 51.83,14.71 52.62,13.61C53.41,12.52 53.87,14.05 54.23,14.24C54.59,14.44 54.92,14.37 54.79,14.80C54.66,15.23 53.74,16.32 53.46,16.83C53.18,17.34 52.86,18.18 53.11,17.88C53.37,17.58 54.42,15.46 55.00,15.01C55.58,14.57 56.23,15.02 56.61,15.22Z M45.49,9.42C45.92,9.74 46.40,10.22 46.33,11.03C46.26,11.83 45.08,14.10 45.07,14.24C45.06,14.38 45.95,12.04 46.26,11.87C46.58,11.69 46.84,12.76 46.96,13.20C47.08,13.63 47.08,14.01 46.96,14.45C46.84,14.90 46.60,15.43 46.26,15.85C45.92,16.27 45.21,16.54 44.93,16.97C44.65,17.40 44.89,17.93 44.58,18.44C44.28,18.95 43.41,19.35 43.11,20.05C42.82,20.75 42.79,21.75 42.84,22.63C42.88,23.52 43.45,24.61 43.39,25.36C43.34,26.10 42.72,26.50 42.49,27.11C42.25,27.71 42.33,28.35 42.00,28.99C41.66,29.63 40.77,30.61 40.46,30.95C40.14,31.29 40.12,31.08 40.11,31.02C40.10,30.96 40.37,30.73 40.39,30.60C40.41,30.47 40.41,30.16 40.25,30.25C40.09,30.35 39.55,31.08 39.41,31.16C39.27,31.24 39.48,30.81 39.41,30.74C39.34,30.67 38.96,30.93 38.99,30.74C39.03,30.56 39.44,29.82 39.62,29.62C39.79,29.43 39.93,29.47 40.04,29.55C40.14,29.63 40.17,30.05 40.25,30.11C40.33,30.17 40.49,30.04 40.53,29.90C40.56,29.76 40.54,29.43 40.46,29.27C40.38,29.12 40.06,29.17 40.04,28.99C40.02,28.82 40.47,28.13 40.32,28.23C40.17,28.32 39.31,29.47 39.13,29.55C38.96,29.63 39.33,28.98 39.27,28.71C39.21,28.45 38.75,28.46 38.78,27.95C38.82,27.43 39.24,26.78 39.48,25.64C39.72,24.50 40.41,20.72 40.25,21.09C40.09,21.47 38.94,26.63 38.50,27.88C38.06,29.12 37.74,28.62 37.59,28.57C37.44,28.53 37.66,27.84 37.59,27.60C37.52,27.35 37.18,27.78 37.17,27.11C37.16,26.43 37.49,25.28 37.52,23.54C37.56,21.81 37.50,16.12 37.38,16.69C37.27,17.26 37.06,25.11 36.82,26.97C36.59,28.82 36.21,27.81 35.98,27.81C35.76,27.81 35.60,27.69 35.50,26.97C35.39,26.24 35.53,24.75 35.36,23.47C35.18,22.19 34.48,18.73 34.45,19.28C34.41,19.82 35.15,25.43 35.15,26.76C35.15,28.09 34.61,27.06 34.45,27.25C34.28,27.43 34.35,27.93 34.17,27.88C33.98,27.82 33.69,27.72 33.33,26.90C32.97,26.07 32.05,22.88 32.00,22.91C31.95,22.95 32.97,26.31 33.05,27.11C33.13,27.90 32.58,27.42 32.49,27.67C32.40,27.91 32.59,28.56 32.49,28.57C32.38,28.59 32.12,27.88 31.86,27.74C31.60,27.60 31.15,27.68 30.95,27.74C30.75,27.79 30.71,27.85 30.67,28.09C30.64,28.32 30.81,29.04 30.74,29.13C30.67,29.23 30.50,28.78 30.25,28.64C30.01,28.50 30.05,29.15 29.27,28.30C28.49,27.44 25.58,23.48 25.57,23.54C25.56,23.60 28.63,27.65 29.20,28.64C29.77,29.63 29.12,29.36 28.99,29.48C28.87,29.61 28.61,29.37 28.43,29.41C28.26,29.46 28.02,29.56 27.95,29.76C27.88,29.96 27.90,30.36 28.02,30.60C28.13,30.85 28.39,31.11 28.64,31.23C28.90,31.35 29.24,31.15 29.55,31.30C29.87,31.45 30.47,31.92 30.53,32.14C30.59,32.36 30.38,32.76 29.90,32.63C29.43,32.50 28.00,31.64 27.67,31.37C27.33,31.10 28.41,31.50 27.88,31.02C27.34,30.54 24.56,28.50 24.45,28.50C24.35,28.50 26.79,30.56 27.25,31.02C27.70,31.49 27.35,31.20 27.18,31.30C27.00,31.41 26.36,31.44 26.20,31.65C26.03,31.86 26.03,32.30 26.20,32.56C26.36,32.82 26.84,33.12 27.18,33.19C27.51,33.26 27.85,32.92 28.23,32.98C28.60,33.04 29.24,33.32 29.41,33.54C29.59,33.76 29.34,34.14 29.27,34.31C29.20,34.47 29.26,34.53 28.99,34.52C28.73,34.50 27.96,34.39 27.67,34.24C27.37,34.09 27.49,33.78 27.25,33.61C27.00,33.43 26.51,33.22 26.20,33.19C25.88,33.15 25.57,33.27 25.36,33.40C25.15,33.53 25.52,33.90 24.94,33.96C24.36,34.02 21.86,33.71 21.86,33.75C21.86,33.78 24.25,33.97 24.94,34.17C25.63,34.37 25.66,34.81 25.99,34.94C26.31,35.06 26.65,35.01 26.90,34.94C27.14,34.87 27.09,34.54 27.46,34.52C27.82,34.49 28.80,34.57 29.06,34.80C29.33,35.02 29.37,35.67 29.06,35.84C28.76,36.02 27.70,35.95 27.25,35.84C26.79,35.74 26.68,35.26 26.34,35.22C26.00,35.17 25.96,35.68 25.22,35.57C24.47,35.45 22.75,34.95 21.86,34.52C20.98,34.09 20.43,33.54 19.91,32.98C19.38,32.42 19.15,31.67 18.72,31.16C18.29,30.65 17.63,30.28 17.32,29.90C17.01,29.53 16.92,29.30 16.83,28.92C16.74,28.55 16.19,27.72 16.76,27.67C17.33,27.61 20.44,28.73 20.26,28.57C20.07,28.42 16.49,27.19 15.64,26.76C14.79,26.33 15.22,26.22 15.15,25.99C15.08,25.76 14.76,25.34 15.22,25.36C15.69,25.38 17.95,26.20 17.95,26.13C17.95,26.06 15.70,25.30 15.22,24.94C14.75,24.58 15.02,24.29 15.08,23.96C15.14,23.63 15.53,23.32 15.57,22.98C15.62,22.64 15.11,22.40 15.36,21.93C15.62,21.47 16.46,20.23 17.11,20.19C17.76,20.14 19.28,21.72 19.28,21.65C19.28,21.58 17.48,20.30 17.11,19.77C16.74,19.23 16.98,18.89 17.04,18.44C17.10,17.98 17.25,17.39 17.46,17.04C17.67,16.69 18.04,16.49 18.30,16.34C18.55,16.19 18.69,16.00 19.00,16.13C19.30,16.26 20.08,17.16 20.12,17.11C20.15,17.06 19.28,16.24 19.21,15.85C19.14,15.47 19.43,15.02 19.70,14.80C19.96,14.58 20.30,14.10 20.82,14.52C21.33,14.94 22.73,17.35 22.77,17.32C22.82,17.28 21.20,14.98 21.09,14.31C20.99,13.65 21.76,13.46 22.14,13.34C22.53,13.21 23.13,13.42 23.40,13.55C23.67,13.67 23.69,14.10 23.75,14.10C23.81,14.10 23.63,13.66 23.75,13.55C23.87,13.43 24.24,13.38 24.45,13.41C24.66,13.43 24.90,13.52 25.01,13.68C25.11,13.85 25.14,14.12 25.08,14.38C25.02,14.65 24.71,14.54 24.66,15.29C24.61,16.05 24.71,18.30 24.80,18.93C24.89,19.56 24.90,18.69 25.22,19.07C25.53,19.44 26.01,20.37 26.69,21.16C27.36,21.96 28.50,22.87 29.27,23.82C30.04,24.78 31.16,26.83 31.30,26.90C31.44,26.97 30.92,25.36 30.11,24.24C29.31,23.12 27.29,21.25 26.48,20.19C25.66,19.13 25.41,18.71 25.22,17.88C25.03,17.05 25.25,15.86 25.36,15.22C25.46,14.58 25.27,13.58 25.85,14.03C26.43,14.49 28.57,17.69 28.85,17.95C29.13,18.21 28.10,16.36 27.53,15.57C26.96,14.78 25.79,13.78 25.43,13.20C25.07,12.61 25.22,12.52 25.36,12.08C25.50,11.63 26.07,10.74 26.27,10.54C26.47,10.34 26.50,10.91 26.55,10.89C26.59,10.87 26.27,10.68 26.55,10.40C26.83,10.12 27.72,9.50 28.23,9.21C28.73,8.92 29.11,8.08 29.55,8.65C30.00,9.22 30.70,12.24 30.88,12.64C31.07,13.03 30.85,11.69 30.67,11.03C30.50,10.36 29.61,9.07 29.83,8.65C30.05,8.23 31.50,7.84 32.00,8.51C32.50,9.19 32.75,12.66 32.84,12.71C32.93,12.75 32.51,9.36 32.56,8.79C32.61,8.22 32.65,9.48 33.12,9.28C33.58,9.08 34.80,7.88 35.36,7.60C35.91,7.32 36.08,7.77 36.47,7.60C36.87,7.44 37.28,6.81 37.73,6.62C38.19,6.44 38.99,5.90 39.20,6.48C39.41,7.07 38.92,10.08 38.99,10.12C39.06,10.15 39.32,7.14 39.62,6.69C39.92,6.25 40.77,6.26 40.81,7.46C40.84,8.66 39.77,13.89 39.83,13.89C39.89,13.89 40.77,8.54 41.16,7.46C41.54,6.39 41.71,7.18 42.14,7.46C42.57,7.74 43.18,8.81 43.74,9.14C44.30,9.47 45.06,9.11 45.49,9.42Z" fill="#ffffff" fill-rule="evenodd"/>
</svg>
